<?xml version="1.0" standalone="no"?>
<!DOCTYPE svg PUBLIC "-//W3C//DTD SVG 1.1//EN" "http://www.w3.org/Graphics/SVG/1.1/DTD/svg11.dtd" >
<svg>
<metadata>
Created by FontForge 20090914 at Thu Feb 23 16:03:26 2012
 By ffonts
30/3/98 &#226;&#128;&#144; http://www.btinternet.com/~whoami &#226;&#128;&#144; FREEWARE font 
</metadata>
<defs>
<font id="ZXSpectrum" horiz-adv-x="1495" >
  <font-face 
    font-family="ZXSpectrum"
    font-weight="300"
    font-stretch="normal"
    units-per-em="900"
    panose-1="0 0 3 0 0 0 0 0 0 0"
    ascent="800"
    descent="-100"
    x-height="800"
    cap-height="800"
    bbox="0 0 2073 800"
    underline-thickness="20"
    underline-position="-123"
    unicode-range="U+0020-U+00A9"
  />
<missing-glyph horiz-adv-x="450" 
d="M56 0v800h338v-800h-338zM113 56h225v688h-225v-688z" />
    <glyph glyph-name=".notdef" horiz-adv-x="450" 
d="M56 0v800h338v-800h-338zM113 56h225v688h-225v-688z" />
    <glyph glyph-name=".null" horiz-adv-x="0" 
 />
    <glyph glyph-name="nonmarkingreturn" 
 />
    <glyph glyph-name="space" unicode=" " 
 />
    <glyph glyph-name="exclam" unicode="!" 
d="M1375 0q20 0 34.5 14.5t14.5 34.5v702q0 20 -14.5 34.5t-34.5 14.5h-1326q-20 0 -34.5 -14.5t-14.5 -34.5v-702q0 -20 14.5 -34.5t34.5 -14.5h1326zM49 20q-29 0 -29 29v702q0 29 29 29h1326q29 0 29 -29v-702q0 -29 -29 -29h-1326z" />
    <glyph glyph-name="quotedbl" unicode="&#x22;" horiz-adv-x="2176" 
d="M2024 0q20 0 34.5 14.5t14.5 34.5v702q0 20 -14.5 34.5t-34.5 14.5h-1975q-20 0 -34.5 -14.5t-14.5 -34.5v-702q0 -20 14.5 -34.5t34.5 -14.5h1975zM49 20q-29 0 -29 29v702q0 29 29 29h1975q28 0 28 -29v-702q0 -29 -28 -29h-1975zM665 637h79q50 0 50 -41
q0 -23 -20 -33q25 -10 25 -40q0 -19 -14.5 -33.5t-50.5 -14.5h-69v162zM698 503h41q26 0 26 24q0 20 -24 20h-43v-44zM698 574h39q24 0 24 18q0 17 -24 17h-39v-35zM828 637h82q51 0 51 -45q0 -31 -25 -39q21 -9 21 -40t7 -33v-5h-37q-4 13 -4 32t-4.5 25.5t-22.5 6.5h-35
v-64h-33v162zM901 566q26 0 26 22q0 21 -23 21h-43v-43h40zM1111 609h-86v-34h79v-29h-79v-42h89v-29h-123v162h120v-28zM1165 475h-36l58 162h39l57 -162h-36l-11 34h-60zM1185 537h42l-20 64h-1zM1341 475h-33v162h33v-65l62 65h44l-66 -66l70 -96h-44l-50 71l-16 -16v-55
zM602 193q1 -34 45 -34q43 0 43 27q0 17 -38 26l-22 5q-33 8 -46 16q-20 15 -20 45q0 64 80 64q43 0 64 -24q17 -18 17 -43h-42q-4 31 -42 31q-37 0 -37 -25q0 -16 22 -21l51 -13q55 -13 55 -56q0 -40 -34 -58q-21 -10 -48 -10q-89 0 -89 70h41zM809 128h-44v209h95
q65 0 65 -67q0 -22 -12 -40q-18 -26 -54 -26h-50v-76zM849 240q32 0 32 32q0 29 -38 29h-34v-61h40zM988 128h-46l75 209h50l74 -209h-48l-13 43h-77zM1014 207h54l-26 83h-1zM1301 269q-10 36 -46 36q-51 0 -51 -73q0 -71 51 -71q38 0 46 39h44q-15 -77 -91 -77
q-43 0 -69 28.5t-26 80.5q0 53 28 83q26 27 68 27t68 -25q20 -21 22 -48h-44zM1531 300h-110v-44h101v-37h-101v-54h115v-37h-158v209h153v-37z" />
    <glyph glyph-name="numbersign" unicode="#" horiz-adv-x="1812" 
d="M1677 0q20 0 34.5 14.5t14.5 34.5v702q0 20 -14.5 34.5t-34.5 14.5h-1628q-20 0 -34.5 -14.5t-14.5 -34.5v-702q0 -20 14.5 -34.5t34.5 -14.5h1628zM49 20q-29 0 -29 29v702q0 29 29 29h1628q29 0 29 -29v-702q0 -29 -29 -29h-1628zM624 607q-10 36 -47 36q-51 0 -51 -72
t51 -72q39 0 47 40h43q-15 -77 -90 -77q-43 0 -69.5 28.5t-26.5 80.5q0 53 28 83q26 27 68 27q43 0 68 -25q20 -21 22 -49h-43zM730 467h-46l74 209h51l73 -209h-47l-14 43h-77zM756 546h53l-26 83v0zM954 467h-44v209h95q65 0 65 -67q0 -22 -12 -40q-18 -27 -54 -27h-50
v-75zM994 578q32 0 32 33q0 29 -38 29h-34v-62h40zM1135 531q1 -33 44 -33q44 0 44 27q0 17 -38 26l-23 5q-33 8 -45 16q-21 14 -21 45q0 64 80 64q43 0 65 -24q16 -18 17 -43h-42q-4 31 -43 31q-36 0 -36 -25q0 -16 22 -22l51 -12q54 -13 54 -56q0 -40 -34 -58
q-21 -10 -48 -10q-89 0 -89 69h42zM506 184q1 -33 44 -33t43 27q0 17 -37 26l-23 5q-33 8 -45 16q-21 15 -21 45q0 64 80 64q43 0 65 -24q16 -18 17 -43h-42q-4 31 -43 31q-36 0 -36 -25q0 -16 22 -21l51 -13q54 -13 54 -56q0 -40 -34 -58q-21 -10 -48 -10q-89 0 -89 69h42z
M710 214v-94h-43v209h43v-79h82v79h43v-209h-43v94h-82zM918 120h-43v209h43v-209zM1002 120h-43v209h148v-37h-105v-47h92v-37h-92v-88zM1225 120h-44v172h-63v37h170v-37h-63v-172z" />
    <glyph glyph-name="dollar" unicode="$" 
d="M1375 0q20 0 34.5 14.5t14.5 34.5v702q0 20 -14.5 34.5t-34.5 14.5h-1326q-20 0 -34.5 -14.5t-14.5 -34.5v-702q0 -20 14.5 -34.5t34.5 -14.5h1326zM49 20q-29 0 -29 29v702q0 29 29 29h1326q29 0 29 -29v-702q0 -29 -29 -29h-1326zM501 455h-86v-34h79v-28h-79v-42h90
v-29h-123v162h119v-29zM632 484h31v-162h-34l-66 116v0v-116h-32v162h36l64 -113h1v113zM765 322h-34v133h-49v29h132v-29h-49v-133zM953 455h-86v-34h79v-28h-79v-42h90v-29h-123v162h119v-29zM984 484h82q51 0 51 -46q0 -30 -25 -38q21 -9 21 -40t7 -34v-4h-37
q-4 12 -4 33q0 18 -4.5 24t-21.5 6h-35v-63h-34v162zM1057 413q27 0 27 22q0 21 -24 21h-42v-43h39z" />
    <glyph glyph-name="percent" unicode="%" 
d="M1375 0q20 0 34.5 14.5t14.5 34.5v702q0 20 -14.5 34.5t-34.5 14.5h-1326q-20 0 -34.5 -14.5t-14.5 -34.5v-702q0 -20 14.5 -34.5t34.5 -14.5h1326zM49 20q-29 0 -29 29v702q0 29 29 29h1326q29 0 29 -29v-702q0 -29 -29 -29h-1326zM274 501q0 -26 34 -26t34 21
q0 13 -30 20l-17 4q-26 6 -36 13q-15 11 -15 35q0 50 62 50q33 0 50 -19q13 -14 13 -34h-32q-3 25 -34 25q-28 0 -28 -20q0 -13 17 -17l40 -10q42 -10 42 -43q0 -53 -64 -53q-69 0 -69 54h33zM476 451h-34v61l-56 101h40l34 -70l32 70h38l-54 -101v-61zM706 451h-31v136h-1
l-30 -136h-33l-30 136v0v-136h-32v162h50l29 -128v0l29 128h49v-162zM739 613h79q50 0 50 -41q0 -24 -20 -34q25 -9 25 -39q0 -20 -14.5 -34t-50.5 -14h-69v162zM771 479h42q26 0 26 24q0 19 -24 19h-44v-43zM771 550h40q24 0 24 18q0 17 -25 17h-39v-35zM973 618
q37 0 57.5 -23.5t20.5 -62.5q0 -38 -20.5 -61.5t-57.5 -23.5t-57.5 23.5t-20.5 61.5q0 39 20.5 62.5t57.5 23.5zM973 475q44 0 44 57t-44 57t-44 -57t44 -57zM1112 480h80v-29h-114v162h34v-133zM430 231q1 -26 35 -26t34 21q0 13 -30 20l-17 4q-26 6 -36 12q-16 12 -16 35
q0 50 63 50q33 0 50 -18q13 -15 13 -34h-33q-3 24 -33 24q-28 0 -28 -19q0 -13 17 -17l40 -10q42 -10 42 -43q0 -53 -64 -53q-69 0 -69 54h32zM590 254v-73h-34v162h34v-61h63v61h34v-162h-34v73h-63zM751 181h-34v162h34v-162zM817 181h-34v162h115v-29h-81v-36h71v-29h-71
v-68zM990 181h-34v133h-49v29h132v-29h-49v-133z" />
    <glyph glyph-name="zero" unicode="0" 
d="M1375 800h-1326q-20 0 -34.5 -14.5t-14.5 -34.5v-702q0 -20 14.5 -34.5t34.5 -14.5h1326q20 0 34.5 14.5t14.5 34.5v702q0 20 -14.5 34.5t-34.5 14.5zM1404 49q0 -29 -29 -29h-1326q-29 0 -29 29v702q0 29 29 29h1326q29 0 29 -29v-702zM360 596q143 0 143 -212
t-143 -212t-143 212t143 212zM360 237q35 0 47.5 33t12.5 114q0 82 -12.5 114.5t-47.5 32.5q-34 0 -46.5 -32.5t-12.5 -114.5q0 -81 12.5 -114t46.5 -33zM940 136v17h180v-17h-180z" />
    <glyph glyph-name="one" unicode="1" 
d="M1375 800h-1326q-20 0 -34.5 -14.5t-14.5 -34.5v-702q0 -20 14.5 -34.5t34.5 -14.5h1326q20 0 34.5 14.5t14.5 34.5v702q0 20 -14.5 34.5t-34.5 14.5zM1404 49q0 -29 -29 -29h-1326q-29 0 -29 29v702q0 29 29 29h1326q29 0 29 -29v-702zM907 731v-250h254v250h-254z
M1034 608v111h115v-111h-115zM239 524h12q97 0 101 72h66v-413h-81v284h-98v57zM1054 177h-47v45h47v-45zM1042 241h-24l-13 108v59h50v-59z" />
    <glyph glyph-name="two" unicode="2" 
d="M219 450q0 87 53 123q34 23 81 23q62 0 102 -35t40 -96q0 -47 -28 -83q-18 -23 -58 -51q-50 -34 -63 -45q-23 -18 -29 -31h179v-72h-282q3 49 15 76q21 45 81 88q64 46 80 64q24 25 24 57q0 23 -15 41t-42 18q-58 0 -59 -77h-79zM1074 353h28l-18 -82q-5 -21 2 -21
q14 0 25.5 16t11.5 41q0 38 -25 60t-63 22q-41 0 -66.5 -27.5t-25.5 -69.5q0 -43 27 -69.5t69 -26.5q40 0 68 27h29q-36 -52 -99 -52q-53 0 -89.5 34.5t-36.5 87.5q0 51 36.5 86.5t87.5 35.5q46 0 80 -28t34 -72q0 -46 -33 -73q-25 -21 -49 -21q-12 0 -16 8q-2 5 -3 9
q-16 -17 -34 -17q-21 0 -36.5 16.5t-15.5 39.5q0 32 19.5 56t49.5 24q26 0 39 -21zM1034 326q-16 0 -26.5 -14t-10.5 -30q0 -29 25 -29q16 0 27 14t11 31q0 28 -26 28zM1375 800h-1326q-20 0 -34.5 -14.5t-14.5 -34.5v-702q0 -20 14.5 -34.5t34.5 -14.5h1326q20 0 34.5 14.5
t14.5 34.5v702q0 20 -14.5 34.5t-34.5 14.5zM1404 49q0 -29 -29 -29h-1326q-29 0 -29 29v702q0 29 29 29h1326q29 0 29 -29v-702zM907 731v-250h254v250h-254zM919 608v111h115v-111h-115z" />
    <glyph glyph-name="three" unicode="3" 
d="M323 422h12q70 0 70 56q0 53 -52 53q-56 0 -56 -68h-75q0 61 33 95q36 38 103 38q50 0 85 -25q43 -31 43 -90q0 -57 -50 -79v-1q21 -6 37 -23q26 -27 26 -73q0 -58 -39.5 -95.5t-101.5 -37.5q-143 0 -143 138l79 -1q0 -72 60 -72q26 0 43.5 17.5t17.5 50.5q0 59 -92 59
v58zM1101 241h-32l-9 -64h-30l9 64h-31l-9 -64h-31l9 64h-31l4 29h31l6 39h-32l4 29h32l9 64h30l-9 -64h31l9 64h31l-9 -64h31l-4 -29h-31l-6 -39h32zM1017 309l-5 -39h31l5 39h-31zM1375 800h-1326q-20 0 -34.5 -14.5t-14.5 -34.5v-702q0 -20 14.5 -34.5t34.5 -14.5h1326
q20 0 34.5 14.5t14.5 34.5v702q0 20 -14.5 34.5t-34.5 14.5zM1404 49q0 -29 -29 -29h-1326q-29 0 -29 29v702q0 29 29 29h1326q29 0 29 -29v-702zM907 731v-250h254v250h-254zM919 608v111h230v-111h-230z" />
    <glyph glyph-name="four" unicode="4" 
d="M504 274h-45v-91h-82v91h-162v71l151 251h93v-258h45v-64zM377 338q0 61 1 121t1 56h-1l-104 -177h103zM1064 338q-2 34 -27 34v-61q41 -13 54 -25q18 -17 18 -45q0 -26 -16 -45q-19 -23 -56 -25v-31h-14v31q-73 6 -73 75h42q3 -36 31 -41v68q-68 18 -68 66q0 28 17.5 47
t50.5 20v21h14v-21q64 -7 68 -68h-41zM1023 372q-28 -2 -28 -26t28 -30v56zM1037 205q29 2 29 32q0 23 -29 31v-63zM1375 800h-1326q-20 0 -34.5 -14.5t-14.5 -34.5v-702q0 -20 14.5 -34.5t34.5 -14.5h1326q20 0 34.5 14.5t14.5 34.5v702q0 20 -14.5 34.5t-34.5 14.5z
M1404 49q0 -29 -29 -29h-1326q-29 0 -29 29v702q0 29 29 29h1326q29 0 29 -29v-702zM907 731v-250h254v250h-254zM1034 604h115v-111h-115v111z" />
    <glyph glyph-name="five" unicode="5" 
d="M300 431q33 22 74 22q48 0 83 -31q42 -36 42 -102q0 -55 -30 -95q-39 -53 -120 -53q-53 0 -90 30q-42 33 -44 92h81q6 -57 57 -57q29 0 45.5 21.5t16.5 55.5q0 31 -15 52.5t-45 21.5q-39 0 -55 -29l-73 3l29 227h226v-69h-167zM1106 290q24 0 41 -17t17 -41
q0 -25 -17 -42t-41 -17q-25 0 -42 17t-17 42q0 24 17 41t42 17zM1106 206q25 0 25 26q0 25 -25 25q-26 0 -26 -25q0 -26 26 -26zM954 406q24 0 41.5 -17.5t17.5 -41.5t-17.5 -41.5t-41.5 -17.5t-41 17.5t-17 41.5q0 25 17 42t41 17zM954 322q26 0 26 25q0 26 -26 26
q-25 0 -25 -26q0 -25 25 -25zM977 171h-24l128 235h24zM1375 800h-1326q-20 0 -34.5 -14.5t-14.5 -34.5v-702q0 -20 14.5 -34.5t34.5 -14.5h1326q20 0 34.5 14.5t14.5 34.5v702q0 20 -14.5 34.5t-34.5 14.5zM1404 49q0 -29 -29 -29h-1326q-29 0 -29 29v702q0 29 29 29h1326
q29 0 29 -29v-702zM907 731v-250h254v250h-254zM1034 719h115v-226h-115v226z" />
    <glyph glyph-name="six" unicode="6" 
d="M412 491q-4 40 -48 40q-61 0 -68 -114l2 -1q25 34 77 34q60 0 95 -41q31 -36 31 -86q0 -68 -37.5 -109.5t-97.5 -41.5q-149 0 -149 208q0 216 153 216q57 0 85 -27q29 -30 38 -78h-81zM360 385q-62 0 -62 -71q0 -34 18 -55.5t47 -21.5q57 0 57 79q0 35 -20 54
q-17 15 -40 15zM1140 177h-55l-16 19q-25 -25 -66 -25q-32 0 -52 19.5t-20 45.5q0 41 44 68l5 3q-21 24 -21 48t17.5 38.5t44.5 14.5q22 0 38 -12q19 -15 19 -41q0 -33 -39 -55l33 -41q10 15 12 38h40q-4 -40 -26 -70zM1019 374q-18 0 -18 -18q0 -11 16 -30q22 14 22 29
q0 19 -20 19zM1004 278q-28 -20 -28 -39q0 -30 34 -30q19 0 36 16zM1375 800h-1326q-20 0 -34.5 -14.5t-14.5 -34.5v-702q0 -20 14.5 -34.5t34.5 -14.5h1326q20 0 34.5 14.5t14.5 34.5v702q0 20 -14.5 34.5t-34.5 14.5zM1404 49q0 -29 -29 -29h-1326q-29 0 -29 29v702
q0 29 29 29h1326q29 0 29 -29v-702zM907 731v-250h254v250h-254zM1034 604h115v-111h-115v111zM919 608v111h115v-111h-115z" />
    <glyph glyph-name="seven" unicode="7" 
d="M506 526q-140 -152 -151 -343h-83q5 107 63 215q38 70 83 119h-205l2 72h291v-63zM1014 408h32v-87h-32v87zM1375 800h-1326q-20 0 -34.5 -14.5t-14.5 -34.5v-702q0 -20 14.5 -34.5t34.5 -14.5h1326q20 0 34.5 14.5t14.5 34.5v702q0 20 -14.5 34.5t-34.5 14.5zM1404 49
q0 -29 -29 -29h-1326q-29 0 -29 29v702q0 29 29 29h1326q29 0 29 -29v-702zM907 731v-250h254v250h-254zM919 608v111h230v-226h-115v115h-115z" />
    <glyph glyph-name="eight" unicode="8" 
d="M1375 800h-1326q-20 0 -34.5 -14.5t-14.5 -34.5v-702q0 -20 14.5 -34.5t34.5 -14.5h1326q20 0 34.5 14.5t14.5 34.5v702q0 20 -14.5 34.5t-34.5 14.5zM1404 49q0 -29 -29 -29h-1326q-29 0 -29 29v702q0 29 29 29h1326q29 0 29 -29v-702zM360 172q-73 0 -111 42
q-32 34 -32 84q0 75 63 104q-50 25 -50 81q0 51 36.5 82t92.5 31q61 0 97 -33q33 -30 33 -75q0 -58 -47 -83q61 -31 61 -99q0 -50 -30 -87q-39 -47 -113 -47zM412 479q0 23 -14 37.5t-34 14.5q-56 0 -56 -52q0 -20 13 -34q15 -17 40 -17q51 0 51 51zM359 367q-24 0 -40 -15
q-18 -18 -18 -49q0 -30 16 -48t44 -18q29 0 45 22q14 18 14 43q0 26 -14 43q-16 22 -47 22zM1044 110q-56 76 -56 151q0 77 56 153h34q-44 -75 -44 -153q0 -76 44 -151h-34zM913 725v-238h242v238h-242z" />
    <glyph glyph-name="nine" unicode="9" 
d="M1375 800h-1326q-20 0 -34.5 -14.5t-14.5 -34.5v-702q0 -20 14.5 -34.5t34.5 -14.5h1326q20 0 34.5 14.5t14.5 34.5v702q0 20 -14.5 34.5t-34.5 14.5zM1404 49q0 -29 -29 -29h-1326q-29 0 -29 29v702q0 29 29 29h1326q29 0 29 -29v-702zM305 278v0q7 -41 48 -41
q67 0 68 115l-1 1q-24 -34 -79 -34q-57 0 -91 37t-34 91q0 73 40 112q37 37 101 37q145 0 145 -212q0 -111 -47 -166q-39 -46 -103 -46q-53 0 -87.5 28.5t-40.5 77.5h81zM359 384q24 0 41.5 17.5t17.5 51.5q0 76 -62 76q-58 0 -58 -70q0 -75 61 -75zM1016 414
q56 -77 56 -152q0 -77 -56 -152h-34q44 74 44 152q0 76 -44 152h34z" />
    <glyph glyph-name="A" unicode="A" 
d="M1375 0q20 0 34.5 14.5t14.5 34.5v702q0 20 -14.5 34.5t-34.5 14.5h-1326q-20 0 -34.5 -14.5t-14.5 -34.5v-702q0 -20 14.5 -34.5t34.5 -14.5h1326zM49 20q-29 0 -29 29v702q0 29 29 29h1326q29 0 29 -29v-702q0 -29 -29 -29h-1326zM222 298h-92l149 417h100l147 -417
h-94l-27 86h-154zM274 456h106l-51 165h-1zM853 591q0 -23 29 -23t29 18q0 12 -25 17l-15 4q-22 5 -30 11q-14 9 -14 30q0 43 54 43q53 0 54 -45h-28q-3 21 -29 21q-24 0 -24 -17q0 -11 15 -15l34 -8q36 -9 36 -37q0 -46 -55 -46q-59 0 -59 47h28zM1020 548h-29v114h-42v25
h113v-25h-42v-114zM1140 691q32 0 49.5 -20.5t17.5 -53.5t-17.5 -53t-49.5 -20q-31 0 -49 20t-18 53t18 53.5t49 20.5zM1140 569q38 0 38 48q0 49 -38 49t-38 -49q0 -48 38 -48zM1259 548h-29v139h64q43 0 43 -45q0 -19 -12.5 -31.5t-31.5 -12.5h-34v-50zM1286 622
q22 0 22 22q0 19 -26 19h-23v-41h27zM910 242h31v-162h-34l-66 116v0v-116h-32v162h36l64 -113h1v113zM1093 213h-86v-34h79v-28h-79v-42h90v-29h-123v162h119v-29zM1111 242h36q22 -92 26 -118v0l23 118h36q19 -91 24 -118v0q5 25 27 118h34l-46 -162h-32q-18 85 -25 126
h-1q-4 -25 -25 -126h-31z" />
    <glyph glyph-name="B" unicode="B" 
d="M1375 0q20 0 34.5 14.5t14.5 34.5v702q0 20 -14.5 34.5t-34.5 14.5h-1326q-20 0 -34.5 -14.5t-14.5 -34.5v-702q0 -20 14.5 -34.5t34.5 -14.5h1326zM49 20q-29 0 -29 29v702q0 29 29 29h1326q29 0 29 -29v-702q0 -29 -29 -29h-1326zM163 715h202q69 0 103 -37
q26 -29 26 -70q0 -60 -51 -85q64 -25 64 -101q0 -51 -36 -86q-21 -21 -43 -28q-30 -10 -89 -10h-176v417zM246 370h107q67 0 67 61q0 50 -63 50h-111v-111zM246 552h102q62 0 62 46q0 45 -64 45h-100v-91zM1338 628l-53 -16l34 -48l-31 -23l-35 46l-34 -46l-32 23l34 48
l-52 16l11 37l52 -17v60h43v-60l50 17zM359 242h79q50 0 50 -41q0 -24 -20 -34q25 -9 25 -39q0 -20 -14.5 -34t-50.5 -14h-69v162zM391 108h42q26 0 26 24q0 19 -24 19h-44v-43zM391 179h40q24 0 24 18q0 17 -25 17h-39v-35zM593 246q37 0 57.5 -23t20.5 -62
q0 -38 -20.5 -61.5t-57.5 -23.5t-57.5 23.5t-20.5 61.5q0 39 20.5 62t57.5 23zM593 104q44 0 44 57t-44 57t-44 -57t44 -57zM698 242h82q51 0 51 -46q0 -30 -25 -38q20 -9 20 -40t7 -34v-4h-37q-4 12 -4 33q0 18 -4 24t-22 6h-35v-63h-33v162zM771 171q26 0 26 22
q0 21 -24 21h-42v-43h40zM861 242h71q66 0 66 -77q0 -33 -13 -56q-18 -29 -54 -29h-70v162zM894 108h33q37 0 37 54q0 52 -38 52h-32v-106zM1143 213h-86v-34h79v-28h-79v-42h90v-29h-123v162h119v-29zM1175 242h82q51 0 51 -46q0 -30 -26 -38q21 -9 21 -40t7 -34v-4h-37
q-4 12 -4 33q0 18 -4.5 24t-21.5 6h-35v-63h-33v162zM1247 171q27 0 27 22q0 21 -24 21h-42v-43h39z" />
    <glyph glyph-name="C" unicode="C" 
d="M1375 0q20 0 34.5 14.5t14.5 34.5v702q0 20 -14.5 34.5t-34.5 14.5h-1326q-20 0 -34.5 -14.5t-14.5 -34.5v-702q0 -20 14.5 -34.5t34.5 -14.5h1326zM49 20q-29 0 -29 29v702q0 29 29 29h1326q29 0 29 -29v-702q0 -29 -29 -29h-1326zM429 578q-20 72 -93 72q-40 0 -67 -28
q-36 -38 -36 -117q0 -62 24 -100q27 -43 79 -43q77 0 93 79h87q-14 -71 -58 -111q-48 -43 -123 -43q-86 0 -137 55q-54 59 -54 164t56 165q51 55 136 55t135 -51q41 -41 45 -97h-87zM1248 575q0 26 6 39t27 27.5t21 32.5q0 33 -32 33q-31 0 -35 -38v0h-46q0 39 26 59
q21 17 52 17q28 0 49 -11q35 -17 35 -58q0 -32 -40 -61q-20 -14 -20 -40h-43zM1295 507h-48v47h48v-47zM801 189q-8 28 -36 28q-40 0 -40 -57q0 -55 40 -55q30 0 36 31h34q-11 -60 -70 -60q-34 0 -54 22t-20 63t20.5 63t53.5 22t53 -19q15 -16 17 -38h-34zM932 246
q36 0 56.5 -23t20.5 -62q0 -38 -20.5 -61.5t-56.5 -23.5q-37 0 -57.5 23.5t-20.5 61.5q0 39 20.5 62t57.5 23zM932 104q44 0 44 57t-44 57q-45 0 -45 -57t45 -57zM1135 242h32v-162h-34l-66 116v0v-116h-32v162h36l64 -113v0v113zM1269 80h-34v133h-49v29h132v-29h-49v-133z
" />
    <glyph glyph-name="D" unicode="D" 
d="M1375 0q20 0 34.5 14.5t14.5 34.5v702q0 20 -14.5 34.5t-34.5 14.5h-1326q-20 0 -34.5 -14.5t-14.5 -34.5v-702q0 -20 14.5 -34.5t34.5 -14.5h1326zM49 20q-29 0 -29 29v702q0 29 29 29h1326q29 0 29 -29v-702q0 -29 -29 -29h-1326zM163 715h184q94 0 137 -70
q32 -51 32 -129q0 -84 -35 -143q-45 -75 -138 -75h-180v417zM248 370h85q49 0 74 44q20 37 20 96q0 133 -95 133h-84v-273zM858 599q1 -23 30 -23t29 18q0 12 -25 18l-15 3q-23 5 -31 11q-14 9 -14 30q0 43 54 43t54 -45h-28q-2 21 -28 21q-24 0 -24 -17q0 -11 14 -15l34 -8
q37 -9 37 -37q0 -46 -55 -46q-60 0 -60 47h28zM1026 556h-29v114h-42v25h113v-25h-42v-114zM1187 670h-74v-29h68v-24h-68v-36h77v-25h-105v139h102v-25zM1243 556h-29v139h64q43 0 43 -45q0 -19 -12.5 -31.5t-32.5 -12.5h-33v-50zM1270 630q22 0 22 22q0 19 -26 19h-23v-41
h27zM924 242h71q66 0 66 -77q0 -33 -13 -56q-18 -29 -54 -29h-70v162zM957 108h33q37 0 37 54q0 52 -38 52h-32v-106zM1118 80h-34v162h34v-162zM1305 80h-32v135v0l-30 -135h-33l-30 135v0v-135h-32v162h49l30 -128v0l29 128h49v-162z" />
    <glyph glyph-name="E" unicode="E" 
d="M1375 0q20 0 34.5 14.5t14.5 34.5v702q0 20 -14.5 34.5t-34.5 14.5h-1326q-20 0 -34.5 -14.5t-14.5 -34.5v-702q0 -20 14.5 -34.5t34.5 -14.5h1326zM49 20q-29 0 -29 29v702q0 29 29 29h1326q29 0 29 -29v-702q0 -29 -29 -29h-1326zM485 641h-221v-88h203v-73h-203v-108
h231v-74h-316v417h306v-74zM1046 606l-140 59v42l196 -84v-35l-196 -84v42zM1328 626h-196v44h196v-44zM1328 541h-196v44h196v-44zM858 242h82q51 0 51 -46q0 -30 -25 -38q20 -9 20 -40t7 -34v-4h-37q-4 12 -4 33q0 18 -4 24t-22 6h-35v-63h-33v162zM931 171q26 0 26 22
q0 21 -24 21h-42v-43h40zM1140 213h-86v-34h79v-28h-79v-42h90v-29h-123v162h119v-29zM1327 80h-31v135h-1l-30 -135h-33l-30 135v0v-135h-32v162h49l30 -128v0l29 128h49v-162z" />
    <glyph glyph-name="F" unicode="F" 
d="M1375 0q20 0 34.5 14.5t14.5 34.5v702q0 20 -14.5 34.5t-34.5 14.5h-1326q-20 0 -34.5 -14.5t-14.5 -34.5v-702q0 -20 14.5 -34.5t34.5 -14.5h1326zM49 20q-29 0 -29 29v702q0 29 29 29h1326q29 0 29 -29v-702q0 -29 -29 -29h-1326zM282 298h-87v417h297v-74h-210v-94
h184v-74h-184v-175zM1133 556h-29v114h-42v25h113v-25h-42v-114zM1253 699q32 0 49.5 -20.5t17.5 -53.5t-17.5 -53t-49.5 -20q-31 0 -49 20t-18 53t18 53.5t49 20.5zM1253 577q38 0 38 48q0 49 -38 49t-38 -49q0 -48 38 -48zM895 80h-34v162h115v-29h-81v-36h71v-29h-71v-68
zM1070 246q36 0 56.5 -23t20.5 -62q0 -38 -20.5 -61.5t-56.5 -23.5q-37 0 -57.5 23.5t-20.5 61.5q0 39 20.5 62t57.5 23zM1070 104q44 0 44 57t-44 57q-45 0 -45 -57t45 -57zM1175 242h82q51 0 51 -46q0 -30 -26 -38q21 -9 21 -40t7 -34v-4h-37q-4 12 -4 33q0 18 -4.5 24
t-21.5 6h-35v-63h-33v162zM1247 171q27 0 27 22q0 21 -24 21h-42v-43h39z" />
    <glyph glyph-name="G" unicode="G" 
d="M1375 0q20 0 34.5 14.5t14.5 34.5v702q0 20 -14.5 34.5t-34.5 14.5h-1326q-20 0 -34.5 -14.5t-14.5 -34.5v-702q0 -20 14.5 -34.5t34.5 -14.5h1326zM49 20q-29 0 -29 29v702q0 29 29 29h1326q29 0 29 -29v-702q0 -29 -29 -29h-1326zM342 523h174v-225h-58l-8 52
q-55 -63 -131 -63q-80 0 -133 54q-58 60 -58 164q0 93 49 153q55 68 155 68q86 0 137 -49q41 -39 46 -92h-88q0 18 -22 41q-28 28 -69 28q-51 0 -83 -35q-36 -40 -36 -115q0 -143 121 -143q27 0 51 14q39 23 50 77h-97v71zM875 556h-29v114h-42v25h113v-25h-42v-114z
M963 618v-62h-29v139h29v-53h54v53h29v-139h-29v62h-54zM1177 670h-74v-29h68v-24h-68v-36h77v-25h-106v139h103v-25zM1288 695h27v-139h-29l-56 99h-1v-99h-27v139h31l55 -97v0v97zM749 167h67v-87h-22l-4 20q-21 -24 -50 -24q-32 0 -52 21q-23 23 -23 64q0 36 20.5 60.5
t59.5 24.5q33 0 53 -19q16 -15 18 -35h-34q0 7 -10 16.5t-26 9.5q-46 0 -46 -58q0 -56 47 -56q32 0 39 36h-37v27zM919 246q37 0 57.5 -23t20.5 -62q0 -38 -20.5 -61.5t-57.5 -23.5t-57.5 23.5t-20.5 61.5q0 39 20.5 62t57.5 23zM919 104q44 0 44 57t-44 57t-44 -57t44 -57z
M1093 80h-34v133h-49v29h132v-29h-49v-133zM1233 246q37 0 57.5 -23t20.5 -62q0 -38 -20.5 -61.5t-57.5 -23.5t-57.5 23.5t-20.5 61.5q0 39 20.5 62t57.5 23zM1233 104q44 0 44 57t-44 57t-44 -57t44 -57z" />
    <glyph glyph-name="H" unicode="H" 
d="M1375 0q20 0 34.5 14.5t14.5 34.5v702q0 20 -14.5 34.5t-34.5 14.5h-1326q-20 0 -34.5 -14.5t-14.5 -34.5v-702q0 -20 14.5 -34.5t34.5 -14.5h1326zM49 20q-29 0 -29 29v702q0 29 29 29h1326q29 0 29 -29v-702q0 -29 -29 -29h-1326zM247 485v-187h-87v417h87v-158h162
v158h88v-417h-88v187h-162zM585 167h68v-87h-22l-4 20q-21 -24 -50 -24q-32 0 -52 21q-23 23 -23 64q0 36 20.5 60.5t58.5 24.5q34 0 54 -19q16 -15 18 -35h-34q0 7 -10 16.5t-26 9.5q-46 0 -46 -58q0 -56 47 -56q32 0 39 36h-38v27zM756 246q37 0 57.5 -23t20.5 -62
q0 -38 -20.5 -61.5t-57.5 -23.5t-57.5 23.5t-20.5 61.5q0 39 20.5 62t57.5 23zM756 104q44 0 44 57t-44 57t-44 -57t44 -57zM885 130q1 -26 34 -26q34 0 34 21q0 13 -29 20l-18 4q-26 6 -35 13q-16 11 -16 35q0 49 62 49q34 0 50 -18q13 -15 13 -34h-32q-3 24 -33 24
q-28 0 -28 -19q0 -13 17 -17l39 -10q43 -10 43 -43q0 -53 -64 -53q-70 0 -70 54h33zM1141 137q0 -61 -66 -61q-34 0 -52 19q-12 14 -12 40v107h34v-105q0 -33 29 -33q33 0 33 31v107h34v-105zM1175 242h78q50 0 50 -41q0 -24 -20 -34q25 -9 25 -39q0 -20 -14.5 -34
t-50.5 -14h-68v162zM1207 108h42q26 0 26 24q0 19 -25 19h-43v-43zM1207 179h40q24 0 24 18q0 17 -25 17h-39v-35zM1327 618l-56 73h-31l-55 -73h33l22 30v-245h32v244l21 -29h34z" />
    <glyph glyph-name="I" unicode="I" 
d="M1375 0q20 0 34.5 14.5t14.5 34.5v702q0 20 -14.5 34.5t-34.5 14.5h-1326q-20 0 -34.5 -14.5t-14.5 -34.5v-702q0 -20 14.5 -34.5t34.5 -14.5h1326zM49 20q-29 0 -29 29v702q0 29 29 29h1326q29 0 29 -29v-702q0 -29 -29 -29h-1326zM372 298h-87v417h87v-417zM1113 556
h-31l50 139h33l49 -139h-31l-9 29h-51zM1130 609h36l-17 55h-1zM1292 556h-29v114h-42v25h113v-25h-42v-114zM732 80h-34v162h34v-162zM862 242h32v-162h-34l-66 116h-1v-116h-31v162h35l65 -113v0v113zM960 80h-34v162h74q51 0 51 -52q0 -22 -14.5 -37t-37.5 -15h-39v-58z
M991 166q26 0 26 26q0 22 -30 22h-27v-48h31zM1207 137q0 -61 -67 -61q-34 0 -51 19q-13 14 -13 40v107h35v-105q0 -33 28 -33q33 0 33 31v107h35v-105zM1309 80h-34v133h-49v29h132v-29h-49v-133z" />
    <glyph glyph-name="J" unicode="J" 
d="M1375 0q20 0 34.5 14.5t14.5 34.5v702q0 20 -14.5 34.5t-34.5 14.5h-1326q-20 0 -34.5 -14.5t-14.5 -34.5v-702q0 -20 14.5 -34.5t34.5 -14.5h1326zM49 20q-29 0 -29 29v702q0 29 29 29h1326q29 0 29 -29v-702q0 -29 -29 -29h-1326zM448 419q0 -132 -130 -132
q-92 0 -121 54q-18 32 -18 114h82q0 -54 8 -73q10 -24 43 -24q30 0 41 18q8 13 8 43v296h87v-296zM1343 633h-196v35h196v-35zM732 109h80v-29h-114v162h34v-133zM906 246q37 0 57.5 -23t20.5 -62q0 -38 -20.5 -61.5t-57.5 -23.5t-57.5 23.5t-20.5 61.5q0 39 20.5 62
t57.5 23zM906 104q44 0 44 57t-44 57t-44 -57t44 -57zM1034 80h-35l58 162h39l57 -162h-37l-10 33h-60zM1055 141h41l-20 65v0zM1175 242h71q66 0 66 -77q0 -33 -13 -56q-18 -29 -54 -29h-70v162zM1208 108h33q37 0 37 54q0 52 -38 52h-32v-106z" />
    <glyph glyph-name="K" unicode="K" 
d="M1375 0q20 0 34.5 14.5t14.5 34.5v702q0 20 -14.5 34.5t-34.5 14.5h-1326q-20 0 -34.5 -14.5t-14.5 -34.5v-702q0 -20 14.5 -34.5t34.5 -14.5h1326zM49 20q-29 0 -29 29v702q0 29 29 29h1326q29 0 29 -29v-702q0 -29 -29 -29h-1326zM256 298h-87v417h87v-170l159 170h113
l-170 -171l180 -246h-112l-129 183l-41 -42v-141zM1254 708h36v-65h64v-36h-64v-65h-36v65h-65v36h65v65zM882 109h81v-29h-115v162h34v-133zM1017 80h-34v162h34v-162zM1073 130q1 -26 34 -26q34 0 34 21q0 13 -29 20l-17 4q-26 6 -36 13q-16 11 -16 35q0 49 62 49
q34 0 51 -18q12 -15 13 -34h-33q-3 24 -33 24q-28 0 -28 -19q0 -13 17 -17l39 -10q43 -10 43 -43q0 -53 -64 -53q-69 0 -69 54h32zM1269 80h-34v133h-49v29h132v-29h-49v-133z" />
    <glyph glyph-name="L" unicode="L" 
d="M1375 0q20 0 34.5 14.5t14.5 34.5v702q0 20 -14.5 34.5t-34.5 14.5h-1326q-20 0 -34.5 -14.5t-14.5 -34.5v-702q0 -20 14.5 -34.5t34.5 -14.5h1326zM49 20q-29 0 -29 29v702q0 29 29 29h1326q29 0 29 -29v-702q0 -29 -29 -29h-1326zM282 373h207v-75h-294v417h87v-342z
M1351 673h-177v36h177v-36zM1351 601h-177v36h177v-36zM945 109h80v-29h-114v162h34v-133zM1168 213h-86v-34h79v-28h-79v-42h90v-29h-123v162h119v-29zM1269 80h-34v133h-49v29h132v-29h-49v-133z" />
    <glyph glyph-name="M" unicode="M" 
d="M1375 0q20 0 34.5 14.5t14.5 34.5v702q0 20 -14.5 34.5t-34.5 14.5h-1326q-20 0 -34.5 -14.5t-14.5 -34.5v-702q0 -20 14.5 -34.5t34.5 -14.5h1326zM49 20q-29 0 -29 29v702q0 29 29 29h1326q29 0 29 -29v-702q0 -29 -29 -29h-1326zM531 298h-82v348h-1l-78 -348h-85
l-76 348h-1v-348h-82v417h128l75 -329h1l75 329h126v-417zM1300 298h-58v56h58v-56zM587 80h-34v162h74q51 0 51 -52q0 -22 -14.5 -37t-37.5 -15h-39v-58zM618 166q26 0 26 26q0 22 -30 22h-27v-48h31zM727 80h-36l58 162h39l57 -162h-37l-10 33h-60zM747 141h42l-21 65v0z
M997 137q0 -61 -67 -61q-34 0 -51 19q-13 14 -13 40v107h35v-105q0 -33 29 -33q32 0 32 31v107h35v-105zM1054 130q1 -26 35 -26q33 0 33 21q0 13 -29 20l-17 4q-26 6 -36 13q-16 11 -16 35q0 49 62 49q34 0 51 -18q13 -15 13 -34h-33q-3 24 -33 24q-28 0 -28 -19
q0 -13 17 -17l39 -10q43 -10 43 -43q0 -53 -64 -53q-69 0 -69 54h32zM1300 213h-86v-34h79v-28h-79v-42h90v-29h-123v162h119v-29z" />
    <glyph glyph-name="N" unicode="N" 
d="M1375 0q20 0 34.5 14.5t14.5 34.5v702q0 20 -14.5 34.5t-34.5 14.5h-1326q-20 0 -34.5 -14.5t-14.5 -34.5v-702q0 -20 14.5 -34.5t34.5 -14.5h1326zM49 20q-29 0 -29 29v702q0 29 29 29h1326q29 0 29 -29v-702q0 -29 -29 -29h-1326zM417 715h81v-417h-87l-170 297h-1
v-297h-82v417h92l166 -291h1v291zM1330 338q0 -59 -58 -73h-1v21q31 10 33 44h-33v57h59v-49zM841 242h31v-162h-34l-66 116v0v-116h-32v162h36l64 -113h1v113zM1024 213h-86v-34h79v-28h-79v-42h90v-29h-123v162h119v-29zM1186 80h-42l-30 55l-33 -55h-40l53 83l-50 79h41
l29 -52l29 52h39l-49 -78zM1275 80h-34v133h-49v29h132v-29h-49v-133z" />
    <glyph glyph-name="O" unicode="O" 
d="M1375 0q20 0 34.5 14.5t14.5 34.5v702q0 20 -14.5 34.5t-34.5 14.5h-1326q-20 0 -34.5 -14.5t-14.5 -34.5v-702q0 -20 14.5 -34.5t34.5 -14.5h1326zM49 20q-29 0 -29 29v702q0 29 29 29h1326q29 0 29 -29v-702q0 -29 -29 -29h-1326zM328 726q69 0 121 -36q80 -56 80 -184
q0 -127 -80 -183q-52 -36 -121 -36t-121 36q-79 56 -79 183q0 128 79 184q52 36 121 36zM328 361q45 0 74 29q39 38 39 116q0 79 -39 117q-29 29 -74 29q-44 0 -74 -29q-39 -38 -39 -117q0 -78 39 -116q30 -29 74 -29zM1323 523q0 -59 -58 -73v0v20q31 11 33 45h-33v57h58
v-49zM1323 657h-58v56h58v-56zM731 80h-34v162h75q50 0 50 -52q0 -22 -14.5 -37t-37.5 -15h-39v-58zM763 166q25 0 25 26q0 22 -30 22h-27v-48h32zM919 246q37 0 57.5 -23t20.5 -62q0 -38 -20.5 -61.5t-57.5 -23.5t-57.5 23.5t-20.5 61.5q0 39 20.5 62t57.5 23zM919 104
q44 0 44 57t-44 57t-44 -57t44 -57zM1060 80h-34v162h34v-66l62 66h44l-66 -66l70 -96h-44l-50 71l-16 -16v-55zM1306 213h-86v-34h79v-28h-79v-42h90v-29h-123v162h119v-29z" />
    <glyph glyph-name="P" unicode="P" 
d="M1375 0q20 0 34.5 14.5t14.5 34.5v702q0 20 -14.5 34.5t-34.5 14.5h-1326q-20 0 -34.5 -14.5t-14.5 -34.5v-702q0 -20 14.5 -34.5t34.5 -14.5h1326zM49 20q-29 0 -29 29v702q0 29 29 29h1326q29 0 29 -29v-702q0 -29 -29 -29h-1326zM266 298h-87v417h190q60 0 95 -36
t35 -98q0 -44 -25 -80q-35 -53 -108 -53h-100v-150zM346 520q65 0 65 65q0 58 -76 58h-69v-123h80zM1280 689h38v-105h-38v105zM1210 689h38v-105h-38v105zM694 80h-34v162h74q50 0 50 -52q0 -22 -14 -37t-37 -15h-39v-58zM725 166q26 0 26 26q0 22 -30 22h-27v-48h31z
M811 242h82q51 0 51 -46q0 -30 -25 -38q20 -9 20 -40t7 -34v-4h-37q-4 12 -4 33q0 18 -4 24t-22 6h-35v-63h-33v162zM884 171q26 0 26 22q0 21 -24 21h-42v-43h40zM1005 80h-34v162h34v-162zM1135 242h32v-162h-34l-66 116v0v-116h-32v162h36l64 -113v0v113zM1269 80h-34
v133h-49v29h132v-29h-49v-133z" />
    <glyph glyph-name="Q" unicode="Q" 
d="M1375 0q20 0 34.5 14.5t14.5 34.5v702q0 20 -14.5 34.5t-34.5 14.5h-1326q-20 0 -34.5 -14.5t-14.5 -34.5v-702q0 -20 14.5 -34.5t34.5 -14.5h1326zM49 20q-29 0 -29 29v702q0 29 29 29h1326q29 0 29 -29v-702q0 -29 -29 -29h-1326zM484 268l-49 47q-47 -28 -107 -28
q-69 0 -121 36q-79 56 -79 183q0 128 79 184q52 36 121 36t121 -36q80 -56 80 -184q0 -93 -44 -148l45 -43zM378 458l44 -41q19 35 19 89q0 79 -39 117q-29 29 -74 29q-44 0 -74 -29q-39 -38 -39 -117q0 -78 39 -116q30 -29 74 -29q26 0 47 11l-42 39zM1101 520l-197 84v35
l197 83v-41l-141 -60l141 -59v-42zM1326 642h-195v44h195v-44zM1326 557h-195v43h195v-43zM781 80h-34v162h74q50 0 50 -52q0 -22 -14 -37t-38 -15h-38v-58zM812 166q25 0 25 26q0 22 -30 22h-26v-48h31zM931 109h81v-29h-115v162h34v-133zM1106 246q37 0 57.5 -23t20.5 -62
q0 -38 -20.5 -61.5t-57.5 -23.5t-57.5 23.5t-20.5 61.5q0 39 20.5 62t57.5 23zM1106 104q44 0 44 57t-44 57t-44 -57t44 -57zM1280 80h-34v133h-49v29h132v-29h-49v-133z" />
    <glyph glyph-name="R" unicode="R" 
d="M1375 0q20 0 34.5 14.5t14.5 34.5v702q0 20 -14.5 34.5t-34.5 14.5h-1326q-20 0 -34.5 -14.5t-14.5 -34.5v-702q0 -20 14.5 -34.5t34.5 -14.5h1326zM49 20q-29 0 -29 29v702q0 29 29 29h1326q29 0 29 -29v-702q0 -29 -29 -29h-1326zM163 715h210q73 0 108 -46
q24 -31 24 -72q0 -78 -65 -99q30 -13 40 -30q13 -22 13 -76q0 -50 2 -62q4 -16 17 -21v-11h-97q-9 31 -9 84q0 47 -10 61q-13 18 -58 18h-90v-163h-85v417zM350 531q68 0 68 57q0 55 -61 55h-109v-112h102zM1319 519l-197 84v35l197 83v-42l-141 -59l141 -59v-42zM886 242
h82q51 0 51 -46q0 -30 -25 -38q21 -9 21 -40t7 -34v-4h-37q-4 12 -4 33q0 18 -4.5 24t-21.5 6h-35v-63h-34v162zM959 171q27 0 27 22q0 21 -24 21h-42v-43h39zM1179 137q0 -61 -66 -61q-34 0 -52 19q-12 14 -12 40v107h34v-105q0 -33 29 -33q33 0 33 31v107h34v-105z
M1311 242h32v-162h-34l-66 116v0v-116h-32v162h36l64 -113v0v113z" />
    <glyph glyph-name="S" unicode="S" 
d="M1375 0q20 0 34.5 14.5t14.5 34.5v702q0 20 -14.5 34.5t-34.5 14.5h-1326q-20 0 -34.5 -14.5t-14.5 -34.5v-702q0 -20 14.5 -34.5t34.5 -14.5h1326zM49 20q-29 0 -29 29v702q0 29 29 29h1326q29 0 29 -29v-702q0 -29 -29 -29h-1326zM241 426q1 -67 88 -67t87 54
q0 22 -21 34q-15 8 -54 18l-45 10q-67 16 -92 33q-41 28 -41 90q0 48 30 81q41 47 131 47q85 0 129 -48q33 -37 33 -87h-83q-8 63 -86 63q-72 0 -72 -50q0 -33 44 -44l102 -25q51 -12 76 -33q33 -28 33 -79q0 -80 -69 -115q-42 -21 -96 -21q-101 0 -146 50q-32 36 -32 89h84
zM1019 695h27v-139h-29l-56 99h-1v-99h-27v139h31l55 -97v0v97zM1135 699q32 0 49.5 -20.5t17.5 -53.5t-17.5 -53t-49.5 -20t-49.5 20t-17.5 53t17.5 53.5t49.5 20.5zM1135 577q38 0 38 48q0 49 -38 49t-38 -49q0 -48 38 -48zM1284 556h-29v114h-42v25h113v-25h-42v-114z
M747 130q0 -26 34 -26t34 21q0 13 -29 20l-18 4q-26 6 -35 13q-16 11 -16 35q0 49 62 49q33 0 50 -18q13 -15 13 -34h-32q-3 24 -34 24q-28 0 -28 -19q0 -13 17 -17l40 -10q42 -10 42 -43q0 -53 -64 -53q-69 0 -69 54h33zM896 80h-35l57 162h39l58 -162h-37l-11 33h-59z
M917 141h41l-20 65h-1zM1130 242h35l-55 -162h-32l-55 162h37l35 -123v0zM1306 213h-86v-34h79v-28h-79v-42h90v-29h-123v162h119v-29z" />
    <glyph glyph-name="T" unicode="T" 
d="M1375 0q20 0 34.5 14.5t14.5 34.5v702q0 20 -14.5 34.5t-34.5 14.5h-1326q-20 0 -34.5 -14.5t-14.5 -34.5v-702q0 -20 14.5 -34.5t34.5 -14.5h1326zM49 20q-29 0 -29 29v702q0 29 29 29h1326q29 0 29 -29v-702q0 -29 -29 -29h-1326zM372 298h-87v343h-126v74h339v-74
h-126v-343zM1270 609l-141 60v42l197 -84v-35l-197 -84v42zM708 242h82q51 0 51 -46q0 -30 -25 -38q20 -9 20 -40t7 -34v-4h-37q-4 12 -4 33q0 18 -4.5 24t-21.5 6h-35v-63h-33v162zM781 171q26 0 26 22q0 21 -24 21h-42v-43h40zM894 80h-36l58 162h39l57 -162h-37l-10 33
h-60zM914 141h41l-20 65v0zM1133 242h31v-162h-34l-66 116v0v-116h-32v162h36l64 -113h1v113zM1197 242h71q66 0 66 -77q0 -33 -13 -56q-18 -29 -54 -29h-70v162zM1230 108h33q37 0 37 54q0 52 -37 52h-33v-106z" />
    <glyph glyph-name="U" unicode="U" 
d="M1375 0q20 0 34.5 14.5t14.5 34.5v702q0 20 -14.5 34.5t-34.5 14.5h-1326q-20 0 -34.5 -14.5t-14.5 -34.5v-702q0 -20 14.5 -34.5t34.5 -14.5h1326zM49 20q-29 0 -29 29v702q0 29 29 29h1326q29 0 29 -29v-702q0 -29 -29 -29h-1326zM497 444q0 -157 -172 -157
q-87 0 -132 50q-33 37 -33 101v277h89v-271q0 -41 21 -62t53 -21q85 0 85 79v275h89v-271zM1121 699q32 0 49.5 -20.5t17.5 -53.5t-17.5 -53t-49.5 -20q-31 0 -48.5 20t-17.5 53t17.5 53.5t48.5 20.5zM1121 577q38 0 38 48q0 49 -38 49q-37 0 -37 -49q0 -48 37 -48z
M1211 695h71q44 0 44 -39q0 -26 -22 -33q18 -8 18 -34.5t6 -28.5v-4h-32q-3 10 -3 27t-4 22t-19 5h-30v-54h-29v139zM1274 634q23 0 23 19q0 18 -21 18h-36v-37h34zM1176 80h-34v162h34v-162zM1242 80h-34v162h115v-29h-81v-36h71v-29h-71v-68z" />
    <glyph glyph-name="V" unicode="V" 
d="M1375 0q20 0 34.5 14.5t14.5 34.5v702q0 20 -14.5 34.5t-34.5 14.5h-1326q-20 0 -34.5 -14.5t-14.5 -34.5v-702q0 -20 14.5 -34.5t34.5 -14.5h1326zM49 20q-29 0 -29 29v702q0 29 29 29h1326q29 0 29 -29v-702q0 -29 -29 -29h-1326zM420 715h91l-142 -417h-83l-141 417
h94l89 -316h2zM1265 488h-37l71 235h36zM989 189q-8 28 -36 28q-40 0 -40 -57q0 -55 40 -55q30 0 36 31h34q-11 -60 -70 -60q-34 0 -54 22t-20 63t20.5 63t53.5 22t53 -19q16 -16 17 -38h-34zM1083 109h80v-29h-114v162h34v-133zM1211 130q1 -26 34 -26q34 0 34 21
q0 13 -29 20l-17 4q-26 6 -36 13q-16 11 -16 35q0 49 62 49q34 0 51 -18q12 -15 13 -34h-33q-3 24 -33 24q-28 0 -28 -19q0 -13 17 -17l39 -10q43 -10 43 -43q0 -53 -64 -53q-69 0 -69 54h32z" />
    <glyph glyph-name="W" unicode="W" 
d="M1375 0q20 0 34.5 14.5t14.5 34.5v702q0 20 -14.5 34.5t-34.5 14.5h-1326q-20 0 -34.5 -14.5t-14.5 -34.5v-702q0 -20 14.5 -34.5t34.5 -14.5h1326zM49 20q-29 0 -29 29v702q0 29 29 29h1326q29 0 29 -29v-702q0 -29 -29 -29h-1326zM63 715h93q56 -237 66 -305h2
q7 43 58 305h92q50 -236 62 -305h1q12 65 68 305h89l-118 -417h-83q-46 217 -65 325h-1q-11 -66 -64 -325h-82zM1112 514l-197 84v34l197 84v-42l-141 -59l141 -59v-42zM1282 615l-141 59v42l197 -84v-34l-197 -84v42zM650 242h72q65 0 65 -77q0 -33 -13 -56
q-18 -29 -54 -29h-70v162zM683 108h33q37 0 37 54q0 52 -37 52h-33v-106zM813 242h82q51 0 51 -46q0 -30 -25 -38q21 -9 21 -40t7 -34v-4h-38q-3 12 -3 33q0 18 -4.5 24t-22.5 6h-35v-63h-33v162zM886 171q26 0 26 22q0 21 -24 21h-42v-43h40zM999 80h-36l58 162h39l57 -162
h-36l-11 33h-60zM1019 141h42l-20 65h-1zM1126 242h36q21 -92 26 -118v0l23 118h35q20 -91 25 -118v0q5 25 27 118h34l-46 -162h-32q-18 85 -25 126h-1q-4 -25 -25 -126h-32z" />
    <glyph glyph-name="X" unicode="X" 
d="M1375 0q20 0 34.5 14.5t14.5 34.5v702q0 20 -14.5 34.5t-34.5 14.5h-1326q-20 0 -34.5 -14.5t-14.5 -34.5v-702q0 -20 14.5 -34.5t34.5 -14.5h1326zM49 20q-29 0 -29 29v702q0 29 29 29h1326q29 0 29 -29v-702q0 -29 -29 -29h-1326zM514 298h-107l-79 142l-84 -142h-102
l135 213l-127 204h104l74 -135l76 135h101l-127 -201zM1286 604h-39q2 -10 2 -17q0 -27 -34 -54l1 -1q21 9 37 9q12 0 23 -4q15 -5 17 -5q16 0 33 12l14 -35q-24 -15 -50 -15q-15 0 -32 6q-20 7 -31 7q-10 0 -36 -12l-18 32q8 3 20 16q17 17 17 32t-8 29h-30v20h19
q-13 29 -13 46q0 23 17 41q21 23 61 23q77 0 79 -76h-43q-6 39 -37 39q-32 0 -32 -30q0 -8 16 -43h47v-20zM663 189q-8 28 -36 28q-40 0 -40 -57q0 -55 40 -55q30 0 36 31h34q-11 -60 -70 -60q-34 0 -54.5 22t-20.5 63t21 63t54 22t53 -19q15 -16 17 -38h-34zM757 109h80
v-29h-114v162h34v-133zM980 213h-86v-34h79v-28h-79v-42h90v-29h-123v162h119v-29zM1034 80h-35l58 162h39l57 -162h-37l-10 33h-60zM1055 141h41l-20 65v0zM1175 242h82q51 0 51 -46q0 -30 -26 -38q21 -9 21 -40t7 -34v-4h-37q-4 12 -4 33q0 18 -4.5 24t-21.5 6h-35v-63
h-33v162zM1247 171q27 0 27 22q0 21 -24 21h-42v-43h39z" />
    <glyph glyph-name="Y" unicode="Y" 
d="M1375 0q20 0 34.5 14.5t14.5 34.5v702q0 20 -14.5 34.5t-34.5 14.5h-1326q-20 0 -34.5 -14.5t-14.5 -34.5v-702q0 -20 14.5 -34.5t34.5 -14.5h1326zM49 20q-29 0 -29 29v702q0 29 29 29h1326q29 0 29 -29v-702q0 -29 -29 -29h-1326zM374 298h-87v157l-144 260h103
l86 -181l83 181h99l-140 -261v-156zM982 556h-31l50 139h33l49 -139h-31l-9 29h-52zM999 609h36l-18 55v0zM1187 695h27v-139h-29l-57 99h-1v-99h-27v139h31l55 -97h1v97zM1241 695h62q56 0 56 -66q0 -73 -57 -73h-61v139zM1270 580h28q32 0 32 47q0 44 -32 44h-28v-91z
M437 242h82q51 0 51 -46q0 -30 -25 -38q20 -9 20 -40t8 -34v-4h-38q-3 12 -3 33q0 18 -4.5 24t-22.5 6h-35v-63h-33v162zM510 171q26 0 26 22q0 21 -24 21h-42v-43h40zM719 213h-86v-34h79v-28h-79v-42h90v-29h-123v162h119v-29zM820 80h-34v133h-49v29h132v-29h-49v-133z
M1019 137q0 -61 -67 -61q-34 0 -52 19q-12 14 -12 40v107h34v-105q0 -33 29 -33q33 0 33 31v107h35v-105zM1052 242h82q51 0 51 -46q0 -30 -25 -38q20 -9 20 -40t8 -34v-4h-38q-4 12 -4 33q0 18 -4 24t-22 6h-35v-63h-33v162zM1125 171q26 0 26 22q0 21 -24 21h-42v-43h40z
M1314 242h31v-162h-33l-67 116v0v-116h-32v162h36l64 -113h1v113z" />
    <glyph glyph-name="Z" unicode="Z" 
d="M1375 0q20 0 34.5 14.5t14.5 34.5v702q0 20 -14.5 34.5t-34.5 14.5h-1326q-20 0 -34.5 -14.5t-14.5 -34.5v-702q0 -20 14.5 -34.5t34.5 -14.5h1326zM49 20q-29 0 -29 29v702q0 29 29 29h1326q29 0 29 -29v-702q0 -29 -29 -29h-1326zM491 298h-326v74l216 269h-210v74h319
v-69l-218 -274h219v-74zM1315 541h-37v37h37v-37zM1315 633h-37v37h37v-37zM801 189q-8 28 -36 28q-40 0 -40 -57q0 -55 40 -55q30 0 36 31h34q-12 -60 -71 -60q-33 0 -53.5 22t-20.5 63t21 63t54 22t52 -19q16 -16 18 -38h-34zM931 246q37 0 57.5 -23t20.5 -62
q0 -38 -20.5 -61.5t-57.5 -23.5t-57.5 23.5t-20.5 61.5q0 39 20.5 62t57.5 23zM931 104q44 0 44 57t-44 57t-44 -57t44 -57zM1070 80h-34v162h74q51 0 51 -52q0 -22 -14.5 -37t-37.5 -15h-39v-58zM1102 166q25 0 25 26q0 22 -30 22h-27v-48h32zM1263 80h-34v61l-56 101h40
l34 -70l32 70h38l-54 -101v-61z" />
    <glyph glyph-name="a" unicode="a" 
d="M1375 0q20 0 34.5 14.5t14.5 34.5v702q0 20 -14.5 34.5t-34.5 14.5h-1326q-20 0 -34.5 -14.5t-14.5 -34.5v-702q0 -20 14.5 -34.5t34.5 -14.5h1326zM49 20q-29 0 -29 29v702q0 29 29 29h1326q29 0 29 -29v-702q0 -29 -29 -29h-1326zM222 298h-92l149 417h100l147 -417
h-94l-27 86h-154zM274 456h106l-51 165h-1zM853 591q0 -23 29 -23t29 18q0 12 -25 17l-15 4q-22 5 -30 11q-14 9 -14 30q0 43 54 43q53 0 54 -45h-28q-3 21 -29 21q-24 0 -24 -17q0 -11 15 -15l34 -8q36 -9 36 -37q0 -46 -55 -46q-59 0 -59 47h28zM1020 548h-29v114h-42v25
h113v-25h-42v-114zM1140 691q32 0 49.5 -20.5t17.5 -53.5t-17.5 -53t-49.5 -20q-31 0 -49 20t-18 53t18 53.5t49 20.5zM1140 569q38 0 38 48q0 49 -38 49t-38 -49q0 -48 38 -48zM1259 548h-29v139h64q43 0 43 -45q0 -19 -12.5 -31.5t-31.5 -12.5h-34v-50zM1286 622
q22 0 22 22q0 19 -26 19h-23v-41h27zM910 242h31v-162h-34l-66 116v0v-116h-32v162h36l64 -113h1v113zM1093 213h-86v-34h79v-28h-79v-42h90v-29h-123v162h119v-29zM1111 242h36q22 -92 26 -118v0l23 118h36q19 -91 24 -118v0q5 25 27 118h34l-46 -162h-32q-18 85 -25 126
h-1q-4 -25 -25 -126h-31z" />
    <glyph glyph-name="b" unicode="b" 
d="M1375 0q20 0 34.5 14.5t14.5 34.5v702q0 20 -14.5 34.5t-34.5 14.5h-1326q-20 0 -34.5 -14.5t-14.5 -34.5v-702q0 -20 14.5 -34.5t34.5 -14.5h1326zM49 20q-29 0 -29 29v702q0 29 29 29h1326q29 0 29 -29v-702q0 -29 -29 -29h-1326zM163 715h202q69 0 103 -37
q26 -29 26 -70q0 -60 -51 -85q64 -25 64 -101q0 -51 -36 -86q-21 -21 -43 -28q-30 -10 -89 -10h-176v417zM246 370h107q67 0 67 61q0 50 -63 50h-111v-111zM246 552h102q62 0 62 46q0 45 -64 45h-100v-91zM1338 628l-53 -16l34 -48l-31 -23l-35 46l-34 -46l-32 23l34 48
l-52 16l11 37l52 -17v60h43v-60l50 17zM359 242h79q50 0 50 -41q0 -24 -20 -34q25 -9 25 -39q0 -20 -14.5 -34t-50.5 -14h-69v162zM391 108h42q26 0 26 24q0 19 -24 19h-44v-43zM391 179h40q24 0 24 18q0 17 -25 17h-39v-35zM593 246q37 0 57.5 -23t20.5 -62
q0 -38 -20.5 -61.5t-57.5 -23.5t-57.5 23.5t-20.5 61.5q0 39 20.5 62t57.5 23zM593 104q44 0 44 57t-44 57t-44 -57t44 -57zM698 242h82q51 0 51 -46q0 -30 -25 -38q20 -9 20 -40t7 -34v-4h-37q-4 12 -4 33q0 18 -4 24t-22 6h-35v-63h-33v162zM771 171q26 0 26 22
q0 21 -24 21h-42v-43h40zM861 242h71q66 0 66 -77q0 -33 -13 -56q-18 -29 -54 -29h-70v162zM894 108h33q37 0 37 54q0 52 -38 52h-32v-106zM1143 213h-86v-34h79v-28h-79v-42h90v-29h-123v162h119v-29zM1175 242h82q51 0 51 -46q0 -30 -26 -38q21 -9 21 -40t7 -34v-4h-37
q-4 12 -4 33q0 18 -4.5 24t-21.5 6h-35v-63h-33v162zM1247 171q27 0 27 22q0 21 -24 21h-42v-43h39z" />
    <glyph glyph-name="c" unicode="c" 
d="M1375 0q20 0 34.5 14.5t14.5 34.5v702q0 20 -14.5 34.5t-34.5 14.5h-1326q-20 0 -34.5 -14.5t-14.5 -34.5v-702q0 -20 14.5 -34.5t34.5 -14.5h1326zM49 20q-29 0 -29 29v702q0 29 29 29h1326q29 0 29 -29v-702q0 -29 -29 -29h-1326zM429 578q-20 72 -93 72q-40 0 -67 -28
q-36 -38 -36 -117q0 -62 24 -100q27 -43 79 -43q77 0 93 79h87q-14 -71 -58 -111q-48 -43 -123 -43q-86 0 -137 55q-54 59 -54 164t56 165q51 55 136 55t135 -51q41 -41 45 -97h-87zM1248 575q0 26 6 39t27 27.5t21 32.5q0 33 -32 33q-31 0 -35 -38v0h-46q0 39 26 59
q21 17 52 17q28 0 49 -10q35 -18 35 -59q0 -32 -40 -61q-20 -14 -20 -40h-43zM1295 507h-48v47h48v-47zM801 189q-8 28 -36 28q-40 0 -40 -57q0 -55 40 -55q30 0 36 31h34q-11 -60 -70 -60q-34 0 -54 22t-20 63t20.5 63t53.5 22t53 -19q15 -16 17 -38h-34zM932 246
q36 0 56.5 -23t20.5 -62q0 -38 -20.5 -61.5t-56.5 -23.5q-37 0 -57.5 23.5t-20.5 61.5q0 39 20.5 62t57.5 23zM932 104q44 0 44 57t-44 57q-45 0 -45 -57t45 -57zM1135 242h32v-162h-34l-66 116v0v-116h-32v162h36l64 -113v0v113zM1269 80h-34v133h-49v29h132v-29h-49v-133z
" />
    <glyph glyph-name="d" unicode="d" 
d="M1375 0q20 0 34.5 14.5t14.5 34.5v702q0 20 -14.5 34.5t-34.5 14.5h-1326q-20 0 -34.5 -14.5t-14.5 -34.5v-702q0 -20 14.5 -34.5t34.5 -14.5h1326zM49 20q-29 0 -29 29v702q0 29 29 29h1326q29 0 29 -29v-702q0 -29 -29 -29h-1326zM163 715h184q94 0 137 -70
q32 -51 32 -129q0 -84 -35 -143q-45 -75 -138 -75h-180v417zM248 370h85q49 0 74 44q20 37 20 96q0 133 -95 133h-84v-273zM858 599q1 -23 30 -23t29 18q0 12 -25 18l-15 3q-23 5 -31 11q-14 9 -14 30q0 43 54 43t54 -45h-28q-2 21 -28 21q-24 0 -24 -17q0 -11 14 -15l34 -8
q37 -9 37 -37q0 -46 -55 -46q-60 0 -60 47h28zM1026 556h-29v114h-42v25h113v-25h-42v-114zM1187 670h-74v-29h68v-24h-68v-36h77v-25h-105v139h102v-25zM1243 556h-29v139h64q43 0 43 -45q0 -19 -12.5 -31.5t-32.5 -12.5h-33v-50zM1270 630q22 0 22 22q0 19 -26 19h-23v-41
h27zM924 242h71q66 0 66 -77q0 -33 -13 -56q-18 -29 -54 -29h-70v162zM957 108h33q37 0 37 54q0 52 -38 52h-32v-106zM1118 80h-34v162h34v-162zM1305 80h-32v135v0l-30 -135h-33l-30 135v0v-135h-32v162h49l30 -128v0l29 128h49v-162z" />
    <glyph glyph-name="e" unicode="e" 
d="M1375 0q20 0 34.5 14.5t14.5 34.5v702q0 20 -14.5 34.5t-34.5 14.5h-1326q-20 0 -34.5 -14.5t-14.5 -34.5v-702q0 -20 14.5 -34.5t34.5 -14.5h1326zM49 20q-29 0 -29 29v702q0 29 29 29h1326q29 0 29 -29v-702q0 -29 -29 -29h-1326zM485 641h-221v-88h203v-73h-203v-108
h231v-74h-316v417h306v-74zM1046 606l-140 59v42l196 -84v-35l-196 -84v42zM1328 626h-196v44h196v-44zM1328 541h-196v44h196v-44zM858 242h82q51 0 51 -46q0 -30 -25 -38q20 -9 20 -40t7 -34v-4h-37q-4 12 -4 33q0 18 -4 24t-22 6h-35v-63h-33v162zM931 171q26 0 26 22
q0 21 -24 21h-42v-43h40zM1140 213h-86v-34h79v-28h-79v-42h90v-29h-123v162h119v-29zM1327 80h-31v135h-1l-30 -135h-33l-30 135v0v-135h-32v162h49l30 -128v0l29 128h49v-162z" />
    <glyph glyph-name="f" unicode="f" 
d="M1375 0q20 0 34.5 14.5t14.5 34.5v702q0 20 -14.5 34.5t-34.5 14.5h-1326q-20 0 -34.5 -14.5t-14.5 -34.5v-702q0 -20 14.5 -34.5t34.5 -14.5h1326zM49 20q-29 0 -29 29v702q0 29 29 29h1326q29 0 29 -29v-702q0 -29 -29 -29h-1326zM282 298h-87v417h297v-74h-210v-94
h184v-74h-184v-175zM1133 556h-29v114h-42v25h113v-25h-42v-114zM1253 699q32 0 49.5 -20.5t17.5 -53.5t-17.5 -53t-49.5 -20q-31 0 -49 20t-18 53t18 53.5t49 20.5zM1253 577q38 0 38 48q0 49 -38 49t-38 -49q0 -48 38 -48zM895 80h-34v162h115v-29h-81v-36h71v-29h-71v-68
zM1070 246q36 0 56.5 -23t20.5 -62q0 -38 -20.5 -61.5t-56.5 -23.5q-37 0 -57.5 23.5t-20.5 61.5q0 39 20.5 62t57.5 23zM1070 104q44 0 44 57t-44 57q-45 0 -45 -57t45 -57zM1175 242h82q51 0 51 -46q0 -30 -26 -38q21 -9 21 -40t7 -34v-4h-37q-4 12 -4 33q0 18 -4.5 24
t-21.5 6h-35v-63h-33v162zM1247 171q27 0 27 22q0 21 -24 21h-42v-43h39z" />
    <glyph glyph-name="g" unicode="g" 
d="M1375 0q20 0 34.5 14.5t14.5 34.5v702q0 20 -14.5 34.5t-34.5 14.5h-1326q-20 0 -34.5 -14.5t-14.5 -34.5v-702q0 -20 14.5 -34.5t34.5 -14.5h1326zM49 20q-29 0 -29 29v702q0 29 29 29h1326q29 0 29 -29v-702q0 -29 -29 -29h-1326zM342 523h174v-225h-58l-8 52
q-55 -63 -131 -63q-80 0 -133 54q-58 60 -58 164q0 93 49 153q55 68 155 68q86 0 137 -49q41 -39 46 -92h-88q0 18 -22 41q-28 28 -69 28q-51 0 -83 -35q-36 -40 -36 -115q0 -143 121 -143q27 0 51 14q39 23 50 77h-97v71zM875 556h-29v114h-42v25h113v-25h-42v-114z
M963 618v-62h-29v139h29v-53h54v53h29v-139h-29v62h-54zM1177 670h-74v-29h68v-24h-68v-36h77v-25h-106v139h103v-25zM1288 695h27v-139h-29l-56 99h-1v-99h-27v139h31l55 -97v0v97zM749 167h67v-87h-22l-4 20q-21 -24 -50 -24q-32 0 -52 21q-23 23 -23 64q0 36 20.5 60.5
t59.5 24.5q33 0 53 -19q16 -15 18 -35h-34q0 7 -10 16.5t-26 9.5q-46 0 -46 -58q0 -56 47 -56q32 0 39 36h-37v27zM919 246q37 0 57.5 -23t20.5 -62q0 -38 -20.5 -61.5t-57.5 -23.5t-57.5 23.5t-20.5 61.5q0 39 20.5 62t57.5 23zM919 104q44 0 44 57t-44 57t-44 -57t44 -57z
M1093 80h-34v133h-49v29h132v-29h-49v-133zM1233 246q37 0 57.5 -23t20.5 -62q0 -38 -20.5 -61.5t-57.5 -23.5t-57.5 23.5t-20.5 61.5q0 39 20.5 62t57.5 23zM1233 104q44 0 44 57t-44 57t-44 -57t44 -57z" />
    <glyph glyph-name="h" unicode="h" 
d="M1375 0q20 0 34.5 14.5t14.5 34.5v702q0 20 -14.5 34.5t-34.5 14.5h-1326q-20 0 -34.5 -14.5t-14.5 -34.5v-702q0 -20 14.5 -34.5t34.5 -14.5h1326zM49 20q-29 0 -29 29v702q0 29 29 29h1326q29 0 29 -29v-702q0 -29 -29 -29h-1326zM247 485v-187h-87v417h87v-158h162
v158h88v-417h-88v187h-162zM585 167h68v-87h-22l-4 20q-21 -24 -50 -24q-32 0 -52 21q-23 23 -23 64q0 36 20.5 60.5t58.5 24.5q34 0 54 -19q16 -15 18 -35h-34q0 7 -10 16.5t-26 9.5q-46 0 -46 -58q0 -56 47 -56q32 0 39 36h-38v27zM756 246q37 0 57.5 -23t20.5 -62
q0 -38 -20.5 -61.5t-57.5 -23.5t-57.5 23.5t-20.5 61.5q0 39 20.5 62t57.5 23zM756 104q44 0 44 57t-44 57t-44 -57t44 -57zM885 130q1 -26 34 -26q34 0 34 21q0 13 -29 20l-18 4q-26 6 -35 13q-16 11 -16 35q0 49 62 49q34 0 50 -18q13 -15 13 -34h-32q-3 24 -33 24
q-28 0 -28 -19q0 -13 17 -17l39 -10q43 -10 43 -43q0 -53 -64 -53q-70 0 -70 54h33zM1141 137q0 -61 -66 -61q-34 0 -52 19q-12 14 -12 40v107h34v-105q0 -33 29 -33q33 0 33 31v107h34v-105zM1175 242h78q50 0 50 -41q0 -24 -20 -34q25 -9 25 -39q0 -20 -14.5 -34
t-50.5 -14h-68v162zM1207 108h42q26 0 26 24q0 19 -25 19h-43v-43zM1207 179h40q24 0 24 18q0 17 -25 17h-39v-35zM1327 618l-56 73h-31l-55 -73h33l22 30v-245h32v244l21 -29h34z" />
    <glyph glyph-name="i" unicode="i" 
d="M1375 0q20 0 34.5 14.5t14.5 34.5v702q0 20 -14.5 34.5t-34.5 14.5h-1326q-20 0 -34.5 -14.5t-14.5 -34.5v-702q0 -20 14.5 -34.5t34.5 -14.5h1326zM49 20q-29 0 -29 29v702q0 29 29 29h1326q29 0 29 -29v-702q0 -29 -29 -29h-1326zM372 298h-87v417h87v-417zM1113 556
h-31l50 139h33l49 -139h-31l-9 29h-51zM1130 609h36l-17 55h-1zM1292 556h-29v114h-42v25h113v-25h-42v-114zM732 80h-34v162h34v-162zM862 242h32v-162h-34l-66 116h-1v-116h-31v162h35l65 -113v0v113zM960 80h-34v162h74q51 0 51 -52q0 -22 -14.5 -37t-37.5 -15h-39v-58z
M991 166q26 0 26 26q0 22 -30 22h-27v-48h31zM1207 137q0 -61 -67 -61q-34 0 -51 19q-13 14 -13 40v107h35v-105q0 -33 28 -33q33 0 33 31v107h35v-105zM1309 80h-34v133h-49v29h132v-29h-49v-133z" />
    <glyph glyph-name="j" unicode="j" 
d="M1375 0q20 0 34.5 14.5t14.5 34.5v702q0 20 -14.5 34.5t-34.5 14.5h-1326q-20 0 -34.5 -14.5t-14.5 -34.5v-702q0 -20 14.5 -34.5t34.5 -14.5h1326zM49 20q-29 0 -29 29v702q0 29 29 29h1326q29 0 29 -29v-702q0 -29 -29 -29h-1326zM448 419q0 -132 -130 -132
q-92 0 -121 54q-18 32 -18 114h82q0 -54 8 -73q10 -24 43 -24q30 0 41 18q8 13 8 43v296h87v-296zM1343 633h-196v35h196v-35zM732 109h80v-29h-114v162h34v-133zM906 246q37 0 57.5 -23t20.5 -62q0 -38 -20.5 -61.5t-57.5 -23.5t-57.5 23.5t-20.5 61.5q0 39 20.5 62
t57.5 23zM906 104q44 0 44 57t-44 57t-44 -57t44 -57zM1034 80h-35l58 162h39l57 -162h-37l-10 33h-60zM1055 141h41l-20 65v0zM1175 242h71q66 0 66 -77q0 -33 -13 -56q-18 -29 -54 -29h-70v162zM1208 108h33q37 0 37 54q0 52 -38 52h-32v-106z" />
    <glyph glyph-name="k" unicode="k" 
d="M1375 0q20 0 34.5 14.5t14.5 34.5v702q0 20 -14.5 34.5t-34.5 14.5h-1326q-20 0 -34.5 -14.5t-14.5 -34.5v-702q0 -20 14.5 -34.5t34.5 -14.5h1326zM49 20q-29 0 -29 29v702q0 29 29 29h1326q29 0 29 -29v-702q0 -29 -29 -29h-1326zM256 298h-87v417h87v-170l159 170h113
l-170 -171l180 -246h-112l-129 183l-41 -42v-141zM1254 708h36v-65h64v-36h-64v-65h-36v65h-65v36h65v65zM882 109h81v-29h-115v162h34v-133zM1017 80h-34v162h34v-162zM1073 130q1 -26 34 -26q34 0 34 21q0 13 -29 20l-17 4q-26 6 -36 13q-16 11 -16 35q0 49 62 49
q34 0 51 -18q12 -15 13 -34h-33q-3 24 -33 24q-28 0 -28 -19q0 -13 17 -17l39 -10q43 -10 43 -43q0 -53 -64 -53q-69 0 -69 54h32zM1269 80h-34v133h-49v29h132v-29h-49v-133z" />
    <glyph glyph-name="l" unicode="l" 
d="M1375 0q20 0 34.5 14.5t14.5 34.5v702q0 20 -14.5 34.5t-34.5 14.5h-1326q-20 0 -34.5 -14.5t-14.5 -34.5v-702q0 -20 14.5 -34.5t34.5 -14.5h1326zM49 20q-29 0 -29 29v702q0 29 29 29h1326q29 0 29 -29v-702q0 -29 -29 -29h-1326zM282 373h207v-75h-294v417h87v-342z
M1351 673h-177v36h177v-36zM1351 601h-177v36h177v-36zM945 109h80v-29h-114v162h34v-133zM1168 213h-86v-34h79v-28h-79v-42h90v-29h-123v162h119v-29zM1269 80h-34v133h-49v29h132v-29h-49v-133z" />
    <glyph glyph-name="m" unicode="m" 
d="M1375 0q20 0 34.5 14.5t14.5 34.5v702q0 20 -14.5 34.5t-34.5 14.5h-1326q-20 0 -34.5 -14.5t-14.5 -34.5v-702q0 -20 14.5 -34.5t34.5 -14.5h1326zM49 20q-29 0 -29 29v702q0 29 29 29h1326q29 0 29 -29v-702q0 -29 -29 -29h-1326zM531 298h-82v348h-1l-78 -348h-85
l-76 348h-1v-348h-82v417h128l75 -329h1l75 329h126v-417zM1300 298h-58v56h58v-56zM587 80h-34v162h74q51 0 51 -52q0 -22 -14.5 -37t-37.5 -15h-39v-58zM618 166q26 0 26 26q0 22 -30 22h-27v-48h31zM727 80h-36l58 162h39l57 -162h-37l-10 33h-60zM747 141h42l-21 65v0z
M997 137q0 -61 -67 -61q-34 0 -51 19q-13 14 -13 40v107h35v-105q0 -33 29 -33q32 0 32 31v107h35v-105zM1054 130q1 -26 35 -26q33 0 33 21q0 13 -29 20l-17 4q-26 6 -36 13q-16 11 -16 35q0 49 62 49q34 0 51 -18q13 -15 13 -34h-33q-3 24 -33 24q-28 0 -28 -19
q0 -13 17 -17l39 -10q43 -10 43 -43q0 -53 -64 -53q-69 0 -69 54h32zM1300 213h-86v-34h79v-28h-79v-42h90v-29h-123v162h119v-29z" />
    <glyph glyph-name="n" unicode="n" 
d="M1375 0q20 0 34.5 14.5t14.5 34.5v702q0 20 -14.5 34.5t-34.5 14.5h-1326q-20 0 -34.5 -14.5t-14.5 -34.5v-702q0 -20 14.5 -34.5t34.5 -14.5h1326zM49 20q-29 0 -29 29v702q0 29 29 29h1326q29 0 29 -29v-702q0 -29 -29 -29h-1326zM417 715h81v-417h-87l-170 297h-1
v-297h-82v417h92l166 -291h1v291zM1330 338q0 -59 -58 -73h-1v21q31 10 33 44h-33v57h59v-49zM841 242h31v-162h-34l-66 116v0v-116h-32v162h36l64 -113h1v113zM1024 213h-86v-34h79v-28h-79v-42h90v-29h-123v162h119v-29zM1186 80h-42l-30 55l-33 -55h-40l53 83l-50 79h41
l29 -52l29 52h39l-49 -78zM1275 80h-34v133h-49v29h132v-29h-49v-133z" />
    <glyph glyph-name="o" unicode="o" 
d="M1375 0q20 0 34.5 14.5t14.5 34.5v702q0 20 -14.5 34.5t-34.5 14.5h-1326q-20 0 -34.5 -14.5t-14.5 -34.5v-702q0 -20 14.5 -34.5t34.5 -14.5h1326zM49 20q-29 0 -29 29v702q0 29 29 29h1326q29 0 29 -29v-702q0 -29 -29 -29h-1326zM328 726q69 0 121 -36q80 -56 80 -184
q0 -127 -80 -183q-52 -36 -121 -36t-121 36q-79 56 -79 183q0 128 79 184q52 36 121 36zM328 361q45 0 74 29q39 38 39 116q0 79 -39 117q-29 29 -74 29q-44 0 -74 -29q-39 -38 -39 -117q0 -78 39 -116q30 -29 74 -29zM1323 523q0 -59 -58 -73v0v20q31 11 33 45h-33v57h58
v-49zM1323 657h-58v56h58v-56zM731 80h-34v162h75q50 0 50 -52q0 -22 -14.5 -37t-37.5 -15h-39v-58zM763 166q25 0 25 26q0 22 -30 22h-27v-48h32zM919 246q37 0 57.5 -23t20.5 -62q0 -38 -20.5 -61.5t-57.5 -23.5t-57.5 23.5t-20.5 61.5q0 39 20.5 62t57.5 23zM919 104
q44 0 44 57t-44 57t-44 -57t44 -57zM1060 80h-34v162h34v-66l62 66h44l-66 -66l70 -96h-44l-50 71l-16 -16v-55zM1306 213h-86v-34h79v-28h-79v-42h90v-29h-123v162h119v-29z" />
    <glyph glyph-name="p" unicode="p" 
d="M1375 0q20 0 34.5 14.5t14.5 34.5v702q0 20 -14.5 34.5t-34.5 14.5h-1326q-20 0 -34.5 -14.5t-14.5 -34.5v-702q0 -20 14.5 -34.5t34.5 -14.5h1326zM49 20q-29 0 -29 29v702q0 29 29 29h1326q29 0 29 -29v-702q0 -29 -29 -29h-1326zM266 298h-87v417h190q60 0 95 -36
t35 -98q0 -44 -25 -80q-35 -53 -108 -53h-100v-150zM346 520q65 0 65 65q0 58 -76 58h-69v-123h80zM1280 689h38v-105h-38v105zM1210 689h38v-105h-38v105zM694 80h-34v162h74q50 0 50 -52q0 -22 -14 -37t-37 -15h-39v-58zM725 166q26 0 26 26q0 22 -30 22h-27v-48h31z
M811 242h82q51 0 51 -46q0 -30 -25 -38q20 -9 20 -40t7 -34v-4h-37q-4 12 -4 33q0 18 -4 24t-22 6h-35v-63h-33v162zM884 171q26 0 26 22q0 21 -24 21h-42v-43h40zM1005 80h-34v162h34v-162zM1135 242h32v-162h-34l-66 116v0v-116h-32v162h36l64 -113v0v113zM1269 80h-34
v133h-49v29h132v-29h-49v-133z" />
    <glyph glyph-name="q" unicode="q" 
d="M1375 0q20 0 34.5 14.5t14.5 34.5v702q0 20 -14.5 34.5t-34.5 14.5h-1326q-20 0 -34.5 -14.5t-14.5 -34.5v-702q0 -20 14.5 -34.5t34.5 -14.5h1326zM49 20q-29 0 -29 29v702q0 29 29 29h1326q29 0 29 -29v-702q0 -29 -29 -29h-1326zM484 268l-49 47q-47 -28 -107 -28
q-69 0 -121 36q-79 56 -79 183q0 128 79 184q52 36 121 36t121 -36q80 -56 80 -184q0 -93 -44 -148l45 -43zM378 458l44 -41q19 35 19 89q0 79 -39 117q-29 29 -74 29q-44 0 -74 -29q-39 -38 -39 -117q0 -78 39 -116q30 -29 74 -29q26 0 47 11l-42 39zM1101 520l-197 84v35
l197 83v-41l-141 -60l141 -59v-42zM1326 642h-195v44h195v-44zM1326 557h-195v43h195v-43zM781 80h-34v162h74q50 0 50 -52q0 -22 -14 -37t-38 -15h-38v-58zM812 166q25 0 25 26q0 22 -30 22h-26v-48h31zM931 109h81v-29h-115v162h34v-133zM1106 246q37 0 57.5 -23t20.5 -62
q0 -38 -20.5 -61.5t-57.5 -23.5t-57.5 23.5t-20.5 61.5q0 39 20.5 62t57.5 23zM1106 104q44 0 44 57t-44 57t-44 -57t44 -57zM1280 80h-34v133h-49v29h132v-29h-49v-133z" />
    <glyph glyph-name="r" unicode="r" 
d="M1375 0q20 0 34.5 14.5t14.5 34.5v702q0 20 -14.5 34.5t-34.5 14.5h-1326q-20 0 -34.5 -14.5t-14.5 -34.5v-702q0 -20 14.5 -34.5t34.5 -14.5h1326zM49 20q-29 0 -29 29v702q0 29 29 29h1326q29 0 29 -29v-702q0 -29 -29 -29h-1326zM163 715h210q73 0 108 -46
q24 -31 24 -72q0 -78 -65 -99q30 -13 40 -30q13 -22 13 -76q0 -50 2 -62q4 -16 17 -21v-11h-97q-9 31 -9 84q0 47 -10 61q-13 18 -58 18h-90v-163h-85v417zM350 531q68 0 68 57q0 55 -61 55h-109v-112h102zM1319 519l-197 84v35l197 83v-42l-141 -59l141 -59v-42zM886 242
h82q51 0 51 -46q0 -30 -25 -38q21 -9 21 -40t7 -34v-4h-37q-4 12 -4 33q0 18 -4.5 24t-21.5 6h-35v-63h-34v162zM959 171q27 0 27 22q0 21 -24 21h-42v-43h39zM1179 137q0 -61 -66 -61q-34 0 -52 19q-12 14 -12 40v107h34v-105q0 -33 29 -33q33 0 33 31v107h34v-105z
M1311 242h32v-162h-34l-66 116v0v-116h-32v162h36l64 -113v0v113z" />
    <glyph glyph-name="s" unicode="s" 
d="M1375 0q20 0 34.5 14.5t14.5 34.5v702q0 20 -14.5 34.5t-34.5 14.5h-1326q-20 0 -34.5 -14.5t-14.5 -34.5v-702q0 -20 14.5 -34.5t34.5 -14.5h1326zM49 20q-29 0 -29 29v702q0 29 29 29h1326q29 0 29 -29v-702q0 -29 -29 -29h-1326zM241 426q1 -67 88 -67t87 54
q0 22 -21 34q-15 8 -54 18l-45 10q-67 16 -92 33q-41 28 -41 90q0 48 30 81q41 47 131 47q85 0 129 -48q33 -37 33 -87h-83q-8 63 -86 63q-72 0 -72 -50q0 -33 44 -44l102 -25q51 -12 76 -33q33 -28 33 -79q0 -80 -69 -115q-42 -21 -96 -21q-101 0 -146 50q-32 36 -32 89h84
zM1019 695h27v-139h-29l-56 99h-1v-99h-27v139h31l55 -97v0v97zM1135 699q32 0 49.5 -20.5t17.5 -53.5t-17.5 -53t-49.5 -20t-49.5 20t-17.5 53t17.5 53.5t49.5 20.5zM1135 577q38 0 38 48q0 49 -38 49t-38 -49q0 -48 38 -48zM1284 556h-29v114h-42v25h113v-25h-42v-114z
M747 130q0 -26 34 -26t34 21q0 13 -29 20l-18 4q-26 6 -35 13q-16 11 -16 35q0 49 62 49q33 0 50 -18q13 -15 13 -34h-32q-3 24 -34 24q-28 0 -28 -19q0 -13 17 -17l40 -10q42 -10 42 -43q0 -53 -64 -53q-69 0 -69 54h33zM896 80h-35l57 162h39l58 -162h-37l-11 33h-59z
M917 141h41l-20 65h-1zM1130 242h35l-55 -162h-32l-55 162h37l35 -123v0zM1306 213h-86v-34h79v-28h-79v-42h90v-29h-123v162h119v-29z" />
    <glyph glyph-name="t" unicode="t" 
d="M1375 0q20 0 34.5 14.5t14.5 34.5v702q0 20 -14.5 34.5t-34.5 14.5h-1326q-20 0 -34.5 -14.5t-14.5 -34.5v-702q0 -20 14.5 -34.5t34.5 -14.5h1326zM49 20q-29 0 -29 29v702q0 29 29 29h1326q29 0 29 -29v-702q0 -29 -29 -29h-1326zM372 298h-87v343h-126v74h339v-74
h-126v-343zM1270 609l-141 60v42l197 -84v-35l-197 -84v42zM708 242h82q51 0 51 -46q0 -30 -25 -38q20 -9 20 -40t7 -34v-4h-37q-4 12 -4 33q0 18 -4.5 24t-21.5 6h-35v-63h-33v162zM781 171q26 0 26 22q0 21 -24 21h-42v-43h40zM894 80h-36l58 162h39l57 -162h-37l-10 33
h-60zM914 141h41l-20 65v0zM1133 242h31v-162h-34l-66 116v0v-116h-32v162h36l64 -113h1v113zM1197 242h71q66 0 66 -77q0 -33 -13 -56q-18 -29 -54 -29h-70v162zM1230 108h33q37 0 37 54q0 52 -37 52h-33v-106z" />
    <glyph glyph-name="u" unicode="u" 
d="M1375 0q20 0 34.5 14.5t14.5 34.5v702q0 20 -14.5 34.5t-34.5 14.5h-1326q-20 0 -34.5 -14.5t-14.5 -34.5v-702q0 -20 14.5 -34.5t34.5 -14.5h1326zM49 20q-29 0 -29 29v702q0 29 29 29h1326q29 0 29 -29v-702q0 -29 -29 -29h-1326zM497 444q0 -157 -172 -157
q-87 0 -132 50q-33 37 -33 101v277h89v-271q0 -41 21 -62t53 -21q85 0 85 79v275h89v-271zM1121 699q32 0 49.5 -20.5t17.5 -53.5t-17.5 -53t-49.5 -20q-31 0 -48.5 20t-17.5 53t17.5 53.5t48.5 20.5zM1121 577q38 0 38 48q0 49 -38 49q-37 0 -37 -49q0 -48 37 -48z
M1211 695h71q44 0 44 -39q0 -26 -22 -33q18 -8 18 -34.5t6 -28.5v-4h-32q-3 10 -3 27t-4 22t-19 5h-30v-54h-29v139zM1274 634q23 0 23 19q0 18 -21 18h-36v-37h34zM1176 80h-34v162h34v-162zM1242 80h-34v162h115v-29h-81v-36h71v-29h-71v-68z" />
    <glyph glyph-name="v" unicode="v" 
d="M1375 0q20 0 34.5 14.5t14.5 34.5v702q0 20 -14.5 34.5t-34.5 14.5h-1326q-20 0 -34.5 -14.5t-14.5 -34.5v-702q0 -20 14.5 -34.5t34.5 -14.5h1326zM49 20q-29 0 -29 29v702q0 29 29 29h1326q29 0 29 -29v-702q0 -29 -29 -29h-1326zM420 715h91l-142 -417h-83l-141 417
h94l89 -316h2zM1265 488h-37l71 235h36zM989 189q-8 28 -36 28q-40 0 -40 -57q0 -55 40 -55q30 0 36 31h34q-11 -60 -70 -60q-34 0 -54 22t-20 63t20.5 63t53.5 22t53 -19q16 -16 17 -38h-34zM1083 109h80v-29h-114v162h34v-133zM1211 130q1 -26 34 -26q34 0 34 21
q0 13 -29 20l-17 4q-26 6 -36 13q-16 11 -16 35q0 49 62 49q34 0 51 -18q12 -15 13 -34h-33q-3 24 -33 24q-28 0 -28 -19q0 -13 17 -17l39 -10q43 -10 43 -43q0 -53 -64 -53q-69 0 -69 54h32z" />
    <glyph glyph-name="w" unicode="w" 
d="M1375 0q20 0 34.5 14.5t14.5 34.5v702q0 20 -14.5 34.5t-34.5 14.5h-1326q-20 0 -34.5 -14.5t-14.5 -34.5v-702q0 -20 14.5 -34.5t34.5 -14.5h1326zM49 20q-29 0 -29 29v702q0 29 29 29h1326q29 0 29 -29v-702q0 -29 -29 -29h-1326zM63 715h93q56 -237 66 -305h2
q7 43 58 305h92q50 -236 62 -305h1q12 65 68 305h89l-118 -417h-83q-46 217 -65 325h-1q-11 -66 -64 -325h-82zM1112 514l-197 84v34l197 84v-42l-141 -59l141 -59v-42zM1282 615l-141 59v42l197 -84v-34l-197 -84v42zM650 242h72q65 0 65 -77q0 -33 -13 -56
q-18 -29 -54 -29h-70v162zM683 108h33q37 0 37 54q0 52 -37 52h-33v-106zM813 242h82q51 0 51 -46q0 -30 -25 -38q21 -9 21 -40t7 -34v-4h-38q-3 12 -3 33q0 18 -4.5 24t-22.5 6h-35v-63h-33v162zM886 171q26 0 26 22q0 21 -24 21h-42v-43h40zM999 80h-36l58 162h39l57 -162
h-36l-11 33h-60zM1019 141h42l-20 65h-1zM1126 242h36q21 -92 26 -118v0l23 118h35q20 -91 25 -118v0q5 25 27 118h34l-46 -162h-32q-18 85 -25 126h-1q-4 -25 -25 -126h-32z" />
    <glyph glyph-name="x" unicode="x" 
d="M1375 0q20 0 34.5 14.5t14.5 34.5v702q0 20 -14.5 34.5t-34.5 14.5h-1326q-20 0 -34.5 -14.5t-14.5 -34.5v-702q0 -20 14.5 -34.5t34.5 -14.5h1326zM49 20q-29 0 -29 29v702q0 29 29 29h1326q29 0 29 -29v-702q0 -29 -29 -29h-1326zM514 298h-107l-79 142l-84 -142h-102
l135 213l-127 204h104l74 -135l76 135h101l-127 -201zM1286 604h-39q2 -10 2 -17q0 -27 -34 -54l1 -1q21 9 37 9q12 0 23 -4q15 -5 17 -5q16 0 33 12l14 -35q-24 -15 -50 -15q-15 0 -32 6q-20 7 -31 7q-10 0 -36 -12l-18 32q8 3 20 16q17 17 17 32t-8 29h-30v20h19
q-13 29 -13 46q0 23 17 41q21 23 61 23q77 0 79 -76h-43q-6 39 -37 39q-32 0 -32 -30q0 -8 16 -43h47v-20zM663 189q-8 28 -36 28q-40 0 -40 -57q0 -55 40 -55q30 0 36 31h34q-11 -60 -70 -60q-34 0 -54.5 22t-20.5 63t21 63t54 22t53 -19q15 -16 17 -38h-34zM757 109h80
v-29h-114v162h34v-133zM980 213h-86v-34h79v-28h-79v-42h90v-29h-123v162h119v-29zM1034 80h-35l58 162h39l57 -162h-37l-10 33h-60zM1055 141h41l-20 65v0zM1175 242h82q51 0 51 -46q0 -30 -26 -38q21 -9 21 -40t7 -34v-4h-37q-4 12 -4 33q0 18 -4.5 24t-21.5 6h-35v-63
h-33v162zM1247 171q27 0 27 22q0 21 -24 21h-42v-43h39z" />
    <glyph glyph-name="y" unicode="y" 
d="M1375 0q20 0 34.5 14.5t14.5 34.5v702q0 20 -14.5 34.5t-34.5 14.5h-1326q-20 0 -34.5 -14.5t-14.5 -34.5v-702q0 -20 14.5 -34.5t34.5 -14.5h1326zM49 20q-29 0 -29 29v702q0 29 29 29h1326q29 0 29 -29v-702q0 -29 -29 -29h-1326zM374 298h-87v157l-144 260h103
l86 -181l83 181h99l-140 -261v-156zM982 556h-31l50 139h33l49 -139h-31l-9 29h-52zM999 609h36l-18 55v0zM1187 695h27v-139h-29l-57 99h-1v-99h-27v139h31l55 -97h1v97zM1241 695h62q56 0 56 -66q0 -73 -57 -73h-61v139zM1270 580h28q32 0 32 47q0 44 -32 44h-28v-91z
M437 242h82q51 0 51 -46q0 -30 -25 -38q20 -9 20 -40t8 -34v-4h-38q-3 12 -3 33q0 18 -4.5 24t-22.5 6h-35v-63h-33v162zM510 171q26 0 26 22q0 21 -24 21h-42v-43h40zM719 213h-86v-34h79v-28h-79v-42h90v-29h-123v162h119v-29zM820 80h-34v133h-49v29h132v-29h-49v-133z
M1019 137q0 -61 -67 -61q-34 0 -52 19q-12 14 -12 40v107h34v-105q0 -33 29 -33q33 0 33 31v107h35v-105zM1052 242h82q51 0 51 -46q0 -30 -25 -38q20 -9 20 -40t8 -34v-4h-38q-4 12 -4 33q0 18 -4 24t-22 6h-35v-63h-33v162zM1125 171q26 0 26 22q0 21 -24 21h-42v-43h40z
M1314 242h31v-162h-33l-67 116v0v-116h-32v162h36l64 -113h1v113z" />
    <glyph glyph-name="z" unicode="z" 
d="M1375 0q20 0 34.5 14.5t14.5 34.5v702q0 20 -14.5 34.5t-34.5 14.5h-1326q-20 0 -34.5 -14.5t-14.5 -34.5v-702q0 -20 14.5 -34.5t34.5 -14.5h1326zM49 20q-29 0 -29 29v702q0 29 29 29h1326q29 0 29 -29v-702q0 -29 -29 -29h-1326zM491 298h-326v74l216 269h-210v74h319
v-69l-218 -274h219v-74zM1315 541h-37v37h37v-37zM1315 633h-37v37h37v-37zM801 189q-8 28 -36 28q-40 0 -40 -57q0 -55 40 -55q30 0 36 31h34q-12 -60 -71 -60q-33 0 -53.5 22t-20.5 63t21 63t54 22t52 -19q16 -16 18 -38h-34zM931 246q37 0 57.5 -23t20.5 -62
q0 -38 -20.5 -61.5t-57.5 -23.5t-57.5 23.5t-20.5 61.5q0 39 20.5 62t57.5 23zM931 104q44 0 44 57t-44 57t-44 -57t44 -57zM1070 80h-34v162h74q51 0 51 -52q0 -22 -14.5 -37t-37.5 -15h-39v-58zM1102 166q25 0 25 26q0 22 -30 22h-27v-48h32zM1263 80h-34v61l-56 101h40
l34 -70l32 70h38l-54 -101v-61z" />
    <glyph glyph-name="copyright" unicode="&#xa9;" 
d="M1375 0q20 0 34.5 14.5t14.5 34.5v702q0 20 -14.5 34.5t-34.5 14.5h-1326q-20 0 -34.5 -14.5t-14.5 -34.5v-702q0 -20 14.5 -34.5t34.5 -14.5h1326zM49 20q-29 0 -29 29v702q0 29 29 29h1326q29 0 29 -29v-702q0 -29 -29 -29h-1326zM348 459q-31 0 -53.5 20.5t-22.5 55.5
q0 34 22.5 54.5t53.5 20.5t53.5 -20.5t22.5 -54.5q0 -35 -22.5 -55.5t-53.5 -20.5zM348 593q-23 0 -38.5 -16.5t-15.5 -41.5q0 -26 15.5 -42t38.5 -16v-1q23 0 38.5 16.5t15.5 42.5q0 25 -15.5 41.5t-38.5 16.5zM387 523q-5 -31 -36 -31q-19 0 -30.5 12.5t-11.5 30.5
q0 44 42 44q30 0 35 -31h-17q-3 13 -18 13q-21 0 -21 -25q0 -27 21 -27q17 0 18 14h18zM534 471q-2 -8 -13 -8h-15q-5 0 -7 1.5t-5 5.5l-7 12q-1 2 -2 4.5t-1 6.5v117q0 10 10 10t10 -10v-117l6 -10h8l6 10v63q0 12 10 12t10 -12v-63l5 -10h9l5 10v117q0 10 10 10t10 -10
v-117v-5l-3 -6l-7 -12q-4 -7 -12 -7h-15q-11 0 -12 8zM645 550l-29 -18v-56q0 -13 -9 -13q-10 0 -10 13v122q0 14 10 14q9 0 9 -14v-43l16 10q10 7 17 7h13q21 0 26 -19q1 -3 1 -15l2 -61q1 -14 -9 -14q-9 0 -10 13l-2 60q0 16 -10 16h-9q-3 0 -6 -2zM745 572h15
q14 0 26.5 -10.5t12.5 -25.5v-37q0 -15 -12.5 -25.5t-26.5 -10.5h-15q-14 0 -27 10.5t-13 25.5v37q0 14 13 25t27 11zM745 482h15q4 0 7 1q13 6 13 16v37q0 10 -13 15q-3 1 -7 1h-15q-4 0 -7 -1q-13 -6 -13 -15v-37q0 -17 20 -17zM861 620q8 0 11 -10l38 -137q0 -10 -9 -10
q-8 0 -11 10l-7 24h-43l-8 -24q-3 -10 -10 -10q-10 0 -10 10l39 137q3 10 10 10zM846 517h31l-15 55zM980 476q0 -13 -9 -13q-10 0 -10 13v65q0 5 -1 7t-4 2q-1 0 -2 -1t-3 -2l-8 -8v-63q0 -13 -10 -13q-9 0 -9 13v82q0 14 10 14q7 0 9 -8l1 1q4 3 5 4q5 3 10 3q11 0 18 -10
l1 2q8 8 17 8q16 0 20 -16q0 -3 1 -12l2 -67q0 -14 -10 -14q-9 0 -9 13l-2 67q0 7 -5 7q-2 0 -3.5 -1.5l-4.5 -4.5l-4 -5v-63zM1119 483q10 0 10 -10t-10 -10h-79q-10 0 -10 10t10 10h29v117h-29q-10 0 -10 10t10 10h79q10 0 10 -10t-10 -10h-30v-117h30zM112 358
q-12 0 -12 10t12 10h33q20 0 30 -20l18 -35q6 -13 6 -24q0 -10 -6 -22l-18 -37q-10 -19 -32 -19h-33q-10 0 -10 10t10 10h10v117h-8zM143 241q10 0 14 9l18 36q4 8 4 13q0 6 -5 17l-17 34q-4 8 -15 8h-2v-117h3zM245 221q-9 0 -15 5l-8 8q-10 9 -10 22v37q0 15 10 23l6 6
q10 8 22 8h17q13 0 21 -7l8 -6q10 -8 10 -26v-15q0 -14 -13 -14h-62v-7q0 -1 1 -2.5t2 -3.5l5 -5q3 -3 13 -3h41q13 0 13 -10t-13 -10h-48zM287 281v12v5t-2 4l-8 6q-2 2 -4 2.5t-5 0.5h-16q-3 0 -5.5 -0.5t-4.5 -2.5l-7 -4q-4 -3 -4 -9v-14h56zM342 305q0 -2 1.5 -3t3.5 -2
l48 -22q19 -9 19 -28q0 -29 -32 -29h-29q-17 0 -25 6.5t-8 11.5q0 9 10 9q3 0 6.5 -3t8 -3.5t8.5 -0.5h26q16 0 16 10q0 5 -10 10l-46 21q-16 7 -16 23q0 25 26 25h33q14 0 22 -6l5 -5q3 -3 3 -6q0 -10 -10 -10q-4 0 -8.5 4t-11.5 4h-29q-11 0 -11 -6zM487 241q13 0 13 -10
t-13 -10h-49q-13 0 -13 10t13 10h15v70h-15q-13 0 -13 9q0 10 13 10h20q14 0 14 -13v-76h15zM452 378h11q9 0 9 -9v-9q0 -9 -9 -9h-11q-9 0 -9 9v9q0 9 9 9zM518 314l14 11q6 5 12 5h18q7 0 19 -10l5 -3v2q0 11 10 11q9 0 9 -13v-95q0 -20 -9 -28l-7 -6q-9 -8 -24 -8h-31
q-14 0 -14 10q0 9 14 9h35q5 0 9 5l5 4q3 3 3 8v27l-4 -4q-10 -10 -16 -10h-22q-8 0 -15 6l-12 11q-6 6 -6 18v30q0 15 7 20zM533 257l8 -6q2 -2 5 -2h14q3 0 9 5l15 12q2 2 2 7v14q0 5 -2 6l-15 13q-3 2 -5 3l-4 2h-14q-3 0 -5 -2l-8 -7q-2 -1 -2.5 -3.5t-0.5 -6.5v-25
q0 -5 0.5 -6.5t2.5 -3.5zM638 235q0 -14 -10 -14q-9 0 -9 14v81q0 14 9 14q10 0 10 -14v-2l15 10q11 6 17 6h14q20 0 25 -19q1 -3 2 -14l2 -61q0 -15 -10 -15q-9 0 -9 13l-2 60q-1 17 -13 17h-7q-3 0 -6 -2l-28 -18v-56zM949 282q0 10 10 10t10 -10v-51q0 -10 -10 -10h-79
q-10 0 -10 10t10 10h30v117h-30q-10 0 -10 10t10 10h50v-137h19v41zM993 306q-10 0 -10 11v51q0 10 10 10h79q10 0 10 -10v-137q0 -10 -10 -10h-10q-10 0 -10 10t10 10v65h-69zM1062 358h-59v-31h59v31zM1106 306q-10 0 -10 11v51q0 10 10 10h79q10 0 10 -10v-137
q0 -10 -10 -10h-10q-10 0 -10 10t10 10v65h-69zM1175 358h-59v-31h59v31zM1288 368v-58q20 0 20 -21v-48q0 -20 -20 -20h-59q-20 0 -20 20v48q0 21 20 21v58q0 10 10 10h39q10 0 10 -10zM1268 358h-19v-48h19v48zM1288 290h-59v-49h59v49z" />
  </font>
</defs>
</svg>
