<?xml version="1.0" standalone="no"?>
<!DOCTYPE svg PUBLIC "-//W3C//DTD SVG 1.1//EN" "http://www.w3.org/Graphics/SVG/1.1/DTD/svg11.dtd" >
<svg xmlns="http://www.w3.org/2000/svg" xmlns:xlink="http://www.w3.org/1999/xlink" version="1.1">
<metadata>
Created by FontForge 20161013 at Mon Jul 30 17:37:29 2007
 By ,,,
Created by Paul van der Laan. Based on the original ZX Spectrum BASIC font. (c) 1982 Sinclair Research Ltd. 
</metadata>
<defs>
<font id="ZX82System" horiz-adv-x="700" >
  <font-face 
    font-family="ZX82 System"
    font-weight="400"
    font-stretch="normal"
    units-per-em="1000"
    panose-1="2 0 5 0 0 0 0 0 0 0"
    ascent="800"
    descent="-200"
    x-height="501"
    cap-height="601"
    bbox="-1 -160 7101 760"
    underline-thickness="50"
    underline-position="-150"
    unicode-range="U+0020-FB02"
  />
<missing-glyph horiz-adv-x="1000" 
d="M50 760h900v-920h-900v920z" />
    <glyph glyph-name=".notdef" horiz-adv-x="1000" 
d="M50 760h900v-920h-900v920z" />
    <glyph glyph-name=".null" horiz-adv-x="0" 
 />
    <glyph glyph-name="nonmarkingreturn" horiz-adv-x="800" 
 />
    <glyph glyph-name="space" unicode=" " horiz-adv-x="800" 
 />
    <glyph glyph-name="exclam" unicode="!" horiz-adv-x="800" 
d="M299 601h102v-102h-102v102zM299 501h102v-102h-102v102zM299 401h102v-102h-102v102zM299 301h102v-102h-102v102zM299 101h102v-102h-102v102z" />
    <glyph glyph-name="quotedbl" unicode="&#x22;" horiz-adv-x="800" 
d="M199 601h102v-102h-102v102zM499 601h102v-102h-102v102zM199 501h102v-102h-102v102zM499 501h102v-102h-102v102z" />
    <glyph glyph-name="numbersign" unicode="#" horiz-adv-x="800" 
d="M199 601h102v-102h-102v102zM499 601h102v-102h-102v102zM99 501h102v-102h-102v102zM199 501h102v-102h-102v102zM299 501h102v-102h-102v102zM399 501h102v-102h-102v102zM499 501h102v-102h-102v102zM599 501h102v-102h-102v102zM199 401h102v-102h-102v102zM499 401
h102v-102h-102v102zM199 301h102v-102h-102v102zM499 301h102v-102h-102v102zM99 201h102v-102h-102v102zM199 201h102v-102h-102v102zM299 201h102v-102h-102v102zM399 201h102v-102h-102v102zM499 201h102v-102h-102v102zM599 201h102v-102h-102v102zM199 101h102v-102
h-102v102zM499 101h102v-102h-102v102z" />
    <glyph glyph-name="dollar" unicode="$" horiz-adv-x="800" 
d="M399 601h102v-102h-102v102zM199 501h102v-102h-102v102zM299 501h102v-102h-102v102zM399 501h102v-102h-102v102zM499 501h102v-102h-102v102zM599 501h102v-102h-102v102zM199 401h102v-102h-102v102zM399 401h102v-102h-102v102zM199 301h102v-102h-102v102zM299 301
h102v-102h-102v102zM399 301h102v-102h-102v102zM499 301h102v-102h-102v102zM599 301h102v-102h-102v102zM399 201h102v-102h-102v102zM599 201h102v-102h-102v102zM199 101h102v-102h-102v102zM299 101h102v-102h-102v102zM399 101h102v-102h-102v102zM499 101h102v-102
h-102v102zM599 101h102v-102h-102v102zM399 1h102v-102h-102v102z" />
    <glyph glyph-name="percent" unicode="%" horiz-adv-x="800" 
d="M99 601h102v-102h-102v102zM199 601h102v-102h-102v102zM599 601h102v-102h-102v102zM99 501h102v-102h-102v102zM199 501h102v-102h-102v102zM499 501h102v-102h-102v102zM399 401h102v-102h-102v102zM299 301h102v-102h-102v102zM199 201h102v-102h-102v102zM499 201
h102v-102h-102v102zM599 201h102v-102h-102v102zM99 101h102v-102h-102v102zM499 101h102v-102h-102v102zM599 101h102v-102h-102v102z" />
    <glyph glyph-name="ampersand" unicode="&#x26;" horiz-adv-x="800" 
d="M299 601h102v-102h-102v102zM199 501h102v-102h-102v102zM399 501h102v-102h-102v102zM299 401h102v-102h-102v102zM199 301h102v-102h-102v102zM399 301h102v-102h-102v102zM599 301h102v-102h-102v102zM99 201h102v-102h-102v102zM499 201h102v-102h-102v102zM199 101
h102v-102h-102v102zM299 101h102v-102h-102v102zM399 101h102v-102h-102v102zM599 101h102v-102h-102v102z" />
    <glyph glyph-name="quotesingle" unicode="'" horiz-adv-x="800" 
d="M399 601h102v-102h-102v102zM299 501h102v-102h-102v102z" />
    <glyph glyph-name="parenleft" unicode="(" horiz-adv-x="800" 
d="M499 601h102v-102h-102v102zM399 501h102v-102h-102v102zM399 401h102v-102h-102v102zM399 301h102v-102h-102v102zM399 201h102v-102h-102v102zM499 101h102v-102h-102v102z" />
    <glyph glyph-name="parenright" unicode=")" horiz-adv-x="800" 
d="M199 601h102v-102h-102v102zM299 501h102v-102h-102v102zM299 401h102v-102h-102v102zM299 301h102v-102h-102v102zM299 201h102v-102h-102v102zM199 101h102v-102h-102v102z" />
    <glyph glyph-name="asterisk" unicode="*" horiz-adv-x="800" 
d="M299 501h102v-102h-102v102zM499 501h102v-102h-102v102zM399 401h102v-102h-102v102zM199 301h102v-102h-102v102zM299 301h102v-102h-102v102zM399 301h102v-102h-102v102zM499 301h102v-102h-102v102zM599 301h102v-102h-102v102zM399 201h102v-102h-102v102zM299 101
h102v-102h-102v102zM499 101h102v-102h-102v102z" />
    <glyph glyph-name="plus" unicode="+" horiz-adv-x="800" 
d="M399 501h102v-102h-102v102zM399 401h102v-102h-102v102zM199 301h102v-102h-102v102zM299 301h102v-102h-102v102zM399 301h102v-102h-102v102zM499 301h102v-102h-102v102zM599 301h102v-102h-102v102zM399 201h102v-102h-102v102zM399 101h102v-102h-102v102z" />
    <glyph glyph-name="comma" unicode="," horiz-adv-x="800" 
d="M399 201h102v-102h-102v102zM399 101h102v-102h-102v102zM299 1h102v-102h-102v102z" />
    <glyph glyph-name="hyphen" unicode="-" horiz-adv-x="800" 
d="M199 301h102v-102h-102v102zM299 301h102v-102h-102v102zM399 301h102v-102h-102v102zM499 301h102v-102h-102v102zM599 301h102v-102h-102v102z" />
    <glyph glyph-name="period" unicode="." horiz-adv-x="800" 
d="M299 201h102v-102h-102v102zM399 201h102v-102h-102v102zM299 101h102v-102h-102v102zM399 101h102v-102h-102v102z" />
    <glyph glyph-name="slash" unicode="/" horiz-adv-x="800" 
d="M599 501h102v-102h-102v102zM499 401h102v-102h-102v102zM399 301h102v-102h-102v102zM299 201h102v-102h-102v102zM199 101h102v-102h-102v102z" />
    <glyph glyph-name="zero" unicode="0" horiz-adv-x="800" 
d="M199 601h102v-102h-102v102zM299 601h102v-102h-102v102zM399 601h102v-102h-102v102zM499 601h102v-102h-102v102zM99 501h102v-102h-102v102zM499 501h102v-102h-102v102zM599 501h102v-102h-102v102zM99 401h102v-102h-102v102zM399 401h102v-102h-102v102zM599 401
h102v-102h-102v102zM99 301h102v-102h-102v102zM299 301h102v-102h-102v102zM599 301h102v-102h-102v102zM99 201h102v-102h-102v102zM199 201h102v-102h-102v102zM599 201h102v-102h-102v102zM199 101h102v-102h-102v102zM299 101h102v-102h-102v102zM399 101h102v-102
h-102v102zM499 101h102v-102h-102v102z" />
    <glyph glyph-name="one" unicode="1" horiz-adv-x="800" 
d="M299 601h102v-102h-102v102zM399 601h102v-102h-102v102zM199 501h102v-102h-102v102zM399 501h102v-102h-102v102zM399 401h102v-102h-102v102zM399 301h102v-102h-102v102zM399 201h102v-102h-102v102zM199 101h102v-102h-102v102zM299 101h102v-102h-102v102zM399 101
h102v-102h-102v102zM499 101h102v-102h-102v102zM599 101h102v-102h-102v102z" />
    <glyph glyph-name="two" unicode="2" horiz-adv-x="800" 
d="M199 601h102v-102h-102v102zM299 601h102v-102h-102v102zM399 601h102v-102h-102v102zM499 601h102v-102h-102v102zM99 501h102v-102h-102v102zM599 501h102v-102h-102v102zM599 401h102v-102h-102v102zM199 301h102v-102h-102v102zM299 301h102v-102h-102v102zM399 301
h102v-102h-102v102zM499 301h102v-102h-102v102zM99 201h102v-102h-102v102zM99 101h102v-102h-102v102zM199 101h102v-102h-102v102zM299 101h102v-102h-102v102zM399 101h102v-102h-102v102zM499 101h102v-102h-102v102zM599 101h102v-102h-102v102z" />
    <glyph glyph-name="three" unicode="3" horiz-adv-x="800" 
d="M199 601h102v-102h-102v102zM299 601h102v-102h-102v102zM399 601h102v-102h-102v102zM499 601h102v-102h-102v102zM99 501h102v-102h-102v102zM599 501h102v-102h-102v102zM399 401h102v-102h-102v102zM499 401h102v-102h-102v102zM599 301h102v-102h-102v102zM99 201
h102v-102h-102v102zM599 201h102v-102h-102v102zM199 101h102v-102h-102v102zM299 101h102v-102h-102v102zM399 101h102v-102h-102v102zM499 101h102v-102h-102v102z" />
    <glyph glyph-name="four" unicode="4" horiz-adv-x="800" 
d="M399 601h102v-102h-102v102zM299 501h102v-102h-102v102zM399 501h102v-102h-102v102zM199 401h102v-102h-102v102zM399 401h102v-102h-102v102zM99 301h102v-102h-102v102zM399 301h102v-102h-102v102zM99 201h102v-102h-102v102zM199 201h102v-102h-102v102zM299 201
h102v-102h-102v102zM399 201h102v-102h-102v102zM499 201h102v-102h-102v102zM599 201h102v-102h-102v102zM399 101h102v-102h-102v102z" />
    <glyph glyph-name="five" unicode="5" horiz-adv-x="800" 
d="M99 601h102v-102h-102v102zM199 601h102v-102h-102v102zM299 601h102v-102h-102v102zM399 601h102v-102h-102v102zM499 601h102v-102h-102v102zM599 601h102v-102h-102v102zM99 501h102v-102h-102v102zM99 401h102v-102h-102v102zM199 401h102v-102h-102v102zM299 401
h102v-102h-102v102zM399 401h102v-102h-102v102zM499 401h102v-102h-102v102zM599 301h102v-102h-102v102zM99 201h102v-102h-102v102zM599 201h102v-102h-102v102zM199 101h102v-102h-102v102zM299 101h102v-102h-102v102zM399 101h102v-102h-102v102zM499 101h102v-102
h-102v102z" />
    <glyph glyph-name="six" unicode="6" horiz-adv-x="800" 
d="M199 601h102v-102h-102v102zM299 601h102v-102h-102v102zM399 601h102v-102h-102v102zM499 601h102v-102h-102v102zM99 501h102v-102h-102v102zM99 401h102v-102h-102v102zM199 401h102v-102h-102v102zM299 401h102v-102h-102v102zM399 401h102v-102h-102v102zM499 401
h102v-102h-102v102zM99 301h102v-102h-102v102zM599 301h102v-102h-102v102zM99 201h102v-102h-102v102zM599 201h102v-102h-102v102zM199 101h102v-102h-102v102zM299 101h102v-102h-102v102zM399 101h102v-102h-102v102zM499 101h102v-102h-102v102z" />
    <glyph glyph-name="seven" unicode="7" horiz-adv-x="800" 
d="M99 601h102v-102h-102v102zM199 601h102v-102h-102v102zM299 601h102v-102h-102v102zM399 601h102v-102h-102v102zM499 601h102v-102h-102v102zM599 601h102v-102h-102v102zM599 501h102v-102h-102v102zM499 401h102v-102h-102v102zM399 301h102v-102h-102v102zM299 201
h102v-102h-102v102zM299 101h102v-102h-102v102z" />
    <glyph glyph-name="eight" unicode="8" horiz-adv-x="800" 
d="M199 601h102v-102h-102v102zM299 601h102v-102h-102v102zM399 601h102v-102h-102v102zM499 601h102v-102h-102v102zM99 501h102v-102h-102v102zM599 501h102v-102h-102v102zM199 401h102v-102h-102v102zM299 401h102v-102h-102v102zM399 401h102v-102h-102v102zM499 401
h102v-102h-102v102zM99 301h102v-102h-102v102zM599 301h102v-102h-102v102zM99 201h102v-102h-102v102zM599 201h102v-102h-102v102zM199 101h102v-102h-102v102zM299 101h102v-102h-102v102zM399 101h102v-102h-102v102zM499 101h102v-102h-102v102z" />
    <glyph glyph-name="nine" unicode="9" horiz-adv-x="800" 
d="M199 601h102v-102h-102v102zM299 601h102v-102h-102v102zM399 601h102v-102h-102v102zM499 601h102v-102h-102v102zM99 501h102v-102h-102v102zM599 501h102v-102h-102v102zM99 401h102v-102h-102v102zM599 401h102v-102h-102v102zM199 301h102v-102h-102v102zM299 301
h102v-102h-102v102zM399 301h102v-102h-102v102zM499 301h102v-102h-102v102zM599 301h102v-102h-102v102zM599 201h102v-102h-102v102zM199 101h102v-102h-102v102zM299 101h102v-102h-102v102zM399 101h102v-102h-102v102zM499 101h102v-102h-102v102z" />
    <glyph glyph-name="colon" unicode=":" horiz-adv-x="800" 
d="M299 401h102v-102h-102v102zM299 101h102v-102h-102v102z" />
    <glyph glyph-name="semicolon" unicode=";" horiz-adv-x="800" 
d="M299 501h102v-102h-102v102zM299 201h102v-102h-102v102zM299 101h102v-102h-102v102zM199 1h102v-102h-102v102z" />
    <glyph glyph-name="less" unicode="&#x3c;" horiz-adv-x="800" 
d="M499 501h102v-102h-102v102zM399 401h102v-102h-102v102zM299 301h102v-102h-102v102zM399 201h102v-102h-102v102zM499 101h102v-102h-102v102z" />
    <glyph glyph-name="equal" unicode="=" horiz-adv-x="800" 
d="M199 401h102v-102h-102v102zM299 401h102v-102h-102v102zM399 401h102v-102h-102v102zM499 401h102v-102h-102v102zM599 401h102v-102h-102v102zM199 201h102v-102h-102v102zM299 201h102v-102h-102v102zM399 201h102v-102h-102v102zM499 201h102v-102h-102v102zM599 201
h102v-102h-102v102z" />
    <glyph glyph-name="greater" unicode="&#x3e;" horiz-adv-x="800" 
d="M299 501h102v-102h-102v102zM399 401h102v-102h-102v102zM499 301h102v-102h-102v102zM399 201h102v-102h-102v102zM299 101h102v-102h-102v102z" />
    <glyph glyph-name="question" unicode="?" horiz-adv-x="800" 
d="M199 601h102v-102h-102v102zM299 601h102v-102h-102v102zM399 601h102v-102h-102v102zM499 601h102v-102h-102v102zM99 501h102v-102h-102v102zM599 501h102v-102h-102v102zM499 401h102v-102h-102v102zM399 301h102v-102h-102v102zM399 101h102v-102h-102v102z" />
    <glyph glyph-name="at" unicode="@" horiz-adv-x="800" 
d="M199 601h102v-102h-102v102zM299 601h102v-102h-102v102zM399 601h102v-102h-102v102zM499 601h102v-102h-102v102zM99 501h102v-102h-102v102zM399 501h102v-102h-102v102zM599 501h102v-102h-102v102zM99 401h102v-102h-102v102zM299 401h102v-102h-102v102zM499 401
h102v-102h-102v102zM599 401h102v-102h-102v102zM99 301h102v-102h-102v102zM299 301h102v-102h-102v102zM399 301h102v-102h-102v102zM499 301h102v-102h-102v102zM599 301h102v-102h-102v102zM99 201h102v-102h-102v102zM199 101h102v-102h-102v102zM299 101h102v-102
h-102v102zM399 101h102v-102h-102v102zM499 101h102v-102h-102v102z" />
    <glyph glyph-name="A" unicode="A" horiz-adv-x="800" 
d="M199 601h102v-102h-102v102zM299 601h102v-102h-102v102zM399 601h102v-102h-102v102zM499 601h102v-102h-102v102zM99 501h102v-102h-102v102zM599 501h102v-102h-102v102zM99 401h102v-102h-102v102zM599 401h102v-102h-102v102zM99 301h102v-102h-102v102zM199 301
h102v-102h-102v102zM299 301h102v-102h-102v102zM399 301h102v-102h-102v102zM499 301h102v-102h-102v102zM599 301h102v-102h-102v102zM99 201h102v-102h-102v102zM599 201h102v-102h-102v102zM99 101h102v-102h-102v102zM599 101h102v-102h-102v102z" />
    <glyph glyph-name="B" unicode="B" horiz-adv-x="800" 
d="M99 601h102v-102h-102v102zM199 601h102v-102h-102v102zM299 601h102v-102h-102v102zM399 601h102v-102h-102v102zM499 601h102v-102h-102v102zM99 501h102v-102h-102v102zM599 501h102v-102h-102v102zM99 401h102v-102h-102v102zM199 401h102v-102h-102v102zM299 401
h102v-102h-102v102zM399 401h102v-102h-102v102zM499 401h102v-102h-102v102zM99 301h102v-102h-102v102zM599 301h102v-102h-102v102zM99 201h102v-102h-102v102zM599 201h102v-102h-102v102zM99 101h102v-102h-102v102zM199 101h102v-102h-102v102zM299 101h102v-102h-102
v102zM399 101h102v-102h-102v102zM499 101h102v-102h-102v102z" />
    <glyph glyph-name="C" unicode="C" horiz-adv-x="800" 
d="M199 601h102v-102h-102v102zM299 601h102v-102h-102v102zM399 601h102v-102h-102v102zM499 601h102v-102h-102v102zM99 501h102v-102h-102v102zM599 501h102v-102h-102v102zM99 401h102v-102h-102v102zM99 301h102v-102h-102v102zM99 201h102v-102h-102v102zM599 201h102
v-102h-102v102zM199 101h102v-102h-102v102zM299 101h102v-102h-102v102zM399 101h102v-102h-102v102zM499 101h102v-102h-102v102z" />
    <glyph glyph-name="D" unicode="D" horiz-adv-x="800" 
d="M99 601h102v-102h-102v102zM199 601h102v-102h-102v102zM299 601h102v-102h-102v102zM399 601h102v-102h-102v102zM99 501h102v-102h-102v102zM499 501h102v-102h-102v102zM99 401h102v-102h-102v102zM599 401h102v-102h-102v102zM99 301h102v-102h-102v102zM599 301h102
v-102h-102v102zM99 201h102v-102h-102v102zM499 201h102v-102h-102v102zM99 101h102v-102h-102v102zM199 101h102v-102h-102v102zM299 101h102v-102h-102v102zM399 101h102v-102h-102v102z" />
    <glyph glyph-name="E" unicode="E" horiz-adv-x="800" 
d="M99 601h102v-102h-102v102zM199 601h102v-102h-102v102zM299 601h102v-102h-102v102zM399 601h102v-102h-102v102zM499 601h102v-102h-102v102zM599 601h102v-102h-102v102zM99 501h102v-102h-102v102zM99 401h102v-102h-102v102zM199 401h102v-102h-102v102zM299 401
h102v-102h-102v102zM399 401h102v-102h-102v102zM499 401h102v-102h-102v102zM99 301h102v-102h-102v102zM99 201h102v-102h-102v102zM99 101h102v-102h-102v102zM199 101h102v-102h-102v102zM299 101h102v-102h-102v102zM399 101h102v-102h-102v102zM499 101h102v-102h-102
v102zM599 101h102v-102h-102v102z" />
    <glyph glyph-name="F" unicode="F" horiz-adv-x="800" 
d="M99 601h102v-102h-102v102zM199 601h102v-102h-102v102zM299 601h102v-102h-102v102zM399 601h102v-102h-102v102zM499 601h102v-102h-102v102zM599 601h102v-102h-102v102zM99 501h102v-102h-102v102zM99 401h102v-102h-102v102zM199 401h102v-102h-102v102zM299 401
h102v-102h-102v102zM399 401h102v-102h-102v102zM499 401h102v-102h-102v102zM99 301h102v-102h-102v102zM99 201h102v-102h-102v102zM99 101h102v-102h-102v102z" />
    <glyph glyph-name="G" unicode="G" horiz-adv-x="800" 
d="M199 601h102v-102h-102v102zM299 601h102v-102h-102v102zM399 601h102v-102h-102v102zM499 601h102v-102h-102v102zM99 501h102v-102h-102v102zM599 501h102v-102h-102v102zM99 401h102v-102h-102v102zM99 301h102v-102h-102v102zM399 301h102v-102h-102v102zM499 301
h102v-102h-102v102zM599 301h102v-102h-102v102zM99 201h102v-102h-102v102zM599 201h102v-102h-102v102zM199 101h102v-102h-102v102zM299 101h102v-102h-102v102zM399 101h102v-102h-102v102zM499 101h102v-102h-102v102z" />
    <glyph glyph-name="H" unicode="H" horiz-adv-x="800" 
d="M99 601h102v-102h-102v102zM599 601h102v-102h-102v102zM99 501h102v-102h-102v102zM599 501h102v-102h-102v102zM99 401h102v-102h-102v102zM199 401h102v-102h-102v102zM299 401h102v-102h-102v102zM399 401h102v-102h-102v102zM499 401h102v-102h-102v102zM599 401
h102v-102h-102v102zM99 301h102v-102h-102v102zM599 301h102v-102h-102v102zM99 201h102v-102h-102v102zM599 201h102v-102h-102v102zM99 101h102v-102h-102v102zM599 101h102v-102h-102v102z" />
    <glyph glyph-name="I" unicode="I" horiz-adv-x="800" 
d="M199 601h102v-102h-102v102zM299 601h102v-102h-102v102zM399 601h102v-102h-102v102zM499 601h102v-102h-102v102zM599 601h102v-102h-102v102zM399 501h102v-102h-102v102zM399 401h102v-102h-102v102zM399 301h102v-102h-102v102zM399 201h102v-102h-102v102zM199 101
h102v-102h-102v102zM299 101h102v-102h-102v102zM399 101h102v-102h-102v102zM499 101h102v-102h-102v102zM599 101h102v-102h-102v102z" />
    <glyph glyph-name="J" unicode="J" horiz-adv-x="800" 
d="M599 601h102v-102h-102v102zM599 501h102v-102h-102v102zM599 401h102v-102h-102v102zM99 301h102v-102h-102v102zM599 301h102v-102h-102v102zM99 201h102v-102h-102v102zM599 201h102v-102h-102v102zM199 101h102v-102h-102v102zM299 101h102v-102h-102v102zM399 101
h102v-102h-102v102zM499 101h102v-102h-102v102z" />
    <glyph glyph-name="K" unicode="K" horiz-adv-x="800" 
d="M99 601h102v-102h-102v102zM499 601h102v-102h-102v102zM99 501h102v-102h-102v102zM399 501h102v-102h-102v102zM99 401h102v-102h-102v102zM199 401h102v-102h-102v102zM299 401h102v-102h-102v102zM99 301h102v-102h-102v102zM399 301h102v-102h-102v102zM99 201h102
v-102h-102v102zM499 201h102v-102h-102v102zM99 101h102v-102h-102v102zM599 101h102v-102h-102v102z" />
    <glyph glyph-name="L" unicode="L" horiz-adv-x="800" 
d="M99 601h102v-102h-102v102zM99 501h102v-102h-102v102zM99 401h102v-102h-102v102zM99 301h102v-102h-102v102zM99 201h102v-102h-102v102zM99 101h102v-102h-102v102zM199 101h102v-102h-102v102zM299 101h102v-102h-102v102zM399 101h102v-102h-102v102zM499 101h102
v-102h-102v102zM599 101h102v-102h-102v102z" />
    <glyph glyph-name="M" unicode="M" horiz-adv-x="800" 
d="M99 601h102v-102h-102v102zM599 601h102v-102h-102v102zM99 501h102v-102h-102v102zM199 501h102v-102h-102v102zM499 501h102v-102h-102v102zM599 501h102v-102h-102v102zM99 401h102v-102h-102v102zM299 401h102v-102h-102v102zM399 401h102v-102h-102v102zM599 401
h102v-102h-102v102zM99 301h102v-102h-102v102zM599 301h102v-102h-102v102zM99 201h102v-102h-102v102zM599 201h102v-102h-102v102zM99 101h102v-102h-102v102zM599 101h102v-102h-102v102z" />
    <glyph glyph-name="N" unicode="N" horiz-adv-x="800" 
d="M99 601h102v-102h-102v102zM599 601h102v-102h-102v102zM99 501h102v-102h-102v102zM199 501h102v-102h-102v102zM599 501h102v-102h-102v102zM99 401h102v-102h-102v102zM299 401h102v-102h-102v102zM599 401h102v-102h-102v102zM99 301h102v-102h-102v102zM399 301h102
v-102h-102v102zM599 301h102v-102h-102v102zM99 201h102v-102h-102v102zM499 201h102v-102h-102v102zM599 201h102v-102h-102v102zM99 101h102v-102h-102v102zM599 101h102v-102h-102v102z" />
    <glyph glyph-name="O" unicode="O" horiz-adv-x="800" 
d="M199 601h102v-102h-102v102zM299 601h102v-102h-102v102zM399 601h102v-102h-102v102zM499 601h102v-102h-102v102zM99 501h102v-102h-102v102zM599 501h102v-102h-102v102zM99 401h102v-102h-102v102zM599 401h102v-102h-102v102zM99 301h102v-102h-102v102zM599 301
h102v-102h-102v102zM99 201h102v-102h-102v102zM599 201h102v-102h-102v102zM199 101h102v-102h-102v102zM299 101h102v-102h-102v102zM399 101h102v-102h-102v102zM499 101h102v-102h-102v102z" />
    <glyph glyph-name="P" unicode="P" horiz-adv-x="800" 
d="M99 601h102v-102h-102v102zM199 601h102v-102h-102v102zM299 601h102v-102h-102v102zM399 601h102v-102h-102v102zM499 601h102v-102h-102v102zM99 501h102v-102h-102v102zM599 501h102v-102h-102v102zM99 401h102v-102h-102v102zM599 401h102v-102h-102v102zM99 301h102
v-102h-102v102zM199 301h102v-102h-102v102zM299 301h102v-102h-102v102zM399 301h102v-102h-102v102zM499 301h102v-102h-102v102zM99 201h102v-102h-102v102zM99 101h102v-102h-102v102z" />
    <glyph glyph-name="Q" unicode="Q" horiz-adv-x="800" 
d="M199 601h102v-102h-102v102zM299 601h102v-102h-102v102zM399 601h102v-102h-102v102zM499 601h102v-102h-102v102zM99 501h102v-102h-102v102zM599 501h102v-102h-102v102zM99 401h102v-102h-102v102zM599 401h102v-102h-102v102zM99 301h102v-102h-102v102zM299 301
h102v-102h-102v102zM599 301h102v-102h-102v102zM99 201h102v-102h-102v102zM399 201h102v-102h-102v102zM599 201h102v-102h-102v102zM199 101h102v-102h-102v102zM299 101h102v-102h-102v102zM399 101h102v-102h-102v102zM499 101h102v-102h-102v102z" />
    <glyph glyph-name="R" unicode="R" horiz-adv-x="800" 
d="M99 601h102v-102h-102v102zM199 601h102v-102h-102v102zM299 601h102v-102h-102v102zM399 601h102v-102h-102v102zM499 601h102v-102h-102v102zM99 501h102v-102h-102v102zM599 501h102v-102h-102v102zM99 401h102v-102h-102v102zM599 401h102v-102h-102v102zM99 301h102
v-102h-102v102zM199 301h102v-102h-102v102zM299 301h102v-102h-102v102zM399 301h102v-102h-102v102zM499 301h102v-102h-102v102zM99 201h102v-102h-102v102zM499 201h102v-102h-102v102zM99 101h102v-102h-102v102zM599 101h102v-102h-102v102z" />
    <glyph glyph-name="S" unicode="S" horiz-adv-x="800" 
d="M199 601h102v-102h-102v102zM299 601h102v-102h-102v102zM399 601h102v-102h-102v102zM499 601h102v-102h-102v102zM99 501h102v-102h-102v102zM199 401h102v-102h-102v102zM299 401h102v-102h-102v102zM399 401h102v-102h-102v102zM499 401h102v-102h-102v102zM599 301
h102v-102h-102v102zM99 201h102v-102h-102v102zM599 201h102v-102h-102v102zM199 101h102v-102h-102v102zM299 101h102v-102h-102v102zM399 101h102v-102h-102v102zM499 101h102v-102h-102v102z" />
    <glyph glyph-name="T" unicode="T" horiz-adv-x="800" 
d="M-1 601h102v-102h-102v102zM99 601h102v-102h-102v102zM199 601h102v-102h-102v102zM299 601h102v-102h-102v102zM399 601h102v-102h-102v102zM499 601h102v-102h-102v102zM599 601h102v-102h-102v102zM299 501h102v-102h-102v102zM299 401h102v-102h-102v102zM299 301
h102v-102h-102v102zM299 201h102v-102h-102v102zM299 101h102v-102h-102v102z" />
    <glyph glyph-name="U" unicode="U" horiz-adv-x="800" 
d="M99 601h102v-102h-102v102zM599 601h102v-102h-102v102zM99 501h102v-102h-102v102zM599 501h102v-102h-102v102zM99 401h102v-102h-102v102zM599 401h102v-102h-102v102zM99 301h102v-102h-102v102zM599 301h102v-102h-102v102zM99 201h102v-102h-102v102zM599 201h102
v-102h-102v102zM199 101h102v-102h-102v102zM299 101h102v-102h-102v102zM399 101h102v-102h-102v102zM499 101h102v-102h-102v102z" />
    <glyph glyph-name="V" unicode="V" horiz-adv-x="800" 
d="M99 601h102v-102h-102v102zM599 601h102v-102h-102v102zM99 501h102v-102h-102v102zM599 501h102v-102h-102v102zM99 401h102v-102h-102v102zM599 401h102v-102h-102v102zM99 301h102v-102h-102v102zM599 301h102v-102h-102v102zM199 201h102v-102h-102v102zM499 201h102
v-102h-102v102zM299 101h102v-102h-102v102zM399 101h102v-102h-102v102z" />
    <glyph glyph-name="W" unicode="W" horiz-adv-x="800" 
d="M99 601h102v-102h-102v102zM599 601h102v-102h-102v102zM99 501h102v-102h-102v102zM599 501h102v-102h-102v102zM99 401h102v-102h-102v102zM599 401h102v-102h-102v102zM99 301h102v-102h-102v102zM599 301h102v-102h-102v102zM99 201h102v-102h-102v102zM299 201h102
v-102h-102v102zM399 201h102v-102h-102v102zM599 201h102v-102h-102v102zM199 101h102v-102h-102v102zM499 101h102v-102h-102v102z" />
    <glyph glyph-name="X" unicode="X" horiz-adv-x="800" 
d="M99 601h102v-102h-102v102zM599 601h102v-102h-102v102zM199 501h102v-102h-102v102zM499 501h102v-102h-102v102zM299 401h102v-102h-102v102zM399 401h102v-102h-102v102zM299 301h102v-102h-102v102zM399 301h102v-102h-102v102zM199 201h102v-102h-102v102zM499 201
h102v-102h-102v102zM99 101h102v-102h-102v102zM599 101h102v-102h-102v102z" />
    <glyph glyph-name="Y" unicode="Y" horiz-adv-x="800" 
d="M-1 601h102v-102h-102v102zM599 601h102v-102h-102v102zM99 501h102v-102h-102v102zM499 501h102v-102h-102v102zM199 401h102v-102h-102v102zM399 401h102v-102h-102v102zM299 301h102v-102h-102v102zM299 201h102v-102h-102v102zM299 101h102v-102h-102v102z" />
    <glyph glyph-name="Z" unicode="Z" horiz-adv-x="800" 
d="M99 601h102v-102h-102v102zM199 601h102v-102h-102v102zM299 601h102v-102h-102v102zM399 601h102v-102h-102v102zM499 601h102v-102h-102v102zM599 601h102v-102h-102v102zM499 501h102v-102h-102v102zM399 401h102v-102h-102v102zM299 301h102v-102h-102v102zM199 201
h102v-102h-102v102zM99 101h102v-102h-102v102zM199 101h102v-102h-102v102zM299 101h102v-102h-102v102zM399 101h102v-102h-102v102zM499 101h102v-102h-102v102zM599 101h102v-102h-102v102z" />
    <glyph glyph-name="bracketleft" unicode="[" horiz-adv-x="800" 
d="M399 601h102v-102h-102v102zM499 601h102v-102h-102v102zM599 601h102v-102h-102v102zM399 501h102v-102h-102v102zM399 401h102v-102h-102v102zM399 301h102v-102h-102v102zM399 201h102v-102h-102v102zM399 101h102v-102h-102v102zM499 101h102v-102h-102v102zM599 101
h102v-102h-102v102z" />
    <glyph glyph-name="backslash" unicode="\" horiz-adv-x="800" 
d="M99 501h102v-102h-102v102zM199 401h102v-102h-102v102zM299 301h102v-102h-102v102zM399 201h102v-102h-102v102zM499 101h102v-102h-102v102z" />
    <glyph glyph-name="bracketright" unicode="]" horiz-adv-x="800" 
d="M99 601h102v-102h-102v102zM199 601h102v-102h-102v102zM299 601h102v-102h-102v102zM299 501h102v-102h-102v102zM299 401h102v-102h-102v102zM299 301h102v-102h-102v102zM299 201h102v-102h-102v102zM99 101h102v-102h-102v102zM199 101h102v-102h-102v102zM299 101
h102v-102h-102v102z" />
    <glyph glyph-name="asciicircum" unicode="^" horiz-adv-x="800" 
d="M299 601h102v-102h-102v102zM199 501h102v-102h-102v102zM299 501h102v-102h-102v102zM399 501h102v-102h-102v102zM99 401h102v-102h-102v102zM299 401h102v-102h-102v102zM499 401h102v-102h-102v102zM299 301h102v-102h-102v102zM299 201h102v-102h-102v102zM299 101
h102v-102h-102v102z" />
    <glyph glyph-name="underscore" unicode="_" horiz-adv-x="800" 
d="M-1 1h102v-102h-102v102zM99 1h102v-102h-102v102zM199 1h102v-102h-102v102zM299 1h102v-102h-102v102zM399 1h102v-102h-102v102zM499 1h102v-102h-102v102zM599 1h102v-102h-102v102zM699 1h102v-102h-102v102z" />
    <glyph glyph-name="grave" unicode="`" 
d="M99 301h102v-102h-102v102zM299 301h102v-102h-102v102zM499 301h102v-102h-102v102z" />
    <glyph glyph-name="a" unicode="a" horiz-adv-x="800" 
d="M199 501h102v-102h-102v102zM299 501h102v-102h-102v102zM399 501h102v-102h-102v102zM499 401h102v-102h-102v102zM199 301h102v-102h-102v102zM299 301h102v-102h-102v102zM399 301h102v-102h-102v102zM499 301h102v-102h-102v102zM99 201h102v-102h-102v102zM499 201
h102v-102h-102v102zM199 101h102v-102h-102v102zM299 101h102v-102h-102v102zM399 101h102v-102h-102v102zM499 101h102v-102h-102v102z" />
    <glyph glyph-name="b" unicode="b" horiz-adv-x="800" 
d="M199 601h102v-102h-102v102zM199 501h102v-102h-102v102zM199 401h102v-102h-102v102zM299 401h102v-102h-102v102zM399 401h102v-102h-102v102zM499 401h102v-102h-102v102zM199 301h102v-102h-102v102zM599 301h102v-102h-102v102zM199 201h102v-102h-102v102zM599 201
h102v-102h-102v102zM199 101h102v-102h-102v102zM299 101h102v-102h-102v102zM399 101h102v-102h-102v102zM499 101h102v-102h-102v102z" />
    <glyph glyph-name="c" unicode="c" horiz-adv-x="800" 
d="M299 501h102v-102h-102v102zM399 501h102v-102h-102v102zM499 501h102v-102h-102v102zM199 401h102v-102h-102v102zM199 301h102v-102h-102v102zM199 201h102v-102h-102v102zM299 101h102v-102h-102v102zM399 101h102v-102h-102v102zM499 101h102v-102h-102v102z" />
    <glyph glyph-name="d" unicode="d" horiz-adv-x="800" 
d="M499 601h102v-102h-102v102zM499 501h102v-102h-102v102zM199 401h102v-102h-102v102zM299 401h102v-102h-102v102zM399 401h102v-102h-102v102zM499 401h102v-102h-102v102zM99 301h102v-102h-102v102zM499 301h102v-102h-102v102zM99 201h102v-102h-102v102zM499 201
h102v-102h-102v102zM199 101h102v-102h-102v102zM299 101h102v-102h-102v102zM399 101h102v-102h-102v102zM499 101h102v-102h-102v102z" />
    <glyph glyph-name="e" unicode="e" horiz-adv-x="800" 
d="M199 501h102v-102h-102v102zM299 501h102v-102h-102v102zM399 501h102v-102h-102v102zM99 401h102v-102h-102v102zM499 401h102v-102h-102v102zM99 301h102v-102h-102v102zM199 301h102v-102h-102v102zM299 301h102v-102h-102v102zM399 301h102v-102h-102v102zM99 201
h102v-102h-102v102zM199 101h102v-102h-102v102zM299 101h102v-102h-102v102zM399 101h102v-102h-102v102zM499 101h102v-102h-102v102z" />
    <glyph glyph-name="f" unicode="f" horiz-adv-x="800" 
d="M399 601h102v-102h-102v102zM499 601h102v-102h-102v102zM299 501h102v-102h-102v102zM299 401h102v-102h-102v102zM399 401h102v-102h-102v102zM299 301h102v-102h-102v102zM299 201h102v-102h-102v102zM299 101h102v-102h-102v102z" />
    <glyph glyph-name="g" unicode="g" horiz-adv-x="800" 
d="M199 501h102v-102h-102v102zM299 501h102v-102h-102v102zM399 501h102v-102h-102v102zM499 501h102v-102h-102v102zM99 401h102v-102h-102v102zM499 401h102v-102h-102v102zM99 301h102v-102h-102v102zM499 301h102v-102h-102v102zM199 201h102v-102h-102v102zM299 201
h102v-102h-102v102zM399 201h102v-102h-102v102zM499 201h102v-102h-102v102zM499 101h102v-102h-102v102zM199 1h102v-102h-102v102zM299 1h102v-102h-102v102zM399 1h102v-102h-102v102z" />
    <glyph glyph-name="h" unicode="h" horiz-adv-x="800" 
d="M99 601h102v-102h-102v102zM99 501h102v-102h-102v102zM99 401h102v-102h-102v102zM199 401h102v-102h-102v102zM299 401h102v-102h-102v102zM399 401h102v-102h-102v102zM99 301h102v-102h-102v102zM499 301h102v-102h-102v102zM99 201h102v-102h-102v102zM499 201h102
v-102h-102v102zM99 101h102v-102h-102v102zM499 101h102v-102h-102v102z" />
    <glyph glyph-name="i" unicode="i" horiz-adv-x="800" 
d="M299 601h102v-102h-102v102zM199 401h102v-102h-102v102zM299 401h102v-102h-102v102zM299 301h102v-102h-102v102zM299 201h102v-102h-102v102zM199 101h102v-102h-102v102zM299 101h102v-102h-102v102zM399 101h102v-102h-102v102z" />
    <glyph glyph-name="j" unicode="j" horiz-adv-x="800" 
d="M499 601h102v-102h-102v102zM499 401h102v-102h-102v102zM499 301h102v-102h-102v102zM499 201h102v-102h-102v102zM199 101h102v-102h-102v102zM499 101h102v-102h-102v102zM299 1h102v-102h-102v102zM399 1h102v-102h-102v102z" />
    <glyph glyph-name="k" unicode="k" horiz-adv-x="800" 
d="M199 601h102v-102h-102v102zM199 501h102v-102h-102v102zM399 501h102v-102h-102v102zM199 401h102v-102h-102v102zM299 401h102v-102h-102v102zM199 301h102v-102h-102v102zM299 301h102v-102h-102v102zM199 201h102v-102h-102v102zM399 201h102v-102h-102v102zM199 101
h102v-102h-102v102zM499 101h102v-102h-102v102z" />
    <glyph glyph-name="l" unicode="l" horiz-adv-x="800" 
d="M299 601h102v-102h-102v102zM299 501h102v-102h-102v102zM299 401h102v-102h-102v102zM299 301h102v-102h-102v102zM299 201h102v-102h-102v102zM399 101h102v-102h-102v102zM499 101h102v-102h-102v102z" />
    <glyph glyph-name="m" unicode="m" horiz-adv-x="800" 
d="M99 501h102v-102h-102v102zM199 501h102v-102h-102v102zM399 501h102v-102h-102v102zM99 401h102v-102h-102v102zM299 401h102v-102h-102v102zM499 401h102v-102h-102v102zM99 301h102v-102h-102v102zM299 301h102v-102h-102v102zM499 301h102v-102h-102v102zM99 201h102
v-102h-102v102zM299 201h102v-102h-102v102zM499 201h102v-102h-102v102zM99 101h102v-102h-102v102zM299 101h102v-102h-102v102zM499 101h102v-102h-102v102z" />
    <glyph glyph-name="n" unicode="n" horiz-adv-x="800" 
d="M99 501h102v-102h-102v102zM199 501h102v-102h-102v102zM299 501h102v-102h-102v102zM399 501h102v-102h-102v102zM99 401h102v-102h-102v102zM499 401h102v-102h-102v102zM99 301h102v-102h-102v102zM499 301h102v-102h-102v102zM99 201h102v-102h-102v102zM499 201h102
v-102h-102v102zM99 101h102v-102h-102v102zM499 101h102v-102h-102v102z" />
    <glyph glyph-name="o" unicode="o" horiz-adv-x="800" 
d="M199 501h102v-102h-102v102zM299 501h102v-102h-102v102zM399 501h102v-102h-102v102zM99 401h102v-102h-102v102zM499 401h102v-102h-102v102zM99 301h102v-102h-102v102zM499 301h102v-102h-102v102zM99 201h102v-102h-102v102zM499 201h102v-102h-102v102zM199 101
h102v-102h-102v102zM299 101h102v-102h-102v102zM399 101h102v-102h-102v102z" />
    <glyph glyph-name="p" unicode="p" horiz-adv-x="800" 
d="M99 501h102v-102h-102v102zM199 501h102v-102h-102v102zM299 501h102v-102h-102v102zM399 501h102v-102h-102v102zM99 401h102v-102h-102v102zM499 401h102v-102h-102v102zM99 301h102v-102h-102v102zM499 301h102v-102h-102v102zM99 201h102v-102h-102v102zM199 201h102
v-102h-102v102zM299 201h102v-102h-102v102zM399 201h102v-102h-102v102zM99 101h102v-102h-102v102zM99 1h102v-102h-102v102z" />
    <glyph glyph-name="q" unicode="q" horiz-adv-x="800" 
d="M199 501h102v-102h-102v102zM299 501h102v-102h-102v102zM399 501h102v-102h-102v102zM499 501h102v-102h-102v102zM99 401h102v-102h-102v102zM499 401h102v-102h-102v102zM99 301h102v-102h-102v102zM499 301h102v-102h-102v102zM199 201h102v-102h-102v102zM299 201
h102v-102h-102v102zM399 201h102v-102h-102v102zM499 201h102v-102h-102v102zM499 101h102v-102h-102v102zM499 1h102v-102h-102v102zM599 1h102v-102h-102v102z" />
    <glyph glyph-name="r" unicode="r" horiz-adv-x="800" 
d="M299 501h102v-102h-102v102zM399 501h102v-102h-102v102zM499 501h102v-102h-102v102zM199 401h102v-102h-102v102zM199 301h102v-102h-102v102zM199 201h102v-102h-102v102zM199 101h102v-102h-102v102z" />
    <glyph glyph-name="s" unicode="s" horiz-adv-x="800" 
d="M199 501h102v-102h-102v102zM299 501h102v-102h-102v102zM399 501h102v-102h-102v102zM99 401h102v-102h-102v102zM199 301h102v-102h-102v102zM299 301h102v-102h-102v102zM399 301h102v-102h-102v102zM499 201h102v-102h-102v102zM99 101h102v-102h-102v102zM199 101
h102v-102h-102v102zM299 101h102v-102h-102v102zM399 101h102v-102h-102v102z" />
    <glyph glyph-name="t" unicode="t" horiz-adv-x="800" 
d="M299 601h102v-102h-102v102zM199 501h102v-102h-102v102zM299 501h102v-102h-102v102zM399 501h102v-102h-102v102zM299 401h102v-102h-102v102zM299 301h102v-102h-102v102zM299 201h102v-102h-102v102zM399 101h102v-102h-102v102zM499 101h102v-102h-102v102z" />
    <glyph glyph-name="u" unicode="u" horiz-adv-x="800" 
d="M99 501h102v-102h-102v102zM499 501h102v-102h-102v102zM99 401h102v-102h-102v102zM499 401h102v-102h-102v102zM99 301h102v-102h-102v102zM499 301h102v-102h-102v102zM99 201h102v-102h-102v102zM499 201h102v-102h-102v102zM199 101h102v-102h-102v102zM299 101h102
v-102h-102v102zM399 101h102v-102h-102v102z" />
    <glyph glyph-name="v" unicode="v" horiz-adv-x="800" 
d="M99 501h102v-102h-102v102zM499 501h102v-102h-102v102zM99 401h102v-102h-102v102zM499 401h102v-102h-102v102zM199 301h102v-102h-102v102zM399 301h102v-102h-102v102zM199 201h102v-102h-102v102zM399 201h102v-102h-102v102zM299 101h102v-102h-102v102z" />
    <glyph glyph-name="w" unicode="w" horiz-adv-x="800" 
d="M99 501h102v-102h-102v102zM499 501h102v-102h-102v102zM99 401h102v-102h-102v102zM299 401h102v-102h-102v102zM499 401h102v-102h-102v102zM99 301h102v-102h-102v102zM299 301h102v-102h-102v102zM499 301h102v-102h-102v102zM99 201h102v-102h-102v102zM299 201h102
v-102h-102v102zM499 201h102v-102h-102v102zM199 101h102v-102h-102v102zM399 101h102v-102h-102v102z" />
    <glyph glyph-name="x" unicode="x" horiz-adv-x="800" 
d="M99 501h102v-102h-102v102zM499 501h102v-102h-102v102zM199 401h102v-102h-102v102zM399 401h102v-102h-102v102zM299 301h102v-102h-102v102zM199 201h102v-102h-102v102zM399 201h102v-102h-102v102zM99 101h102v-102h-102v102zM499 101h102v-102h-102v102z" />
    <glyph glyph-name="y" unicode="y" horiz-adv-x="800" 
d="M99 501h102v-102h-102v102zM499 501h102v-102h-102v102zM99 401h102v-102h-102v102zM499 401h102v-102h-102v102zM99 301h102v-102h-102v102zM499 301h102v-102h-102v102zM199 201h102v-102h-102v102zM299 201h102v-102h-102v102zM399 201h102v-102h-102v102zM499 201
h102v-102h-102v102zM499 101h102v-102h-102v102zM199 1h102v-102h-102v102zM299 1h102v-102h-102v102zM399 1h102v-102h-102v102z" />
    <glyph glyph-name="z" unicode="z" horiz-adv-x="800" 
d="M99 501h102v-102h-102v102zM199 501h102v-102h-102v102zM299 501h102v-102h-102v102zM399 501h102v-102h-102v102zM499 501h102v-102h-102v102zM399 401h102v-102h-102v102zM299 301h102v-102h-102v102zM199 201h102v-102h-102v102zM99 101h102v-102h-102v102zM199 101
h102v-102h-102v102zM299 101h102v-102h-102v102zM399 101h102v-102h-102v102zM499 101h102v-102h-102v102z" />
    <glyph glyph-name="braceleft" unicode="{" horiz-adv-x="800" 
d="M399 601h102v-102h-102v102zM499 601h102v-102h-102v102zM599 601h102v-102h-102v102zM399 501h102v-102h-102v102zM199 401h102v-102h-102v102zM299 401h102v-102h-102v102zM399 301h102v-102h-102v102zM399 201h102v-102h-102v102zM399 101h102v-102h-102v102zM499 101
h102v-102h-102v102zM599 101h102v-102h-102v102z" />
    <glyph glyph-name="bar" unicode="|" horiz-adv-x="800" 
d="M399 601h102v-102h-102v102zM399 501h102v-102h-102v102zM399 401h102v-102h-102v102zM399 301h102v-102h-102v102zM399 201h102v-102h-102v102zM399 101h102v-102h-102v102z" />
    <glyph glyph-name="braceright" unicode="}" horiz-adv-x="800" 
d="M99 601h102v-102h-102v102zM199 601h102v-102h-102v102zM299 601h102v-102h-102v102zM299 501h102v-102h-102v102zM399 401h102v-102h-102v102zM499 401h102v-102h-102v102zM299 301h102v-102h-102v102zM299 201h102v-102h-102v102zM99 101h102v-102h-102v102zM199 101
h102v-102h-102v102zM299 101h102v-102h-102v102z" />
    <glyph glyph-name="asciitilde" unicode="~" horiz-adv-x="800" 
d="M299 601h102v-102h-102v102zM499 601h102v-102h-102v102zM199 501h102v-102h-102v102zM399 501h102v-102h-102v102z" />
    <glyph glyph-name="uni00A0" unicode="&#xa0;" horiz-adv-x="800" 
 />
    <glyph glyph-name="exclamdown" unicode="&#xa1;" 
d="M99 301h102v-102h-102v102zM299 301h102v-102h-102v102zM499 301h102v-102h-102v102z" />
    <glyph glyph-name="cent" unicode="&#xa2;" 
d="M99 301h102v-102h-102v102zM299 301h102v-102h-102v102zM499 301h102v-102h-102v102z" />
    <glyph glyph-name="sterling" unicode="&#xa3;" horiz-adv-x="800" 
d="M299 601h102v-102h-102v102zM399 601h102v-102h-102v102zM499 601h102v-102h-102v102zM199 501h102v-102h-102v102zM599 501h102v-102h-102v102zM99 401h102v-102h-102v102zM199 401h102v-102h-102v102zM299 401h102v-102h-102v102zM399 401h102v-102h-102v102zM199 301
h102v-102h-102v102zM199 201h102v-102h-102v102zM99 101h102v-102h-102v102zM199 101h102v-102h-102v102zM299 101h102v-102h-102v102zM399 101h102v-102h-102v102zM499 101h102v-102h-102v102zM599 101h102v-102h-102v102z" />
    <glyph glyph-name="currency" unicode="&#xa4;" 
d="M99 301h102v-102h-102v102zM299 301h102v-102h-102v102zM499 301h102v-102h-102v102z" />
    <glyph glyph-name="yen" unicode="&#xa5;" 
d="M99 301h102v-102h-102v102zM299 301h102v-102h-102v102zM499 301h102v-102h-102v102z" />
    <glyph glyph-name="brokenbar" unicode="&#xa6;" 
d="M99 301h102v-102h-102v102zM299 301h102v-102h-102v102zM499 301h102v-102h-102v102z" />
    <glyph glyph-name="section" unicode="&#xa7;" 
d="M99 301h102v-102h-102v102zM299 301h102v-102h-102v102zM499 301h102v-102h-102v102z" />
    <glyph glyph-name="dieresis" unicode="&#xa8;" 
d="M99 301h102v-102h-102v102zM299 301h102v-102h-102v102zM499 301h102v-102h-102v102z" />
    <glyph glyph-name="copyright" unicode="&#xa9;" horiz-adv-x="800" 
d="M199 701h102v-102h-102v102zM299 701h102v-102h-102v102zM399 701h102v-102h-102v102zM499 701h102v-102h-102v102zM99 601h102v-102h-102v102zM599 601h102v-102h-102v102zM-1 501h102v-102h-102v102zM299 501h102v-102h-102v102zM399 501h102v-102h-102v102zM699 501
h102v-102h-102v102zM-1 401h102v-102h-102v102zM199 401h102v-102h-102v102zM699 401h102v-102h-102v102zM-1 301h102v-102h-102v102zM199 301h102v-102h-102v102zM699 301h102v-102h-102v102zM-1 201h102v-102h-102v102zM299 201h102v-102h-102v102zM399 201h102v-102h-102
v102zM699 201h102v-102h-102v102zM99 101h102v-102h-102v102zM599 101h102v-102h-102v102zM199 1h102v-102h-102v102zM299 1h102v-102h-102v102zM399 1h102v-102h-102v102zM499 1h102v-102h-102v102z" />
    <glyph glyph-name="ordfeminine" unicode="&#xaa;" 
d="M99 301h102v-102h-102v102zM299 301h102v-102h-102v102zM499 301h102v-102h-102v102z" />
    <glyph glyph-name="guillemotleft" unicode="&#xab;" 
d="M99 301h102v-102h-102v102zM299 301h102v-102h-102v102zM499 301h102v-102h-102v102z" />
    <glyph glyph-name="logicalnot" unicode="&#xac;" 
d="M99 301h102v-102h-102v102zM299 301h102v-102h-102v102zM499 301h102v-102h-102v102z" />
    <glyph glyph-name="uni00AD" unicode="&#xad;" 
d="M99 301h102v-102h-102v102zM299 301h102v-102h-102v102zM499 301h102v-102h-102v102z" />
    <glyph glyph-name="registered" unicode="&#xae;" 
d="M99 301h102v-102h-102v102zM299 301h102v-102h-102v102zM499 301h102v-102h-102v102z" />
    <glyph glyph-name="macron" unicode="&#xaf;" 
d="M99 301h102v-102h-102v102zM299 301h102v-102h-102v102zM499 301h102v-102h-102v102z" />
    <glyph glyph-name="degree" unicode="&#xb0;" 
d="M99 301h102v-102h-102v102zM299 301h102v-102h-102v102zM499 301h102v-102h-102v102z" />
    <glyph glyph-name="plusminus" unicode="&#xb1;" 
d="M99 301h102v-102h-102v102zM299 301h102v-102h-102v102zM499 301h102v-102h-102v102z" />
    <glyph glyph-name="twosuperior" unicode="&#xb2;" 
d="M99 301h102v-102h-102v102zM299 301h102v-102h-102v102zM499 301h102v-102h-102v102z" />
    <glyph glyph-name="threesuperior" unicode="&#xb3;" 
d="M99 301h102v-102h-102v102zM299 301h102v-102h-102v102zM499 301h102v-102h-102v102z" />
    <glyph glyph-name="acute" unicode="&#xb4;" 
d="M99 301h102v-102h-102v102zM299 301h102v-102h-102v102zM499 301h102v-102h-102v102z" />
    <glyph glyph-name="paragraph" unicode="&#xb6;" 
d="M99 301h102v-102h-102v102zM299 301h102v-102h-102v102zM499 301h102v-102h-102v102z" />
    <glyph glyph-name="periodcentered" unicode="&#xb7;" 
d="M99 301h102v-102h-102v102zM299 301h102v-102h-102v102zM499 301h102v-102h-102v102z" />
    <glyph glyph-name="cedilla" unicode="&#xb8;" 
d="M99 301h102v-102h-102v102zM299 301h102v-102h-102v102zM499 301h102v-102h-102v102z" />
    <glyph glyph-name="onesuperior" unicode="&#xb9;" 
d="M99 301h102v-102h-102v102zM299 301h102v-102h-102v102zM499 301h102v-102h-102v102z" />
    <glyph glyph-name="ordmasculine" unicode="&#xba;" 
d="M99 301h102v-102h-102v102zM299 301h102v-102h-102v102zM499 301h102v-102h-102v102z" />
    <glyph glyph-name="guillemotright" unicode="&#xbb;" 
d="M99 301h102v-102h-102v102zM299 301h102v-102h-102v102zM499 301h102v-102h-102v102z" />
    <glyph glyph-name="onequarter" unicode="&#xbc;" 
d="M99 301h102v-102h-102v102zM299 301h102v-102h-102v102zM499 301h102v-102h-102v102z" />
    <glyph glyph-name="onehalf" unicode="&#xbd;" 
d="M99 301h102v-102h-102v102zM299 301h102v-102h-102v102zM499 301h102v-102h-102v102z" />
    <glyph glyph-name="threequarters" unicode="&#xbe;" 
d="M99 301h102v-102h-102v102zM299 301h102v-102h-102v102zM499 301h102v-102h-102v102z" />
    <glyph glyph-name="questiondown" unicode="&#xbf;" 
d="M99 301h102v-102h-102v102zM299 301h102v-102h-102v102zM499 301h102v-102h-102v102z" />
    <glyph glyph-name="Agrave" unicode="&#xc0;" 
d="M99 301h102v-102h-102v102zM299 301h102v-102h-102v102zM499 301h102v-102h-102v102z" />
    <glyph glyph-name="Aacute" unicode="&#xc1;" 
d="M99 301h102v-102h-102v102zM299 301h102v-102h-102v102zM499 301h102v-102h-102v102z" />
    <glyph glyph-name="Acircumflex" unicode="&#xc2;" 
d="M99 301h102v-102h-102v102zM299 301h102v-102h-102v102zM499 301h102v-102h-102v102z" />
    <glyph glyph-name="Atilde" unicode="&#xc3;" 
d="M99 301h102v-102h-102v102zM299 301h102v-102h-102v102zM499 301h102v-102h-102v102z" />
    <glyph glyph-name="Adieresis" unicode="&#xc4;" 
d="M99 301h102v-102h-102v102zM299 301h102v-102h-102v102zM499 301h102v-102h-102v102z" />
    <glyph glyph-name="Aring" unicode="&#xc5;" 
d="M99 301h102v-102h-102v102zM299 301h102v-102h-102v102zM499 301h102v-102h-102v102z" />
    <glyph glyph-name="AE" unicode="&#xc6;" 
d="M99 301h102v-102h-102v102zM299 301h102v-102h-102v102zM499 301h102v-102h-102v102z" />
    <glyph glyph-name="Ccedilla" unicode="&#xc7;" 
d="M99 301h102v-102h-102v102zM299 301h102v-102h-102v102zM499 301h102v-102h-102v102z" />
    <glyph glyph-name="Egrave" unicode="&#xc8;" 
d="M99 301h102v-102h-102v102zM299 301h102v-102h-102v102zM499 301h102v-102h-102v102z" />
    <glyph glyph-name="Eacute" unicode="&#xc9;" 
d="M99 301h102v-102h-102v102zM299 301h102v-102h-102v102zM499 301h102v-102h-102v102z" />
    <glyph glyph-name="Ecircumflex" unicode="&#xca;" 
d="M99 301h102v-102h-102v102zM299 301h102v-102h-102v102zM499 301h102v-102h-102v102z" />
    <glyph glyph-name="Edieresis" unicode="&#xcb;" 
d="M99 301h102v-102h-102v102zM299 301h102v-102h-102v102zM499 301h102v-102h-102v102z" />
    <glyph glyph-name="Igrave" unicode="&#xcc;" 
d="M99 301h102v-102h-102v102zM299 301h102v-102h-102v102zM499 301h102v-102h-102v102z" />
    <glyph glyph-name="Iacute" unicode="&#xcd;" 
d="M99 301h102v-102h-102v102zM299 301h102v-102h-102v102zM499 301h102v-102h-102v102z" />
    <glyph glyph-name="Icircumflex" unicode="&#xce;" 
d="M99 301h102v-102h-102v102zM299 301h102v-102h-102v102zM499 301h102v-102h-102v102z" />
    <glyph glyph-name="Idieresis" unicode="&#xcf;" 
d="M99 301h102v-102h-102v102zM299 301h102v-102h-102v102zM499 301h102v-102h-102v102z" />
    <glyph glyph-name="Eth" unicode="&#xd0;" 
d="M99 301h102v-102h-102v102zM299 301h102v-102h-102v102zM499 301h102v-102h-102v102z" />
    <glyph glyph-name="Ntilde" unicode="&#xd1;" 
d="M99 301h102v-102h-102v102zM299 301h102v-102h-102v102zM499 301h102v-102h-102v102z" />
    <glyph glyph-name="Ograve" unicode="&#xd2;" 
d="M99 301h102v-102h-102v102zM299 301h102v-102h-102v102zM499 301h102v-102h-102v102z" />
    <glyph glyph-name="Oacute" unicode="&#xd3;" 
d="M99 301h102v-102h-102v102zM299 301h102v-102h-102v102zM499 301h102v-102h-102v102z" />
    <glyph glyph-name="Ocircumflex" unicode="&#xd4;" 
d="M99 301h102v-102h-102v102zM299 301h102v-102h-102v102zM499 301h102v-102h-102v102z" />
    <glyph glyph-name="Otilde" unicode="&#xd5;" 
d="M99 301h102v-102h-102v102zM299 301h102v-102h-102v102zM499 301h102v-102h-102v102z" />
    <glyph glyph-name="Odieresis" unicode="&#xd6;" 
d="M99 301h102v-102h-102v102zM299 301h102v-102h-102v102zM499 301h102v-102h-102v102z" />
    <glyph glyph-name="multiply" unicode="&#xd7;" 
d="M99 301h102v-102h-102v102zM299 301h102v-102h-102v102zM499 301h102v-102h-102v102z" />
    <glyph glyph-name="Oslash" unicode="&#xd8;" 
d="M99 301h102v-102h-102v102zM299 301h102v-102h-102v102zM499 301h102v-102h-102v102z" />
    <glyph glyph-name="Ugrave" unicode="&#xd9;" 
d="M99 301h102v-102h-102v102zM299 301h102v-102h-102v102zM499 301h102v-102h-102v102z" />
    <glyph glyph-name="Uacute" unicode="&#xda;" 
d="M99 301h102v-102h-102v102zM299 301h102v-102h-102v102zM499 301h102v-102h-102v102z" />
    <glyph glyph-name="Ucircumflex" unicode="&#xdb;" 
d="M99 301h102v-102h-102v102zM299 301h102v-102h-102v102zM499 301h102v-102h-102v102z" />
    <glyph glyph-name="Udieresis" unicode="&#xdc;" 
d="M99 301h102v-102h-102v102zM299 301h102v-102h-102v102zM499 301h102v-102h-102v102z" />
    <glyph glyph-name="Yacute" unicode="&#xdd;" 
d="M99 301h102v-102h-102v102zM299 301h102v-102h-102v102zM499 301h102v-102h-102v102z" />
    <glyph glyph-name="Thorn" unicode="&#xde;" 
d="M99 301h102v-102h-102v102zM299 301h102v-102h-102v102zM499 301h102v-102h-102v102z" />
    <glyph glyph-name="germandbls" unicode="&#xdf;" 
d="M99 301h102v-102h-102v102zM299 301h102v-102h-102v102zM499 301h102v-102h-102v102z" />
    <glyph glyph-name="agrave" unicode="&#xe0;" 
d="M99 301h102v-102h-102v102zM299 301h102v-102h-102v102zM499 301h102v-102h-102v102z" />
    <glyph glyph-name="aacute" unicode="&#xe1;" 
d="M99 301h102v-102h-102v102zM299 301h102v-102h-102v102zM499 301h102v-102h-102v102z" />
    <glyph glyph-name="acircumflex" unicode="&#xe2;" 
d="M99 301h102v-102h-102v102zM299 301h102v-102h-102v102zM499 301h102v-102h-102v102z" />
    <glyph glyph-name="atilde" unicode="&#xe3;" 
d="M99 301h102v-102h-102v102zM299 301h102v-102h-102v102zM499 301h102v-102h-102v102z" />
    <glyph glyph-name="adieresis" unicode="&#xe4;" 
d="M99 301h102v-102h-102v102zM299 301h102v-102h-102v102zM499 301h102v-102h-102v102z" />
    <glyph glyph-name="aring" unicode="&#xe5;" 
d="M99 301h102v-102h-102v102zM299 301h102v-102h-102v102zM499 301h102v-102h-102v102z" />
    <glyph glyph-name="ae" unicode="&#xe6;" 
d="M99 301h102v-102h-102v102zM299 301h102v-102h-102v102zM499 301h102v-102h-102v102z" />
    <glyph glyph-name="ccedilla" unicode="&#xe7;" 
d="M99 301h102v-102h-102v102zM299 301h102v-102h-102v102zM499 301h102v-102h-102v102z" />
    <glyph glyph-name="egrave" unicode="&#xe8;" 
d="M99 301h102v-102h-102v102zM299 301h102v-102h-102v102zM499 301h102v-102h-102v102z" />
    <glyph glyph-name="eacute" unicode="&#xe9;" 
d="M99 301h102v-102h-102v102zM299 301h102v-102h-102v102zM499 301h102v-102h-102v102z" />
    <glyph glyph-name="ecircumflex" unicode="&#xea;" 
d="M99 301h102v-102h-102v102zM299 301h102v-102h-102v102zM499 301h102v-102h-102v102z" />
    <glyph glyph-name="edieresis" unicode="&#xeb;" 
d="M99 301h102v-102h-102v102zM299 301h102v-102h-102v102zM499 301h102v-102h-102v102z" />
    <glyph glyph-name="igrave" unicode="&#xec;" 
d="M99 301h102v-102h-102v102zM299 301h102v-102h-102v102zM499 301h102v-102h-102v102z" />
    <glyph glyph-name="iacute" unicode="&#xed;" 
d="M99 301h102v-102h-102v102zM299 301h102v-102h-102v102zM499 301h102v-102h-102v102z" />
    <glyph glyph-name="icircumflex" unicode="&#xee;" 
d="M99 301h102v-102h-102v102zM299 301h102v-102h-102v102zM499 301h102v-102h-102v102z" />
    <glyph glyph-name="idieresis" unicode="&#xef;" 
d="M99 301h102v-102h-102v102zM299 301h102v-102h-102v102zM499 301h102v-102h-102v102z" />
    <glyph glyph-name="eth" unicode="&#xf0;" 
d="M99 301h102v-102h-102v102zM299 301h102v-102h-102v102zM499 301h102v-102h-102v102z" />
    <glyph glyph-name="ntilde" unicode="&#xf1;" 
d="M99 301h102v-102h-102v102zM299 301h102v-102h-102v102zM499 301h102v-102h-102v102z" />
    <glyph glyph-name="ograve" unicode="&#xf2;" 
d="M99 301h102v-102h-102v102zM299 301h102v-102h-102v102zM499 301h102v-102h-102v102z" />
    <glyph glyph-name="oacute" unicode="&#xf3;" 
d="M99 301h102v-102h-102v102zM299 301h102v-102h-102v102zM499 301h102v-102h-102v102z" />
    <glyph glyph-name="ocircumflex" unicode="&#xf4;" 
d="M99 301h102v-102h-102v102zM299 301h102v-102h-102v102zM499 301h102v-102h-102v102z" />
    <glyph glyph-name="otilde" unicode="&#xf5;" 
d="M99 301h102v-102h-102v102zM299 301h102v-102h-102v102zM499 301h102v-102h-102v102z" />
    <glyph glyph-name="odieresis" unicode="&#xf6;" 
d="M99 301h102v-102h-102v102zM299 301h102v-102h-102v102zM499 301h102v-102h-102v102z" />
    <glyph glyph-name="divide" unicode="&#xf7;" 
d="M99 301h102v-102h-102v102zM299 301h102v-102h-102v102zM499 301h102v-102h-102v102z" />
    <glyph glyph-name="oslash" unicode="&#xf8;" 
d="M99 301h102v-102h-102v102zM299 301h102v-102h-102v102zM499 301h102v-102h-102v102z" />
    <glyph glyph-name="ugrave" unicode="&#xf9;" 
d="M99 301h102v-102h-102v102zM299 301h102v-102h-102v102zM499 301h102v-102h-102v102z" />
    <glyph glyph-name="uacute" unicode="&#xfa;" 
d="M99 301h102v-102h-102v102zM299 301h102v-102h-102v102zM499 301h102v-102h-102v102z" />
    <glyph glyph-name="ucircumflex" unicode="&#xfb;" 
d="M99 301h102v-102h-102v102zM299 301h102v-102h-102v102zM499 301h102v-102h-102v102z" />
    <glyph glyph-name="udieresis" unicode="&#xfc;" 
d="M99 301h102v-102h-102v102zM299 301h102v-102h-102v102zM499 301h102v-102h-102v102z" />
    <glyph glyph-name="yacute" unicode="&#xfd;" 
d="M99 301h102v-102h-102v102zM299 301h102v-102h-102v102zM499 301h102v-102h-102v102z" />
    <glyph glyph-name="thorn" unicode="&#xfe;" 
d="M99 301h102v-102h-102v102zM299 301h102v-102h-102v102zM499 301h102v-102h-102v102z" />
    <glyph glyph-name="ydieresis" unicode="&#xff;" 
d="M99 301h102v-102h-102v102zM299 301h102v-102h-102v102zM499 301h102v-102h-102v102z" />
    <glyph glyph-name="dotlessi" unicode="&#x131;" 
d="M99 301h102v-102h-102v102zM299 301h102v-102h-102v102zM499 301h102v-102h-102v102z" />
    <glyph glyph-name="Lslash" unicode="&#x141;" 
d="M99 301h102v-102h-102v102zM299 301h102v-102h-102v102zM499 301h102v-102h-102v102z" />
    <glyph glyph-name="lslash" unicode="&#x142;" 
d="M99 301h102v-102h-102v102zM299 301h102v-102h-102v102zM499 301h102v-102h-102v102z" />
    <glyph glyph-name="OE" unicode="&#x152;" 
d="M99 301h102v-102h-102v102zM299 301h102v-102h-102v102zM499 301h102v-102h-102v102z" />
    <glyph glyph-name="oe" unicode="&#x153;" 
d="M99 301h102v-102h-102v102zM299 301h102v-102h-102v102zM499 301h102v-102h-102v102z" />
    <glyph glyph-name="Scaron" unicode="&#x160;" 
d="M99 301h102v-102h-102v102zM299 301h102v-102h-102v102zM499 301h102v-102h-102v102z" />
    <glyph glyph-name="scaron" unicode="&#x161;" 
d="M99 301h102v-102h-102v102zM299 301h102v-102h-102v102zM499 301h102v-102h-102v102z" />
    <glyph glyph-name="Ydieresis" unicode="&#x178;" 
d="M99 301h102v-102h-102v102zM299 301h102v-102h-102v102zM499 301h102v-102h-102v102z" />
    <glyph glyph-name="Zcaron" unicode="&#x17d;" 
d="M99 301h102v-102h-102v102zM299 301h102v-102h-102v102zM499 301h102v-102h-102v102z" />
    <glyph glyph-name="zcaron" unicode="&#x17e;" 
d="M99 301h102v-102h-102v102zM299 301h102v-102h-102v102zM499 301h102v-102h-102v102z" />
    <glyph glyph-name="florin" unicode="&#x192;" 
d="M99 301h102v-102h-102v102zM299 301h102v-102h-102v102zM499 301h102v-102h-102v102z" />
    <glyph glyph-name="circumflex" unicode="&#x2c6;" 
d="M99 301h102v-102h-102v102zM299 301h102v-102h-102v102zM499 301h102v-102h-102v102z" />
    <glyph glyph-name="caron" unicode="&#x2c7;" 
d="M99 301h102v-102h-102v102zM299 301h102v-102h-102v102zM499 301h102v-102h-102v102z" />
    <glyph glyph-name="breve" unicode="&#x2d8;" 
d="M99 301h102v-102h-102v102zM299 301h102v-102h-102v102zM499 301h102v-102h-102v102z" />
    <glyph glyph-name="dotaccent" unicode="&#x2d9;" 
d="M99 301h102v-102h-102v102zM299 301h102v-102h-102v102zM499 301h102v-102h-102v102z" />
    <glyph glyph-name="ring" unicode="&#x2da;" 
d="M99 301h102v-102h-102v102zM299 301h102v-102h-102v102zM499 301h102v-102h-102v102z" />
    <glyph glyph-name="ogonek" unicode="&#x2db;" 
d="M99 301h102v-102h-102v102zM299 301h102v-102h-102v102zM499 301h102v-102h-102v102z" />
    <glyph glyph-name="tilde" unicode="&#x2dc;" 
d="M99 301h102v-102h-102v102zM299 301h102v-102h-102v102zM499 301h102v-102h-102v102z" />
    <glyph glyph-name="hungarumlaut" unicode="&#x2dd;" 
d="M99 301h102v-102h-102v102zM299 301h102v-102h-102v102zM499 301h102v-102h-102v102z" />
    <glyph glyph-name="Delta" unicode="&#x394;" 
d="M99 301h102v-102h-102v102zM299 301h102v-102h-102v102zM499 301h102v-102h-102v102z" />
    <glyph glyph-name="Omega" unicode="&#x3a9;" 
d="M99 301h102v-102h-102v102zM299 301h102v-102h-102v102zM499 301h102v-102h-102v102z" />
    <glyph glyph-name="mu" unicode="&#x3bc;" 
d="M99 301h102v-102h-102v102zM299 301h102v-102h-102v102zM499 301h102v-102h-102v102z" />
    <glyph glyph-name="pi" unicode="&#x3c0;" 
d="M99 301h102v-102h-102v102zM299 301h102v-102h-102v102zM499 301h102v-102h-102v102z" />
    <glyph glyph-name="endash" unicode="&#x2013;" 
d="M99 301h102v-102h-102v102zM299 301h102v-102h-102v102zM499 301h102v-102h-102v102z" />
    <glyph glyph-name="emdash" unicode="&#x2014;" 
d="M99 301h102v-102h-102v102zM299 301h102v-102h-102v102zM499 301h102v-102h-102v102z" />
    <glyph glyph-name="quoteleft" unicode="&#x2018;" 
d="M99 301h102v-102h-102v102zM299 301h102v-102h-102v102zM499 301h102v-102h-102v102z" />
    <glyph glyph-name="quoteright" unicode="&#x2019;" 
d="M99 301h102v-102h-102v102zM299 301h102v-102h-102v102zM499 301h102v-102h-102v102z" />
    <glyph glyph-name="quotesinglbase" unicode="&#x201a;" 
d="M99 301h102v-102h-102v102zM299 301h102v-102h-102v102zM499 301h102v-102h-102v102z" />
    <glyph glyph-name="quotedblleft" unicode="&#x201c;" 
d="M99 301h102v-102h-102v102zM299 301h102v-102h-102v102zM499 301h102v-102h-102v102z" />
    <glyph glyph-name="quotedblright" unicode="&#x201d;" 
d="M99 301h102v-102h-102v102zM299 301h102v-102h-102v102zM499 301h102v-102h-102v102z" />
    <glyph glyph-name="quotedblbase" unicode="&#x201e;" 
d="M99 301h102v-102h-102v102zM299 301h102v-102h-102v102zM499 301h102v-102h-102v102z" />
    <glyph glyph-name="dagger" unicode="&#x2020;" 
d="M99 301h102v-102h-102v102zM299 301h102v-102h-102v102zM499 301h102v-102h-102v102z" />
    <glyph glyph-name="daggerdbl" unicode="&#x2021;" 
d="M99 301h102v-102h-102v102zM299 301h102v-102h-102v102zM499 301h102v-102h-102v102z" />
    <glyph glyph-name="bullet" unicode="&#x2022;" 
d="M99 301h102v-102h-102v102zM299 301h102v-102h-102v102zM499 301h102v-102h-102v102z" />
    <glyph glyph-name="ellipsis" unicode="&#x2026;" 
d="M99 301h102v-102h-102v102zM299 301h102v-102h-102v102zM499 301h102v-102h-102v102z" />
    <glyph glyph-name="perthousand" unicode="&#x2030;" 
d="M99 301h102v-102h-102v102zM299 301h102v-102h-102v102zM499 301h102v-102h-102v102z" />
    <glyph glyph-name="guilsinglleft" unicode="&#x2039;" 
d="M99 301h102v-102h-102v102zM299 301h102v-102h-102v102zM499 301h102v-102h-102v102z" />
    <glyph glyph-name="guilsinglright" unicode="&#x203a;" 
d="M99 301h102v-102h-102v102zM299 301h102v-102h-102v102zM499 301h102v-102h-102v102z" />
    <glyph glyph-name="fraction" unicode="&#x2044;" 
d="M99 301h102v-102h-102v102zM299 301h102v-102h-102v102zM499 301h102v-102h-102v102z" />
    <glyph glyph-name="Euro" unicode="&#x20ac;" 
d="M99 301h102v-102h-102v102zM299 301h102v-102h-102v102zM499 301h102v-102h-102v102z" />
    <glyph glyph-name="trademark" unicode="&#x2122;" 
d="M99 301h102v-102h-102v102zM299 301h102v-102h-102v102zM499 301h102v-102h-102v102z" />
    <glyph glyph-name="partialdiff" unicode="&#x2202;" 
d="M99 301h102v-102h-102v102zM299 301h102v-102h-102v102zM499 301h102v-102h-102v102z" />
    <glyph glyph-name="product" unicode="&#x220f;" 
d="M99 301h102v-102h-102v102zM299 301h102v-102h-102v102zM499 301h102v-102h-102v102z" />
    <glyph glyph-name="summation" unicode="&#x2211;" 
d="M99 301h102v-102h-102v102zM299 301h102v-102h-102v102zM499 301h102v-102h-102v102z" />
    <glyph glyph-name="minus" unicode="&#x2212;" 
d="M99 301h102v-102h-102v102zM299 301h102v-102h-102v102zM499 301h102v-102h-102v102z" />
    <glyph glyph-name="radical" unicode="&#x221a;" 
d="M99 301h102v-102h-102v102zM299 301h102v-102h-102v102zM499 301h102v-102h-102v102z" />
    <glyph glyph-name="infinity" unicode="&#x221e;" 
d="M99 301h102v-102h-102v102zM299 301h102v-102h-102v102zM499 301h102v-102h-102v102z" />
    <glyph glyph-name="integral" unicode="&#x222b;" 
d="M99 301h102v-102h-102v102zM299 301h102v-102h-102v102zM499 301h102v-102h-102v102z" />
    <glyph glyph-name="approxequal" unicode="&#x2248;" 
d="M99 301h102v-102h-102v102zM299 301h102v-102h-102v102zM499 301h102v-102h-102v102z" />
    <glyph glyph-name="notequal" unicode="&#x2260;" 
d="M99 301h102v-102h-102v102zM299 301h102v-102h-102v102zM499 301h102v-102h-102v102z" />
    <glyph glyph-name="lessequal" unicode="&#x2264;" 
d="M99 301h102v-102h-102v102zM299 301h102v-102h-102v102zM499 301h102v-102h-102v102z" />
    <glyph glyph-name="greaterequal" unicode="&#x2265;" 
d="M99 301h102v-102h-102v102zM299 301h102v-102h-102v102zM499 301h102v-102h-102v102z" />
    <glyph glyph-name="uni2580" unicode="&#x2580;" horiz-adv-x="800" 
d="M-1 701h102v-102h-102v102zM99 701h102v-102h-102v102zM199 701h102v-102h-102v102zM299 701h102v-102h-102v102zM399 701h102v-102h-102v102zM499 701h102v-102h-102v102zM599 701h102v-102h-102v102zM699 701h102v-102h-102v102zM-1 601h102v-102h-102v102zM99 601h102
v-102h-102v102zM199 601h102v-102h-102v102zM299 601h102v-102h-102v102zM399 601h102v-102h-102v102zM499 601h102v-102h-102v102zM599 601h102v-102h-102v102zM699 601h102v-102h-102v102zM-1 501h102v-102h-102v102zM99 501h102v-102h-102v102zM199 501h102v-102h-102
v102zM299 501h102v-102h-102v102zM399 501h102v-102h-102v102zM499 501h102v-102h-102v102zM599 501h102v-102h-102v102zM699 501h102v-102h-102v102zM-1 401h102v-102h-102v102zM99 401h102v-102h-102v102zM199 401h102v-102h-102v102zM299 401h102v-102h-102v102zM399 401
h102v-102h-102v102zM499 401h102v-102h-102v102zM599 401h102v-102h-102v102zM699 401h102v-102h-102v102z" />
    <glyph glyph-name="uni2584" unicode="&#x2584;" horiz-adv-x="800" 
d="M-1 301h102v-102h-102v102zM99 301h102v-102h-102v102zM199 301h102v-102h-102v102zM299 301h102v-102h-102v102zM399 301h102v-102h-102v102zM499 301h102v-102h-102v102zM599 301h102v-102h-102v102zM699 301h102v-102h-102v102zM-1 201h102v-102h-102v102zM99 201h102
v-102h-102v102zM199 201h102v-102h-102v102zM299 201h102v-102h-102v102zM399 201h102v-102h-102v102zM499 201h102v-102h-102v102zM599 201h102v-102h-102v102zM699 201h102v-102h-102v102zM-1 101h102v-102h-102v102zM99 101h102v-102h-102v102zM199 101h102v-102h-102
v102zM299 101h102v-102h-102v102zM399 101h102v-102h-102v102zM499 101h102v-102h-102v102zM599 101h102v-102h-102v102zM699 101h102v-102h-102v102zM-1 1h102v-102h-102v102zM99 1h102v-102h-102v102zM199 1h102v-102h-102v102zM299 1h102v-102h-102v102zM399 1h102v-102
h-102v102zM499 1h102v-102h-102v102zM599 1h102v-102h-102v102zM699 1h102v-102h-102v102z" />
    <glyph glyph-name="uni2588" unicode="&#x2588;" horiz-adv-x="800" 
d="M-1 701h102v-102h-102v102zM99 701h102v-102h-102v102zM199 701h102v-102h-102v102zM299 701h102v-102h-102v102zM399 701h102v-102h-102v102zM499 701h102v-102h-102v102zM599 701h102v-102h-102v102zM699 701h102v-102h-102v102zM-1 601h102v-102h-102v102zM99 601h102
v-102h-102v102zM199 601h102v-102h-102v102zM299 601h102v-102h-102v102zM399 601h102v-102h-102v102zM499 601h102v-102h-102v102zM599 601h102v-102h-102v102zM699 601h102v-102h-102v102zM-1 501h102v-102h-102v102zM99 501h102v-102h-102v102zM199 501h102v-102h-102
v102zM299 501h102v-102h-102v102zM399 501h102v-102h-102v102zM499 501h102v-102h-102v102zM599 501h102v-102h-102v102zM699 501h102v-102h-102v102zM-1 401h102v-102h-102v102zM99 401h102v-102h-102v102zM199 401h102v-102h-102v102zM299 401h102v-102h-102v102zM399 401
h102v-102h-102v102zM499 401h102v-102h-102v102zM599 401h102v-102h-102v102zM699 401h102v-102h-102v102zM-1 301h102v-102h-102v102zM99 301h102v-102h-102v102zM199 301h102v-102h-102v102zM299 301h102v-102h-102v102zM399 301h102v-102h-102v102zM499 301h102v-102
h-102v102zM599 301h102v-102h-102v102zM699 301h102v-102h-102v102zM-1 201h102v-102h-102v102zM99 201h102v-102h-102v102zM199 201h102v-102h-102v102zM299 201h102v-102h-102v102zM399 201h102v-102h-102v102zM499 201h102v-102h-102v102zM599 201h102v-102h-102v102z
M699 201h102v-102h-102v102zM-1 101h102v-102h-102v102zM99 101h102v-102h-102v102zM199 101h102v-102h-102v102zM299 101h102v-102h-102v102zM399 101h102v-102h-102v102zM499 101h102v-102h-102v102zM599 101h102v-102h-102v102zM699 101h102v-102h-102v102zM-1 1h102
v-102h-102v102zM99 1h102v-102h-102v102zM199 1h102v-102h-102v102zM299 1h102v-102h-102v102zM399 1h102v-102h-102v102zM499 1h102v-102h-102v102zM599 1h102v-102h-102v102zM699 1h102v-102h-102v102z" />
    <glyph glyph-name="uni258C" unicode="&#x258c;" horiz-adv-x="800" 
d="M-1 701h102v-102h-102v102zM99 701h102v-102h-102v102zM199 701h102v-102h-102v102zM299 701h102v-102h-102v102zM-1 601h102v-102h-102v102zM99 601h102v-102h-102v102zM199 601h102v-102h-102v102zM299 601h102v-102h-102v102zM-1 501h102v-102h-102v102zM99 501h102
v-102h-102v102zM199 501h102v-102h-102v102zM299 501h102v-102h-102v102zM-1 401h102v-102h-102v102zM99 401h102v-102h-102v102zM199 401h102v-102h-102v102zM299 401h102v-102h-102v102zM-1 301h102v-102h-102v102zM99 301h102v-102h-102v102zM199 301h102v-102h-102v102z
M299 301h102v-102h-102v102zM-1 201h102v-102h-102v102zM99 201h102v-102h-102v102zM199 201h102v-102h-102v102zM299 201h102v-102h-102v102zM-1 101h102v-102h-102v102zM99 101h102v-102h-102v102zM199 101h102v-102h-102v102zM299 101h102v-102h-102v102zM-1 1h102v-102
h-102v102zM99 1h102v-102h-102v102zM199 1h102v-102h-102v102zM299 1h102v-102h-102v102z" />
    <glyph glyph-name="uni2590" unicode="&#x2590;" horiz-adv-x="800" 
d="M399 701h102v-102h-102v102zM499 701h102v-102h-102v102zM599 701h102v-102h-102v102zM699 701h102v-102h-102v102zM399 601h102v-102h-102v102zM499 601h102v-102h-102v102zM599 601h102v-102h-102v102zM699 601h102v-102h-102v102zM399 501h102v-102h-102v102zM499 501
h102v-102h-102v102zM599 501h102v-102h-102v102zM699 501h102v-102h-102v102zM399 401h102v-102h-102v102zM499 401h102v-102h-102v102zM599 401h102v-102h-102v102zM699 401h102v-102h-102v102zM399 301h102v-102h-102v102zM499 301h102v-102h-102v102zM599 301h102v-102
h-102v102zM699 301h102v-102h-102v102zM399 201h102v-102h-102v102zM499 201h102v-102h-102v102zM599 201h102v-102h-102v102zM699 201h102v-102h-102v102zM399 101h102v-102h-102v102zM499 101h102v-102h-102v102zM599 101h102v-102h-102v102zM699 101h102v-102h-102v102z
M399 1h102v-102h-102v102zM499 1h102v-102h-102v102zM599 1h102v-102h-102v102zM699 1h102v-102h-102v102z" />
    <glyph glyph-name="uni2596" unicode="&#x2596;" horiz-adv-x="800" 
d="M-1 301h102v-102h-102v102zM99 301h102v-102h-102v102zM199 301h102v-102h-102v102zM299 301h102v-102h-102v102zM-1 201h102v-102h-102v102zM99 201h102v-102h-102v102zM199 201h102v-102h-102v102zM299 201h102v-102h-102v102zM-1 101h102v-102h-102v102zM99 101h102
v-102h-102v102zM199 101h102v-102h-102v102zM299 101h102v-102h-102v102zM-1 1h102v-102h-102v102zM99 1h102v-102h-102v102zM199 1h102v-102h-102v102zM299 1h102v-102h-102v102z" />
    <glyph glyph-name="uni2597" unicode="&#x2597;" horiz-adv-x="800" 
d="M399 301h102v-102h-102v102zM499 301h102v-102h-102v102zM599 301h102v-102h-102v102zM699 301h102v-102h-102v102zM399 201h102v-102h-102v102zM499 201h102v-102h-102v102zM599 201h102v-102h-102v102zM699 201h102v-102h-102v102zM399 101h102v-102h-102v102zM499 101
h102v-102h-102v102zM599 101h102v-102h-102v102zM699 101h102v-102h-102v102zM399 1h102v-102h-102v102zM499 1h102v-102h-102v102zM599 1h102v-102h-102v102zM699 1h102v-102h-102v102z" />
    <glyph glyph-name="uni2598" unicode="&#x2598;" horiz-adv-x="800" 
d="M-1 701h102v-102h-102v102zM99 701h102v-102h-102v102zM199 701h102v-102h-102v102zM299 701h102v-102h-102v102zM-1 601h102v-102h-102v102zM99 601h102v-102h-102v102zM199 601h102v-102h-102v102zM299 601h102v-102h-102v102zM-1 501h102v-102h-102v102zM99 501h102
v-102h-102v102zM199 501h102v-102h-102v102zM299 501h102v-102h-102v102zM-1 401h102v-102h-102v102zM99 401h102v-102h-102v102zM199 401h102v-102h-102v102zM299 401h102v-102h-102v102z" />
    <glyph glyph-name="uni2599" unicode="&#x2599;" horiz-adv-x="800" 
d="M-1 701h102v-102h-102v102zM99 701h102v-102h-102v102zM199 701h102v-102h-102v102zM299 701h102v-102h-102v102zM-1 601h102v-102h-102v102zM99 601h102v-102h-102v102zM199 601h102v-102h-102v102zM299 601h102v-102h-102v102zM-1 501h102v-102h-102v102zM99 501h102
v-102h-102v102zM199 501h102v-102h-102v102zM299 501h102v-102h-102v102zM-1 401h102v-102h-102v102zM99 401h102v-102h-102v102zM199 401h102v-102h-102v102zM299 401h102v-102h-102v102zM-1 301h102v-102h-102v102zM99 301h102v-102h-102v102zM199 301h102v-102h-102v102z
M299 301h102v-102h-102v102zM399 301h102v-102h-102v102zM499 301h102v-102h-102v102zM599 301h102v-102h-102v102zM699 301h102v-102h-102v102zM-1 201h102v-102h-102v102zM99 201h102v-102h-102v102zM199 201h102v-102h-102v102zM299 201h102v-102h-102v102zM399 201h102
v-102h-102v102zM499 201h102v-102h-102v102zM599 201h102v-102h-102v102zM699 201h102v-102h-102v102zM-1 101h102v-102h-102v102zM99 101h102v-102h-102v102zM199 101h102v-102h-102v102zM299 101h102v-102h-102v102zM399 101h102v-102h-102v102zM499 101h102v-102h-102
v102zM599 101h102v-102h-102v102zM699 101h102v-102h-102v102zM-1 1h102v-102h-102v102zM99 1h102v-102h-102v102zM199 1h102v-102h-102v102zM299 1h102v-102h-102v102zM399 1h102v-102h-102v102zM499 1h102v-102h-102v102zM599 1h102v-102h-102v102zM699 1h102v-102h-102
v102z" />
    <glyph glyph-name="uni259A" unicode="&#x259a;" horiz-adv-x="800" 
d="M-1 701h102v-102h-102v102zM99 701h102v-102h-102v102zM199 701h102v-102h-102v102zM299 701h102v-102h-102v102zM-1 601h102v-102h-102v102zM99 601h102v-102h-102v102zM199 601h102v-102h-102v102zM299 601h102v-102h-102v102zM-1 501h102v-102h-102v102zM99 501h102
v-102h-102v102zM199 501h102v-102h-102v102zM299 501h102v-102h-102v102zM-1 401h102v-102h-102v102zM99 401h102v-102h-102v102zM199 401h102v-102h-102v102zM299 401h102v-102h-102v102zM399 301h102v-102h-102v102zM499 301h102v-102h-102v102zM599 301h102v-102h-102
v102zM699 301h102v-102h-102v102zM399 201h102v-102h-102v102zM499 201h102v-102h-102v102zM599 201h102v-102h-102v102zM699 201h102v-102h-102v102zM399 101h102v-102h-102v102zM499 101h102v-102h-102v102zM599 101h102v-102h-102v102zM699 101h102v-102h-102v102zM399 1
h102v-102h-102v102zM499 1h102v-102h-102v102zM599 1h102v-102h-102v102zM699 1h102v-102h-102v102z" />
    <glyph glyph-name="uni259B" unicode="&#x259b;" horiz-adv-x="800" 
d="M-1 701h102v-102h-102v102zM99 701h102v-102h-102v102zM199 701h102v-102h-102v102zM299 701h102v-102h-102v102zM399 701h102v-102h-102v102zM499 701h102v-102h-102v102zM599 701h102v-102h-102v102zM699 701h102v-102h-102v102zM-1 601h102v-102h-102v102zM99 601h102
v-102h-102v102zM199 601h102v-102h-102v102zM299 601h102v-102h-102v102zM399 601h102v-102h-102v102zM499 601h102v-102h-102v102zM599 601h102v-102h-102v102zM699 601h102v-102h-102v102zM-1 501h102v-102h-102v102zM99 501h102v-102h-102v102zM199 501h102v-102h-102
v102zM299 501h102v-102h-102v102zM399 501h102v-102h-102v102zM499 501h102v-102h-102v102zM599 501h102v-102h-102v102zM699 501h102v-102h-102v102zM-1 401h102v-102h-102v102zM99 401h102v-102h-102v102zM199 401h102v-102h-102v102zM299 401h102v-102h-102v102zM399 401
h102v-102h-102v102zM499 401h102v-102h-102v102zM599 401h102v-102h-102v102zM699 401h102v-102h-102v102zM-1 301h102v-102h-102v102zM99 301h102v-102h-102v102zM199 301h102v-102h-102v102zM299 301h102v-102h-102v102zM-1 201h102v-102h-102v102zM99 201h102v-102h-102
v102zM199 201h102v-102h-102v102zM299 201h102v-102h-102v102zM-1 101h102v-102h-102v102zM99 101h102v-102h-102v102zM199 101h102v-102h-102v102zM299 101h102v-102h-102v102zM-1 1h102v-102h-102v102zM99 1h102v-102h-102v102zM199 1h102v-102h-102v102zM299 1h102v-102
h-102v102z" />
    <glyph glyph-name="uni259C" unicode="&#x259c;" horiz-adv-x="800" 
d="M-1 701h102v-102h-102v102zM99 701h102v-102h-102v102zM199 701h102v-102h-102v102zM299 701h102v-102h-102v102zM399 701h102v-102h-102v102zM499 701h102v-102h-102v102zM599 701h102v-102h-102v102zM699 701h102v-102h-102v102zM-1 601h102v-102h-102v102zM99 601h102
v-102h-102v102zM199 601h102v-102h-102v102zM299 601h102v-102h-102v102zM399 601h102v-102h-102v102zM499 601h102v-102h-102v102zM599 601h102v-102h-102v102zM699 601h102v-102h-102v102zM-1 501h102v-102h-102v102zM99 501h102v-102h-102v102zM199 501h102v-102h-102
v102zM299 501h102v-102h-102v102zM399 501h102v-102h-102v102zM499 501h102v-102h-102v102zM599 501h102v-102h-102v102zM699 501h102v-102h-102v102zM-1 401h102v-102h-102v102zM99 401h102v-102h-102v102zM199 401h102v-102h-102v102zM299 401h102v-102h-102v102zM399 401
h102v-102h-102v102zM499 401h102v-102h-102v102zM599 401h102v-102h-102v102zM699 401h102v-102h-102v102zM399 301h102v-102h-102v102zM499 301h102v-102h-102v102zM599 301h102v-102h-102v102zM699 301h102v-102h-102v102zM399 201h102v-102h-102v102zM499 201h102v-102
h-102v102zM599 201h102v-102h-102v102zM699 201h102v-102h-102v102zM399 101h102v-102h-102v102zM499 101h102v-102h-102v102zM599 101h102v-102h-102v102zM699 101h102v-102h-102v102zM399 1h102v-102h-102v102zM499 1h102v-102h-102v102zM599 1h102v-102h-102v102zM699 1
h102v-102h-102v102z" />
    <glyph glyph-name="uni259D" unicode="&#x259d;" horiz-adv-x="800" 
d="M399 701h102v-102h-102v102zM499 701h102v-102h-102v102zM599 701h102v-102h-102v102zM699 701h102v-102h-102v102zM399 601h102v-102h-102v102zM499 601h102v-102h-102v102zM599 601h102v-102h-102v102zM699 601h102v-102h-102v102zM399 501h102v-102h-102v102zM499 501
h102v-102h-102v102zM599 501h102v-102h-102v102zM699 501h102v-102h-102v102zM399 401h102v-102h-102v102zM499 401h102v-102h-102v102zM599 401h102v-102h-102v102zM699 401h102v-102h-102v102z" />
    <glyph glyph-name="uni259E" unicode="&#x259e;" horiz-adv-x="800" 
d="M399 701h102v-102h-102v102zM499 701h102v-102h-102v102zM599 701h102v-102h-102v102zM699 701h102v-102h-102v102zM399 601h102v-102h-102v102zM499 601h102v-102h-102v102zM599 601h102v-102h-102v102zM699 601h102v-102h-102v102zM399 501h102v-102h-102v102zM499 501
h102v-102h-102v102zM599 501h102v-102h-102v102zM699 501h102v-102h-102v102zM399 401h102v-102h-102v102zM499 401h102v-102h-102v102zM599 401h102v-102h-102v102zM699 401h102v-102h-102v102zM-1 301h102v-102h-102v102zM99 301h102v-102h-102v102zM199 301h102v-102
h-102v102zM299 301h102v-102h-102v102zM-1 201h102v-102h-102v102zM99 201h102v-102h-102v102zM199 201h102v-102h-102v102zM299 201h102v-102h-102v102zM-1 101h102v-102h-102v102zM99 101h102v-102h-102v102zM199 101h102v-102h-102v102zM299 101h102v-102h-102v102zM-1 1
h102v-102h-102v102zM99 1h102v-102h-102v102zM199 1h102v-102h-102v102zM299 1h102v-102h-102v102z" />
    <glyph glyph-name="uni259F" unicode="&#x259f;" horiz-adv-x="800" 
d="M399 701h102v-102h-102v102zM499 701h102v-102h-102v102zM599 701h102v-102h-102v102zM699 701h102v-102h-102v102zM399 601h102v-102h-102v102zM499 601h102v-102h-102v102zM599 601h102v-102h-102v102zM699 601h102v-102h-102v102zM399 501h102v-102h-102v102zM499 501
h102v-102h-102v102zM599 501h102v-102h-102v102zM699 501h102v-102h-102v102zM399 401h102v-102h-102v102zM499 401h102v-102h-102v102zM599 401h102v-102h-102v102zM699 401h102v-102h-102v102zM-1 301h102v-102h-102v102zM99 301h102v-102h-102v102zM199 301h102v-102
h-102v102zM299 301h102v-102h-102v102zM399 301h102v-102h-102v102zM499 301h102v-102h-102v102zM599 301h102v-102h-102v102zM699 301h102v-102h-102v102zM-1 201h102v-102h-102v102zM99 201h102v-102h-102v102zM199 201h102v-102h-102v102zM299 201h102v-102h-102v102z
M399 201h102v-102h-102v102zM499 201h102v-102h-102v102zM599 201h102v-102h-102v102zM699 201h102v-102h-102v102zM-1 101h102v-102h-102v102zM99 101h102v-102h-102v102zM199 101h102v-102h-102v102zM299 101h102v-102h-102v102zM399 101h102v-102h-102v102zM499 101h102
v-102h-102v102zM599 101h102v-102h-102v102zM699 101h102v-102h-102v102zM-1 1h102v-102h-102v102zM99 1h102v-102h-102v102zM199 1h102v-102h-102v102zM299 1h102v-102h-102v102zM399 1h102v-102h-102v102zM499 1h102v-102h-102v102zM599 1h102v-102h-102v102zM699 1h102
v-102h-102v102z" />
    <glyph glyph-name="lozenge" unicode="&#x25ca;" 
d="M99 301h102v-102h-102v102zM299 301h102v-102h-102v102zM499 301h102v-102h-102v102z" />
    <glyph glyph-name="uniF100" unicode="&#xf100;" horiz-adv-x="800" 
d="M0 0v0v0v0v0z" />
    <glyph glyph-name="uniF110" unicode="&#xf110;" horiz-adv-x="800" 
d="M-1 701h102v-102h-102v102zM99 701h102v-102h-102v102zM199 701h102v-102h-102v102zM299 701h102v-102h-102v102zM399 701h102v-102h-102v102zM499 701h102v-102h-102v102zM599 701h102v-102h-102v102zM699 701h102v-102h-102v102zM-1 601h102v-102h-102v102zM99 601h102
v-102h-102v102zM599 601h102v-102h-102v102zM699 601h102v-102h-102v102zM-1 501h102v-102h-102v102zM199 501h102v-102h-102v102zM299 501h102v-102h-102v102zM399 501h102v-102h-102v102zM499 501h102v-102h-102v102zM699 501h102v-102h-102v102zM-1 401h102v-102h-102
v102zM199 401h102v-102h-102v102zM299 401h102v-102h-102v102zM399 401h102v-102h-102v102zM499 401h102v-102h-102v102zM699 401h102v-102h-102v102zM-1 301h102v-102h-102v102zM699 301h102v-102h-102v102zM-1 201h102v-102h-102v102zM199 201h102v-102h-102v102zM299 201
h102v-102h-102v102zM399 201h102v-102h-102v102zM499 201h102v-102h-102v102zM699 201h102v-102h-102v102zM-1 101h102v-102h-102v102zM199 101h102v-102h-102v102zM299 101h102v-102h-102v102zM399 101h102v-102h-102v102zM499 101h102v-102h-102v102zM699 101h102v-102
h-102v102zM-1 1h102v-102h-102v102zM99 1h102v-102h-102v102zM199 1h102v-102h-102v102zM299 1h102v-102h-102v102zM399 1h102v-102h-102v102zM499 1h102v-102h-102v102zM599 1h102v-102h-102v102zM699 1h102v-102h-102v102z" />
    <glyph glyph-name="uniF111" unicode="&#xf111;" horiz-adv-x="800" 
d="M-1 701h102v-102h-102v102zM99 701h102v-102h-102v102zM199 701h102v-102h-102v102zM299 701h102v-102h-102v102zM399 701h102v-102h-102v102zM499 701h102v-102h-102v102zM599 701h102v-102h-102v102zM699 701h102v-102h-102v102zM-1 601h102v-102h-102v102zM599 601
h102v-102h-102v102zM699 601h102v-102h-102v102zM-1 501h102v-102h-102v102zM199 501h102v-102h-102v102zM299 501h102v-102h-102v102zM399 501h102v-102h-102v102zM499 501h102v-102h-102v102zM699 501h102v-102h-102v102zM-1 401h102v-102h-102v102zM599 401h102v-102
h-102v102zM699 401h102v-102h-102v102zM-1 301h102v-102h-102v102zM199 301h102v-102h-102v102zM299 301h102v-102h-102v102zM399 301h102v-102h-102v102zM499 301h102v-102h-102v102zM699 301h102v-102h-102v102zM-1 201h102v-102h-102v102zM199 201h102v-102h-102v102z
M299 201h102v-102h-102v102zM399 201h102v-102h-102v102zM499 201h102v-102h-102v102zM699 201h102v-102h-102v102zM-1 101h102v-102h-102v102zM599 101h102v-102h-102v102zM699 101h102v-102h-102v102zM-1 1h102v-102h-102v102zM99 1h102v-102h-102v102zM199 1h102v-102
h-102v102zM299 1h102v-102h-102v102zM399 1h102v-102h-102v102zM499 1h102v-102h-102v102zM599 1h102v-102h-102v102zM699 1h102v-102h-102v102z" />
    <glyph glyph-name="uniF112" unicode="&#xf112;" horiz-adv-x="800" 
d="M-1 701h102v-102h-102v102zM99 701h102v-102h-102v102zM199 701h102v-102h-102v102zM299 701h102v-102h-102v102zM399 701h102v-102h-102v102zM499 701h102v-102h-102v102zM599 701h102v-102h-102v102zM699 701h102v-102h-102v102zM-1 601h102v-102h-102v102zM99 601h102
v-102h-102v102zM599 601h102v-102h-102v102zM699 601h102v-102h-102v102zM-1 501h102v-102h-102v102zM199 501h102v-102h-102v102zM299 501h102v-102h-102v102zM399 501h102v-102h-102v102zM499 501h102v-102h-102v102zM699 501h102v-102h-102v102zM-1 401h102v-102h-102
v102zM199 401h102v-102h-102v102zM299 401h102v-102h-102v102zM399 401h102v-102h-102v102zM499 401h102v-102h-102v102zM599 401h102v-102h-102v102zM699 401h102v-102h-102v102zM-1 301h102v-102h-102v102zM199 301h102v-102h-102v102zM299 301h102v-102h-102v102z
M399 301h102v-102h-102v102zM499 301h102v-102h-102v102zM599 301h102v-102h-102v102zM699 301h102v-102h-102v102zM-1 201h102v-102h-102v102zM199 201h102v-102h-102v102zM299 201h102v-102h-102v102zM399 201h102v-102h-102v102zM499 201h102v-102h-102v102zM699 201h102
v-102h-102v102zM-1 101h102v-102h-102v102zM99 101h102v-102h-102v102zM599 101h102v-102h-102v102zM699 101h102v-102h-102v102zM-1 1h102v-102h-102v102zM99 1h102v-102h-102v102zM199 1h102v-102h-102v102zM299 1h102v-102h-102v102zM399 1h102v-102h-102v102zM499 1h102
v-102h-102v102zM599 1h102v-102h-102v102zM699 1h102v-102h-102v102z" />
    <glyph glyph-name="uniF113" unicode="&#xf113;" horiz-adv-x="800" 
d="M-1 701h102v-102h-102v102zM99 701h102v-102h-102v102zM199 701h102v-102h-102v102zM299 701h102v-102h-102v102zM399 701h102v-102h-102v102zM499 701h102v-102h-102v102zM599 701h102v-102h-102v102zM699 701h102v-102h-102v102zM-1 601h102v-102h-102v102zM499 601
h102v-102h-102v102zM599 601h102v-102h-102v102zM699 601h102v-102h-102v102zM-1 501h102v-102h-102v102zM199 501h102v-102h-102v102zM299 501h102v-102h-102v102zM399 501h102v-102h-102v102zM599 501h102v-102h-102v102zM699 501h102v-102h-102v102zM-1 401h102v-102
h-102v102zM199 401h102v-102h-102v102zM299 401h102v-102h-102v102zM399 401h102v-102h-102v102zM499 401h102v-102h-102v102zM699 401h102v-102h-102v102zM-1 301h102v-102h-102v102zM199 301h102v-102h-102v102zM299 301h102v-102h-102v102zM399 301h102v-102h-102v102z
M499 301h102v-102h-102v102zM699 301h102v-102h-102v102zM-1 201h102v-102h-102v102zM199 201h102v-102h-102v102zM299 201h102v-102h-102v102zM399 201h102v-102h-102v102zM599 201h102v-102h-102v102zM699 201h102v-102h-102v102zM-1 101h102v-102h-102v102zM499 101h102
v-102h-102v102zM599 101h102v-102h-102v102zM699 101h102v-102h-102v102zM-1 1h102v-102h-102v102zM99 1h102v-102h-102v102zM199 1h102v-102h-102v102zM299 1h102v-102h-102v102zM399 1h102v-102h-102v102zM499 1h102v-102h-102v102zM599 1h102v-102h-102v102zM699 1h102
v-102h-102v102z" />
    <glyph glyph-name="uniF114" unicode="&#xf114;" horiz-adv-x="800" 
d="M-1 701h102v-102h-102v102zM99 701h102v-102h-102v102zM199 701h102v-102h-102v102zM299 701h102v-102h-102v102zM399 701h102v-102h-102v102zM499 701h102v-102h-102v102zM599 701h102v-102h-102v102zM699 701h102v-102h-102v102zM-1 601h102v-102h-102v102zM699 601
h102v-102h-102v102zM-1 501h102v-102h-102v102zM199 501h102v-102h-102v102zM299 501h102v-102h-102v102zM399 501h102v-102h-102v102zM499 501h102v-102h-102v102zM599 501h102v-102h-102v102zM699 501h102v-102h-102v102zM-1 401h102v-102h-102v102zM599 401h102v-102
h-102v102zM699 401h102v-102h-102v102zM-1 301h102v-102h-102v102zM199 301h102v-102h-102v102zM299 301h102v-102h-102v102zM399 301h102v-102h-102v102zM499 301h102v-102h-102v102zM599 301h102v-102h-102v102zM699 301h102v-102h-102v102zM-1 201h102v-102h-102v102z
M199 201h102v-102h-102v102zM299 201h102v-102h-102v102zM399 201h102v-102h-102v102zM499 201h102v-102h-102v102zM599 201h102v-102h-102v102zM699 201h102v-102h-102v102zM-1 101h102v-102h-102v102zM699 101h102v-102h-102v102zM-1 1h102v-102h-102v102zM99 1h102v-102
h-102v102zM199 1h102v-102h-102v102zM299 1h102v-102h-102v102zM399 1h102v-102h-102v102zM499 1h102v-102h-102v102zM599 1h102v-102h-102v102zM699 1h102v-102h-102v102z" />
    <glyph glyph-name="uniF115" unicode="&#xf115;" horiz-adv-x="800" 
d="M-1 701h102v-102h-102v102zM99 701h102v-102h-102v102zM199 701h102v-102h-102v102zM299 701h102v-102h-102v102zM399 701h102v-102h-102v102zM499 701h102v-102h-102v102zM599 701h102v-102h-102v102zM699 701h102v-102h-102v102zM-1 601h102v-102h-102v102zM699 601
h102v-102h-102v102zM-1 501h102v-102h-102v102zM199 501h102v-102h-102v102zM299 501h102v-102h-102v102zM399 501h102v-102h-102v102zM499 501h102v-102h-102v102zM599 501h102v-102h-102v102zM699 501h102v-102h-102v102zM-1 401h102v-102h-102v102zM599 401h102v-102
h-102v102zM699 401h102v-102h-102v102zM-1 301h102v-102h-102v102zM199 301h102v-102h-102v102zM299 301h102v-102h-102v102zM399 301h102v-102h-102v102zM499 301h102v-102h-102v102zM599 301h102v-102h-102v102zM699 301h102v-102h-102v102zM-1 201h102v-102h-102v102z
M199 201h102v-102h-102v102zM299 201h102v-102h-102v102zM399 201h102v-102h-102v102zM499 201h102v-102h-102v102zM599 201h102v-102h-102v102zM699 201h102v-102h-102v102zM-1 101h102v-102h-102v102zM199 101h102v-102h-102v102zM299 101h102v-102h-102v102zM399 101h102
v-102h-102v102zM499 101h102v-102h-102v102zM599 101h102v-102h-102v102zM699 101h102v-102h-102v102zM-1 1h102v-102h-102v102zM99 1h102v-102h-102v102zM199 1h102v-102h-102v102zM299 1h102v-102h-102v102zM399 1h102v-102h-102v102zM499 1h102v-102h-102v102zM599 1h102
v-102h-102v102zM699 1h102v-102h-102v102z" />
    <glyph glyph-name="uniF116" unicode="&#xf116;" horiz-adv-x="800" 
d="M-1 701h102v-102h-102v102zM99 701h102v-102h-102v102zM199 701h102v-102h-102v102zM299 701h102v-102h-102v102zM399 701h102v-102h-102v102zM499 701h102v-102h-102v102zM599 701h102v-102h-102v102zM699 701h102v-102h-102v102zM-1 601h102v-102h-102v102zM99 601h102
v-102h-102v102zM599 601h102v-102h-102v102zM699 601h102v-102h-102v102zM-1 501h102v-102h-102v102zM199 501h102v-102h-102v102zM299 501h102v-102h-102v102zM399 501h102v-102h-102v102zM499 501h102v-102h-102v102zM699 501h102v-102h-102v102zM-1 401h102v-102h-102
v102zM199 401h102v-102h-102v102zM299 401h102v-102h-102v102zM399 401h102v-102h-102v102zM499 401h102v-102h-102v102zM599 401h102v-102h-102v102zM699 401h102v-102h-102v102zM-1 301h102v-102h-102v102zM199 301h102v-102h-102v102zM299 301h102v-102h-102v102z
M699 301h102v-102h-102v102zM-1 201h102v-102h-102v102zM199 201h102v-102h-102v102zM299 201h102v-102h-102v102zM399 201h102v-102h-102v102zM499 201h102v-102h-102v102zM699 201h102v-102h-102v102zM-1 101h102v-102h-102v102zM99 101h102v-102h-102v102zM599 101h102
v-102h-102v102zM699 101h102v-102h-102v102zM-1 1h102v-102h-102v102zM99 1h102v-102h-102v102zM199 1h102v-102h-102v102zM299 1h102v-102h-102v102zM399 1h102v-102h-102v102zM499 1h102v-102h-102v102zM599 1h102v-102h-102v102zM699 1h102v-102h-102v102z" />
    <glyph glyph-name="uniF117" unicode="&#xf117;" horiz-adv-x="800" 
d="M-1 701h102v-102h-102v102zM99 701h102v-102h-102v102zM199 701h102v-102h-102v102zM299 701h102v-102h-102v102zM399 701h102v-102h-102v102zM499 701h102v-102h-102v102zM599 701h102v-102h-102v102zM699 701h102v-102h-102v102zM-1 601h102v-102h-102v102zM199 601
h102v-102h-102v102zM299 601h102v-102h-102v102zM399 601h102v-102h-102v102zM499 601h102v-102h-102v102zM699 601h102v-102h-102v102zM-1 501h102v-102h-102v102zM199 501h102v-102h-102v102zM299 501h102v-102h-102v102zM399 501h102v-102h-102v102zM499 501h102v-102
h-102v102zM699 501h102v-102h-102v102zM-1 401h102v-102h-102v102zM699 401h102v-102h-102v102zM-1 301h102v-102h-102v102zM199 301h102v-102h-102v102zM299 301h102v-102h-102v102zM399 301h102v-102h-102v102zM499 301h102v-102h-102v102zM699 301h102v-102h-102v102z
M-1 201h102v-102h-102v102zM199 201h102v-102h-102v102zM299 201h102v-102h-102v102zM399 201h102v-102h-102v102zM499 201h102v-102h-102v102zM699 201h102v-102h-102v102zM-1 101h102v-102h-102v102zM199 101h102v-102h-102v102zM299 101h102v-102h-102v102zM399 101h102
v-102h-102v102zM499 101h102v-102h-102v102zM699 101h102v-102h-102v102zM-1 1h102v-102h-102v102zM99 1h102v-102h-102v102zM199 1h102v-102h-102v102zM299 1h102v-102h-102v102zM399 1h102v-102h-102v102zM499 1h102v-102h-102v102zM599 1h102v-102h-102v102zM699 1h102
v-102h-102v102z" />
    <glyph glyph-name="uniF118" unicode="&#xf118;" horiz-adv-x="800" 
d="M-1 701h102v-102h-102v102zM99 701h102v-102h-102v102zM199 701h102v-102h-102v102zM299 701h102v-102h-102v102zM399 701h102v-102h-102v102zM499 701h102v-102h-102v102zM599 701h102v-102h-102v102zM699 701h102v-102h-102v102zM-1 601h102v-102h-102v102zM99 601h102
v-102h-102v102zM699 601h102v-102h-102v102zM-1 501h102v-102h-102v102zM99 501h102v-102h-102v102zM199 501h102v-102h-102v102zM299 501h102v-102h-102v102zM499 501h102v-102h-102v102zM599 501h102v-102h-102v102zM699 501h102v-102h-102v102zM-1 401h102v-102h-102v102
zM99 401h102v-102h-102v102zM199 401h102v-102h-102v102zM299 401h102v-102h-102v102zM499 401h102v-102h-102v102zM599 401h102v-102h-102v102zM699 401h102v-102h-102v102zM-1 301h102v-102h-102v102zM99 301h102v-102h-102v102zM199 301h102v-102h-102v102zM299 301h102
v-102h-102v102zM499 301h102v-102h-102v102zM599 301h102v-102h-102v102zM699 301h102v-102h-102v102zM-1 201h102v-102h-102v102zM99 201h102v-102h-102v102zM199 201h102v-102h-102v102zM299 201h102v-102h-102v102zM499 201h102v-102h-102v102zM599 201h102v-102h-102
v102zM699 201h102v-102h-102v102zM-1 101h102v-102h-102v102zM99 101h102v-102h-102v102zM699 101h102v-102h-102v102zM-1 1h102v-102h-102v102zM99 1h102v-102h-102v102zM199 1h102v-102h-102v102zM299 1h102v-102h-102v102zM399 1h102v-102h-102v102zM499 1h102v-102h-102
v102zM599 1h102v-102h-102v102zM699 1h102v-102h-102v102z" />
    <glyph glyph-name="uniF119" unicode="&#xf119;" horiz-adv-x="800" 
d="M-1 701h102v-102h-102v102zM99 701h102v-102h-102v102zM199 701h102v-102h-102v102zM299 701h102v-102h-102v102zM399 701h102v-102h-102v102zM499 701h102v-102h-102v102zM599 701h102v-102h-102v102zM699 701h102v-102h-102v102zM-1 601h102v-102h-102v102zM99 601h102
v-102h-102v102zM199 601h102v-102h-102v102zM299 601h102v-102h-102v102zM399 601h102v-102h-102v102zM499 601h102v-102h-102v102zM699 601h102v-102h-102v102zM-1 501h102v-102h-102v102zM99 501h102v-102h-102v102zM199 501h102v-102h-102v102zM299 501h102v-102h-102
v102zM399 501h102v-102h-102v102zM499 501h102v-102h-102v102zM699 501h102v-102h-102v102zM-1 401h102v-102h-102v102zM99 401h102v-102h-102v102zM199 401h102v-102h-102v102zM299 401h102v-102h-102v102zM399 401h102v-102h-102v102zM499 401h102v-102h-102v102zM699 401
h102v-102h-102v102zM-1 301h102v-102h-102v102zM199 301h102v-102h-102v102zM299 301h102v-102h-102v102zM399 301h102v-102h-102v102zM499 301h102v-102h-102v102zM699 301h102v-102h-102v102zM-1 201h102v-102h-102v102zM199 201h102v-102h-102v102zM299 201h102v-102
h-102v102zM399 201h102v-102h-102v102zM499 201h102v-102h-102v102zM699 201h102v-102h-102v102zM-1 101h102v-102h-102v102zM99 101h102v-102h-102v102zM599 101h102v-102h-102v102zM699 101h102v-102h-102v102zM-1 1h102v-102h-102v102zM99 1h102v-102h-102v102zM199 1
h102v-102h-102v102zM299 1h102v-102h-102v102zM399 1h102v-102h-102v102zM499 1h102v-102h-102v102zM599 1h102v-102h-102v102zM699 1h102v-102h-102v102z" />
    <glyph glyph-name="uniF11A" unicode="&#xf11a;" horiz-adv-x="800" 
d="M-1 701h102v-102h-102v102zM99 701h102v-102h-102v102zM199 701h102v-102h-102v102zM299 701h102v-102h-102v102zM399 701h102v-102h-102v102zM499 701h102v-102h-102v102zM599 701h102v-102h-102v102zM699 701h102v-102h-102v102zM-1 601h102v-102h-102v102zM199 601
h102v-102h-102v102zM299 601h102v-102h-102v102zM399 601h102v-102h-102v102zM599 601h102v-102h-102v102zM699 601h102v-102h-102v102zM-1 501h102v-102h-102v102zM199 501h102v-102h-102v102zM299 501h102v-102h-102v102zM499 501h102v-102h-102v102zM599 501h102v-102
h-102v102zM699 501h102v-102h-102v102zM-1 401h102v-102h-102v102zM399 401h102v-102h-102v102zM499 401h102v-102h-102v102zM599 401h102v-102h-102v102zM699 401h102v-102h-102v102zM-1 301h102v-102h-102v102zM199 301h102v-102h-102v102zM299 301h102v-102h-102v102z
M499 301h102v-102h-102v102zM599 301h102v-102h-102v102zM699 301h102v-102h-102v102zM-1 201h102v-102h-102v102zM199 201h102v-102h-102v102zM299 201h102v-102h-102v102zM399 201h102v-102h-102v102zM599 201h102v-102h-102v102zM699 201h102v-102h-102v102zM-1 101h102
v-102h-102v102zM199 101h102v-102h-102v102zM299 101h102v-102h-102v102zM399 101h102v-102h-102v102zM499 101h102v-102h-102v102zM699 101h102v-102h-102v102zM-1 1h102v-102h-102v102zM99 1h102v-102h-102v102zM199 1h102v-102h-102v102zM299 1h102v-102h-102v102zM399 1
h102v-102h-102v102zM499 1h102v-102h-102v102zM599 1h102v-102h-102v102zM699 1h102v-102h-102v102z" />
    <glyph glyph-name="uniF11B" unicode="&#xf11b;" horiz-adv-x="800" 
d="M-1 701h102v-102h-102v102zM99 701h102v-102h-102v102zM199 701h102v-102h-102v102zM299 701h102v-102h-102v102zM399 701h102v-102h-102v102zM499 701h102v-102h-102v102zM599 701h102v-102h-102v102zM699 701h102v-102h-102v102zM-1 601h102v-102h-102v102zM199 601
h102v-102h-102v102zM299 601h102v-102h-102v102zM399 601h102v-102h-102v102zM499 601h102v-102h-102v102zM599 601h102v-102h-102v102zM699 601h102v-102h-102v102zM-1 501h102v-102h-102v102zM199 501h102v-102h-102v102zM299 501h102v-102h-102v102zM399 501h102v-102
h-102v102zM499 501h102v-102h-102v102zM599 501h102v-102h-102v102zM699 501h102v-102h-102v102zM-1 401h102v-102h-102v102zM199 401h102v-102h-102v102zM299 401h102v-102h-102v102zM399 401h102v-102h-102v102zM499 401h102v-102h-102v102zM599 401h102v-102h-102v102z
M699 401h102v-102h-102v102zM-1 301h102v-102h-102v102zM199 301h102v-102h-102v102zM299 301h102v-102h-102v102zM399 301h102v-102h-102v102zM499 301h102v-102h-102v102zM599 301h102v-102h-102v102zM699 301h102v-102h-102v102zM-1 201h102v-102h-102v102zM199 201h102
v-102h-102v102zM299 201h102v-102h-102v102zM399 201h102v-102h-102v102zM499 201h102v-102h-102v102zM599 201h102v-102h-102v102zM699 201h102v-102h-102v102zM-1 101h102v-102h-102v102zM699 101h102v-102h-102v102zM-1 1h102v-102h-102v102zM99 1h102v-102h-102v102z
M199 1h102v-102h-102v102zM299 1h102v-102h-102v102zM399 1h102v-102h-102v102zM499 1h102v-102h-102v102zM599 1h102v-102h-102v102zM699 1h102v-102h-102v102z" />
    <glyph glyph-name="uniF11C" unicode="&#xf11c;" horiz-adv-x="800" 
d="M-1 701h102v-102h-102v102zM99 701h102v-102h-102v102zM199 701h102v-102h-102v102zM299 701h102v-102h-102v102zM399 701h102v-102h-102v102zM499 701h102v-102h-102v102zM599 701h102v-102h-102v102zM699 701h102v-102h-102v102zM-1 601h102v-102h-102v102zM199 601
h102v-102h-102v102zM299 601h102v-102h-102v102zM399 601h102v-102h-102v102zM499 601h102v-102h-102v102zM699 601h102v-102h-102v102zM-1 501h102v-102h-102v102zM299 501h102v-102h-102v102zM399 501h102v-102h-102v102zM699 501h102v-102h-102v102zM-1 401h102v-102
h-102v102zM199 401h102v-102h-102v102zM499 401h102v-102h-102v102zM699 401h102v-102h-102v102zM-1 301h102v-102h-102v102zM199 301h102v-102h-102v102zM299 301h102v-102h-102v102zM399 301h102v-102h-102v102zM499 301h102v-102h-102v102zM699 301h102v-102h-102v102z
M-1 201h102v-102h-102v102zM199 201h102v-102h-102v102zM299 201h102v-102h-102v102zM399 201h102v-102h-102v102zM499 201h102v-102h-102v102zM699 201h102v-102h-102v102zM-1 101h102v-102h-102v102zM199 101h102v-102h-102v102zM299 101h102v-102h-102v102zM399 101h102
v-102h-102v102zM499 101h102v-102h-102v102zM699 101h102v-102h-102v102zM-1 1h102v-102h-102v102zM99 1h102v-102h-102v102zM199 1h102v-102h-102v102zM299 1h102v-102h-102v102zM399 1h102v-102h-102v102zM499 1h102v-102h-102v102zM599 1h102v-102h-102v102zM699 1h102
v-102h-102v102z" />
    <glyph glyph-name="uniF11D" unicode="&#xf11d;" horiz-adv-x="800" 
d="M-1 701h102v-102h-102v102zM99 701h102v-102h-102v102zM199 701h102v-102h-102v102zM299 701h102v-102h-102v102zM399 701h102v-102h-102v102zM499 701h102v-102h-102v102zM599 701h102v-102h-102v102zM699 701h102v-102h-102v102zM-1 601h102v-102h-102v102zM199 601
h102v-102h-102v102zM299 601h102v-102h-102v102zM399 601h102v-102h-102v102zM499 601h102v-102h-102v102zM699 601h102v-102h-102v102zM-1 501h102v-102h-102v102zM299 501h102v-102h-102v102zM399 501h102v-102h-102v102zM499 501h102v-102h-102v102zM699 501h102v-102
h-102v102zM-1 401h102v-102h-102v102zM199 401h102v-102h-102v102zM399 401h102v-102h-102v102zM499 401h102v-102h-102v102zM699 401h102v-102h-102v102zM-1 301h102v-102h-102v102zM199 301h102v-102h-102v102zM299 301h102v-102h-102v102zM499 301h102v-102h-102v102z
M699 301h102v-102h-102v102zM-1 201h102v-102h-102v102zM199 201h102v-102h-102v102zM299 201h102v-102h-102v102zM399 201h102v-102h-102v102zM699 201h102v-102h-102v102zM-1 101h102v-102h-102v102zM199 101h102v-102h-102v102zM299 101h102v-102h-102v102zM399 101h102
v-102h-102v102zM499 101h102v-102h-102v102zM699 101h102v-102h-102v102zM-1 1h102v-102h-102v102zM99 1h102v-102h-102v102zM199 1h102v-102h-102v102zM299 1h102v-102h-102v102zM399 1h102v-102h-102v102zM499 1h102v-102h-102v102zM599 1h102v-102h-102v102zM699 1h102
v-102h-102v102z" />
    <glyph glyph-name="uniF11E" unicode="&#xf11e;" horiz-adv-x="800" 
d="M-1 701h102v-102h-102v102zM99 701h102v-102h-102v102zM199 701h102v-102h-102v102zM299 701h102v-102h-102v102zM399 701h102v-102h-102v102zM499 701h102v-102h-102v102zM599 701h102v-102h-102v102zM699 701h102v-102h-102v102zM-1 601h102v-102h-102v102zM99 601h102
v-102h-102v102zM599 601h102v-102h-102v102zM699 601h102v-102h-102v102zM-1 501h102v-102h-102v102zM199 501h102v-102h-102v102zM299 501h102v-102h-102v102zM399 501h102v-102h-102v102zM499 501h102v-102h-102v102zM699 501h102v-102h-102v102zM-1 401h102v-102h-102
v102zM199 401h102v-102h-102v102zM299 401h102v-102h-102v102zM399 401h102v-102h-102v102zM499 401h102v-102h-102v102zM699 401h102v-102h-102v102zM-1 301h102v-102h-102v102zM199 301h102v-102h-102v102zM299 301h102v-102h-102v102zM399 301h102v-102h-102v102z
M499 301h102v-102h-102v102zM699 301h102v-102h-102v102zM-1 201h102v-102h-102v102zM199 201h102v-102h-102v102zM299 201h102v-102h-102v102zM399 201h102v-102h-102v102zM499 201h102v-102h-102v102zM699 201h102v-102h-102v102zM-1 101h102v-102h-102v102zM99 101h102
v-102h-102v102zM599 101h102v-102h-102v102zM699 101h102v-102h-102v102zM-1 1h102v-102h-102v102zM99 1h102v-102h-102v102zM199 1h102v-102h-102v102zM299 1h102v-102h-102v102zM399 1h102v-102h-102v102zM499 1h102v-102h-102v102zM599 1h102v-102h-102v102zM699 1h102
v-102h-102v102z" />
    <glyph glyph-name="uniF11F" unicode="&#xf11f;" horiz-adv-x="800" 
d="M-1 701h102v-102h-102v102zM99 701h102v-102h-102v102zM199 701h102v-102h-102v102zM299 701h102v-102h-102v102zM399 701h102v-102h-102v102zM499 701h102v-102h-102v102zM599 701h102v-102h-102v102zM699 701h102v-102h-102v102zM-1 601h102v-102h-102v102zM599 601
h102v-102h-102v102zM699 601h102v-102h-102v102zM-1 501h102v-102h-102v102zM199 501h102v-102h-102v102zM299 501h102v-102h-102v102zM399 501h102v-102h-102v102zM499 501h102v-102h-102v102zM699 501h102v-102h-102v102zM-1 401h102v-102h-102v102zM199 401h102v-102
h-102v102zM299 401h102v-102h-102v102zM399 401h102v-102h-102v102zM499 401h102v-102h-102v102zM699 401h102v-102h-102v102zM-1 301h102v-102h-102v102zM599 301h102v-102h-102v102zM699 301h102v-102h-102v102zM-1 201h102v-102h-102v102zM199 201h102v-102h-102v102z
M299 201h102v-102h-102v102zM399 201h102v-102h-102v102zM499 201h102v-102h-102v102zM599 201h102v-102h-102v102zM699 201h102v-102h-102v102zM-1 101h102v-102h-102v102zM199 101h102v-102h-102v102zM299 101h102v-102h-102v102zM399 101h102v-102h-102v102zM499 101h102
v-102h-102v102zM599 101h102v-102h-102v102zM699 101h102v-102h-102v102zM-1 1h102v-102h-102v102zM99 1h102v-102h-102v102zM199 1h102v-102h-102v102zM299 1h102v-102h-102v102zM399 1h102v-102h-102v102zM499 1h102v-102h-102v102zM599 1h102v-102h-102v102zM699 1h102
v-102h-102v102z" />
    <glyph glyph-name="uniF120" unicode="&#xf120;" horiz-adv-x="800" 
d="M-1 701h102v-102h-102v102zM99 701h102v-102h-102v102zM199 701h102v-102h-102v102zM299 701h102v-102h-102v102zM399 701h102v-102h-102v102zM499 701h102v-102h-102v102zM599 701h102v-102h-102v102zM699 701h102v-102h-102v102zM-1 601h102v-102h-102v102zM99 601h102
v-102h-102v102zM599 601h102v-102h-102v102zM699 601h102v-102h-102v102zM-1 501h102v-102h-102v102zM199 501h102v-102h-102v102zM299 501h102v-102h-102v102zM399 501h102v-102h-102v102zM499 501h102v-102h-102v102zM699 501h102v-102h-102v102zM-1 401h102v-102h-102
v102zM199 401h102v-102h-102v102zM299 401h102v-102h-102v102zM399 401h102v-102h-102v102zM499 401h102v-102h-102v102zM699 401h102v-102h-102v102zM-1 301h102v-102h-102v102zM199 301h102v-102h-102v102zM399 301h102v-102h-102v102zM499 301h102v-102h-102v102z
M699 301h102v-102h-102v102zM-1 201h102v-102h-102v102zM199 201h102v-102h-102v102zM299 201h102v-102h-102v102zM499 201h102v-102h-102v102zM699 201h102v-102h-102v102zM-1 101h102v-102h-102v102zM99 101h102v-102h-102v102zM599 101h102v-102h-102v102zM699 101h102
v-102h-102v102zM-1 1h102v-102h-102v102zM99 1h102v-102h-102v102zM199 1h102v-102h-102v102zM299 1h102v-102h-102v102zM399 1h102v-102h-102v102zM499 1h102v-102h-102v102zM599 1h102v-102h-102v102zM699 1h102v-102h-102v102z" />
    <glyph glyph-name="uniF121" unicode="&#xf121;" horiz-adv-x="800" 
d="M-1 701h102v-102h-102v102zM99 701h102v-102h-102v102zM199 701h102v-102h-102v102zM299 701h102v-102h-102v102zM399 701h102v-102h-102v102zM499 701h102v-102h-102v102zM599 701h102v-102h-102v102zM699 701h102v-102h-102v102zM-1 601h102v-102h-102v102zM599 601
h102v-102h-102v102zM699 601h102v-102h-102v102zM-1 501h102v-102h-102v102zM199 501h102v-102h-102v102zM299 501h102v-102h-102v102zM399 501h102v-102h-102v102zM499 501h102v-102h-102v102zM699 501h102v-102h-102v102zM-1 401h102v-102h-102v102zM199 401h102v-102
h-102v102zM299 401h102v-102h-102v102zM399 401h102v-102h-102v102zM499 401h102v-102h-102v102zM699 401h102v-102h-102v102zM-1 301h102v-102h-102v102zM599 301h102v-102h-102v102zM699 301h102v-102h-102v102zM-1 201h102v-102h-102v102zM199 201h102v-102h-102v102z
M299 201h102v-102h-102v102zM399 201h102v-102h-102v102zM599 201h102v-102h-102v102zM699 201h102v-102h-102v102zM-1 101h102v-102h-102v102zM199 101h102v-102h-102v102zM299 101h102v-102h-102v102zM399 101h102v-102h-102v102zM499 101h102v-102h-102v102zM699 101h102
v-102h-102v102zM-1 1h102v-102h-102v102zM99 1h102v-102h-102v102zM199 1h102v-102h-102v102zM299 1h102v-102h-102v102zM399 1h102v-102h-102v102zM499 1h102v-102h-102v102zM599 1h102v-102h-102v102zM699 1h102v-102h-102v102z" />
    <glyph glyph-name="uniF122" unicode="&#xf122;" horiz-adv-x="800" 
d="M-1 701h102v-102h-102v102zM99 701h102v-102h-102v102zM199 701h102v-102h-102v102zM299 701h102v-102h-102v102zM399 701h102v-102h-102v102zM499 701h102v-102h-102v102zM599 701h102v-102h-102v102zM699 701h102v-102h-102v102zM-1 601h102v-102h-102v102zM99 601h102
v-102h-102v102zM599 601h102v-102h-102v102zM699 601h102v-102h-102v102zM-1 501h102v-102h-102v102zM199 501h102v-102h-102v102zM299 501h102v-102h-102v102zM399 501h102v-102h-102v102zM499 501h102v-102h-102v102zM599 501h102v-102h-102v102zM699 501h102v-102h-102
v102zM-1 401h102v-102h-102v102zM99 401h102v-102h-102v102zM599 401h102v-102h-102v102zM699 401h102v-102h-102v102zM-1 301h102v-102h-102v102zM99 301h102v-102h-102v102zM199 301h102v-102h-102v102zM299 301h102v-102h-102v102zM399 301h102v-102h-102v102zM499 301
h102v-102h-102v102zM699 301h102v-102h-102v102zM-1 201h102v-102h-102v102zM199 201h102v-102h-102v102zM299 201h102v-102h-102v102zM399 201h102v-102h-102v102zM499 201h102v-102h-102v102zM699 201h102v-102h-102v102zM-1 101h102v-102h-102v102zM99 101h102v-102h-102
v102zM599 101h102v-102h-102v102zM699 101h102v-102h-102v102zM-1 1h102v-102h-102v102zM99 1h102v-102h-102v102zM199 1h102v-102h-102v102zM299 1h102v-102h-102v102zM399 1h102v-102h-102v102zM499 1h102v-102h-102v102zM599 1h102v-102h-102v102zM699 1h102v-102h-102
v102z" />
    <glyph glyph-name="uniF123" unicode="&#xf123;" horiz-adv-x="800" 
d="M-1 701h102v-102h-102v102zM99 701h102v-102h-102v102zM199 701h102v-102h-102v102zM299 701h102v-102h-102v102zM399 701h102v-102h-102v102zM499 701h102v-102h-102v102zM599 701h102v-102h-102v102zM699 701h102v-102h-102v102zM699 601h102v-102h-102v102zM-1 501
h102v-102h-102v102zM99 501h102v-102h-102v102zM199 501h102v-102h-102v102zM399 501h102v-102h-102v102zM499 501h102v-102h-102v102zM599 501h102v-102h-102v102zM699 501h102v-102h-102v102zM-1 401h102v-102h-102v102zM99 401h102v-102h-102v102zM199 401h102v-102h-102
v102zM399 401h102v-102h-102v102zM499 401h102v-102h-102v102zM599 401h102v-102h-102v102zM699 401h102v-102h-102v102zM-1 301h102v-102h-102v102zM99 301h102v-102h-102v102zM199 301h102v-102h-102v102zM399 301h102v-102h-102v102zM499 301h102v-102h-102v102zM599 301
h102v-102h-102v102zM699 301h102v-102h-102v102zM-1 201h102v-102h-102v102zM99 201h102v-102h-102v102zM199 201h102v-102h-102v102zM399 201h102v-102h-102v102zM499 201h102v-102h-102v102zM599 201h102v-102h-102v102zM699 201h102v-102h-102v102zM-1 101h102v-102h-102
v102zM99 101h102v-102h-102v102zM199 101h102v-102h-102v102zM399 101h102v-102h-102v102zM499 101h102v-102h-102v102zM599 101h102v-102h-102v102zM699 101h102v-102h-102v102zM-1 1h102v-102h-102v102zM99 1h102v-102h-102v102zM199 1h102v-102h-102v102zM299 1h102v-102
h-102v102zM399 1h102v-102h-102v102zM499 1h102v-102h-102v102zM599 1h102v-102h-102v102zM699 1h102v-102h-102v102z" />
    <glyph glyph-name="uniF124" unicode="&#xf124;" horiz-adv-x="800" 
d="M-1 701h102v-102h-102v102zM99 701h102v-102h-102v102zM199 701h102v-102h-102v102zM299 701h102v-102h-102v102zM399 701h102v-102h-102v102zM499 701h102v-102h-102v102zM599 701h102v-102h-102v102zM699 701h102v-102h-102v102zM-1 601h102v-102h-102v102zM199 601
h102v-102h-102v102zM299 601h102v-102h-102v102zM399 601h102v-102h-102v102zM499 601h102v-102h-102v102zM699 601h102v-102h-102v102zM-1 501h102v-102h-102v102zM199 501h102v-102h-102v102zM299 501h102v-102h-102v102zM399 501h102v-102h-102v102zM499 501h102v-102
h-102v102zM699 501h102v-102h-102v102zM-1 401h102v-102h-102v102zM199 401h102v-102h-102v102zM299 401h102v-102h-102v102zM399 401h102v-102h-102v102zM499 401h102v-102h-102v102zM699 401h102v-102h-102v102zM-1 301h102v-102h-102v102zM199 301h102v-102h-102v102z
M299 301h102v-102h-102v102zM399 301h102v-102h-102v102zM499 301h102v-102h-102v102zM699 301h102v-102h-102v102zM-1 201h102v-102h-102v102zM199 201h102v-102h-102v102zM299 201h102v-102h-102v102zM399 201h102v-102h-102v102zM499 201h102v-102h-102v102zM699 201h102
v-102h-102v102zM-1 101h102v-102h-102v102zM99 101h102v-102h-102v102zM599 101h102v-102h-102v102zM699 101h102v-102h-102v102zM-1 1h102v-102h-102v102zM99 1h102v-102h-102v102zM199 1h102v-102h-102v102zM299 1h102v-102h-102v102zM399 1h102v-102h-102v102zM499 1h102
v-102h-102v102zM599 1h102v-102h-102v102zM699 1h102v-102h-102v102z" />
    <glyph glyph-name="uniF125" unicode="&#xf125;" horiz-adv-x="2400" 
d="M99 0zM99 601h102v-102h-102v102zM199 601h102v-102h-102v102zM299 601h102v-102h-102v102zM399 601h102v-102h-102v102zM499 601h102v-102h-102v102zM99 501h102v-102h-102v102zM599 501h102v-102h-102v102zM99 401h102v-102h-102v102zM599 401h102v-102h-102v102z
M99 301h102v-102h-102v102zM199 301h102v-102h-102v102zM299 301h102v-102h-102v102zM399 301h102v-102h-102v102zM499 301h102v-102h-102v102zM99 201h102v-102h-102v102zM499 201h102v-102h-102v102zM99 101h102v-102h-102v102zM599 101h102v-102h-102v102zM899 601h102
v-102h-102v102zM1399 601h102v-102h-102v102zM899 501h102v-102h-102v102zM999 501h102v-102h-102v102zM1399 501h102v-102h-102v102zM899 401h102v-102h-102v102zM1099 401h102v-102h-102v102zM1399 401h102v-102h-102v102zM899 301h102v-102h-102v102zM1199 301h102v-102
h-102v102zM1399 301h102v-102h-102v102zM899 201h102v-102h-102v102zM1299 201h102v-102h-102v102zM1399 201h102v-102h-102v102zM899 101h102v-102h-102v102zM1399 101h102v-102h-102v102zM1699 601h102v-102h-102v102zM1799 601h102v-102h-102v102zM1899 601h102v-102
h-102v102zM1999 601h102v-102h-102v102zM1699 501h102v-102h-102v102zM2099 501h102v-102h-102v102zM1699 401h102v-102h-102v102zM2199 401h102v-102h-102v102zM1699 301h102v-102h-102v102zM2199 301h102v-102h-102v102zM1699 201h102v-102h-102v102zM2099 201h102v-102
h-102v102zM1699 101h102v-102h-102v102zM1799 101h102v-102h-102v102zM1899 101h102v-102h-102v102zM1999 101h102v-102h-102v102z" />
    <glyph glyph-name="uniF126" unicode="&#xf126;" horiz-adv-x="4800" 
d="M199 0zM199 601h102v-102h-102v102zM299 601h102v-102h-102v102zM399 601h102v-102h-102v102zM499 601h102v-102h-102v102zM599 601h102v-102h-102v102zM399 501h102v-102h-102v102zM399 401h102v-102h-102v102zM399 301h102v-102h-102v102zM399 201h102v-102h-102v102z
M199 101h102v-102h-102v102zM299 101h102v-102h-102v102zM399 101h102v-102h-102v102zM499 101h102v-102h-102v102zM599 101h102v-102h-102v102zM899 601h102v-102h-102v102zM1399 601h102v-102h-102v102zM899 501h102v-102h-102v102zM999 501h102v-102h-102v102zM1399 501
h102v-102h-102v102zM899 401h102v-102h-102v102zM1099 401h102v-102h-102v102zM1399 401h102v-102h-102v102zM899 301h102v-102h-102v102zM1199 301h102v-102h-102v102zM1399 301h102v-102h-102v102zM899 201h102v-102h-102v102zM1299 201h102v-102h-102v102zM1399 201h102
v-102h-102v102zM899 101h102v-102h-102v102zM1399 101h102v-102h-102v102zM1699 601h102v-102h-102v102zM2099 601h102v-102h-102v102zM1699 501h102v-102h-102v102zM1999 501h102v-102h-102v102zM1699 401h102v-102h-102v102zM1799 401h102v-102h-102v102zM1899 401h102
v-102h-102v102zM1699 301h102v-102h-102v102zM1999 301h102v-102h-102v102zM1699 201h102v-102h-102v102zM2099 201h102v-102h-102v102zM1699 101h102v-102h-102v102zM2199 101h102v-102h-102v102zM2499 601h102v-102h-102v102zM2599 601h102v-102h-102v102zM2699 601h102
v-102h-102v102zM2799 601h102v-102h-102v102zM2899 601h102v-102h-102v102zM2999 601h102v-102h-102v102zM2499 501h102v-102h-102v102zM2499 401h102v-102h-102v102zM2599 401h102v-102h-102v102zM2699 401h102v-102h-102v102zM2799 401h102v-102h-102v102zM2899 401h102
v-102h-102v102zM2499 301h102v-102h-102v102zM2499 201h102v-102h-102v102zM2499 101h102v-102h-102v102zM2599 101h102v-102h-102v102zM2699 101h102v-102h-102v102zM2799 101h102v-102h-102v102zM2899 101h102v-102h-102v102zM2999 101h102v-102h-102v102zM3199 601h102
v-102h-102v102zM3799 601h102v-102h-102v102zM3299 501h102v-102h-102v102zM3699 501h102v-102h-102v102zM3399 401h102v-102h-102v102zM3599 401h102v-102h-102v102zM3499 301h102v-102h-102v102zM3499 201h102v-102h-102v102zM3499 101h102v-102h-102v102zM4399 601h102
v-102h-102v102zM4199 501h102v-102h-102v102zM4299 501h102v-102h-102v102zM4399 501h102v-102h-102v102zM4499 501h102v-102h-102v102zM4599 501h102v-102h-102v102zM4199 401h102v-102h-102v102zM4399 401h102v-102h-102v102zM4199 301h102v-102h-102v102zM4299 301h102
v-102h-102v102zM4399 301h102v-102h-102v102zM4499 301h102v-102h-102v102zM4599 301h102v-102h-102v102zM4399 201h102v-102h-102v102zM4599 201h102v-102h-102v102zM4199 101h102v-102h-102v102zM4299 101h102v-102h-102v102zM4399 101h102v-102h-102v102zM4499 101h102
v-102h-102v102zM4599 101h102v-102h-102v102zM4399 1h102v-102h-102v102z" />
    <glyph glyph-name="uniF127" unicode="&#xf127;" horiz-adv-x="1600" 
d="M99 0zM99 601h102v-102h-102v102zM199 601h102v-102h-102v102zM299 601h102v-102h-102v102zM399 601h102v-102h-102v102zM499 601h102v-102h-102v102zM99 501h102v-102h-102v102zM599 501h102v-102h-102v102zM99 401h102v-102h-102v102zM599 401h102v-102h-102v102z
M99 301h102v-102h-102v102zM199 301h102v-102h-102v102zM299 301h102v-102h-102v102zM399 301h102v-102h-102v102zM499 301h102v-102h-102v102zM99 201h102v-102h-102v102zM99 101h102v-102h-102v102zM999 601h102v-102h-102v102zM1099 601h102v-102h-102v102zM1199 601h102
v-102h-102v102zM1299 601h102v-102h-102v102zM1399 601h102v-102h-102v102zM1199 501h102v-102h-102v102zM1199 401h102v-102h-102v102zM1199 301h102v-102h-102v102zM1199 201h102v-102h-102v102zM999 101h102v-102h-102v102zM1099 101h102v-102h-102v102zM1199 101h102
v-102h-102v102zM1299 101h102v-102h-102v102zM1399 101h102v-102h-102v102z" />
    <glyph glyph-name="uniF128" unicode="&#xf128;" horiz-adv-x="1600" 
d="M99 0zM99 601h102v-102h-102v102zM199 601h102v-102h-102v102zM299 601h102v-102h-102v102zM399 601h102v-102h-102v102zM499 601h102v-102h-102v102zM599 601h102v-102h-102v102zM99 501h102v-102h-102v102zM99 401h102v-102h-102v102zM199 401h102v-102h-102v102z
M299 401h102v-102h-102v102zM399 401h102v-102h-102v102zM499 401h102v-102h-102v102zM99 301h102v-102h-102v102zM99 201h102v-102h-102v102zM99 101h102v-102h-102v102zM899 601h102v-102h-102v102zM1399 601h102v-102h-102v102zM899 501h102v-102h-102v102zM999 501h102
v-102h-102v102zM1399 501h102v-102h-102v102zM899 401h102v-102h-102v102zM1099 401h102v-102h-102v102zM1399 401h102v-102h-102v102zM899 301h102v-102h-102v102zM1199 301h102v-102h-102v102zM1399 301h102v-102h-102v102zM899 201h102v-102h-102v102zM1299 201h102v-102
h-102v102zM1399 201h102v-102h-102v102zM899 101h102v-102h-102v102zM1399 101h102v-102h-102v102z" />
    <glyph glyph-name="uniF129" unicode="&#xf129;" horiz-adv-x="4000" 
d="M99 0zM99 601h102v-102h-102v102zM199 601h102v-102h-102v102zM299 601h102v-102h-102v102zM399 601h102v-102h-102v102zM499 601h102v-102h-102v102zM99 501h102v-102h-102v102zM599 501h102v-102h-102v102zM99 401h102v-102h-102v102zM599 401h102v-102h-102v102z
M99 301h102v-102h-102v102zM199 301h102v-102h-102v102zM299 301h102v-102h-102v102zM399 301h102v-102h-102v102zM499 301h102v-102h-102v102zM99 201h102v-102h-102v102zM99 101h102v-102h-102v102zM999 601h102v-102h-102v102zM1099 601h102v-102h-102v102zM1199 601h102
v-102h-102v102zM1299 601h102v-102h-102v102zM899 501h102v-102h-102v102zM1399 501h102v-102h-102v102zM899 401h102v-102h-102v102zM1399 401h102v-102h-102v102zM899 301h102v-102h-102v102zM1399 301h102v-102h-102v102zM899 201h102v-102h-102v102zM1399 201h102v-102
h-102v102zM999 101h102v-102h-102v102zM1099 101h102v-102h-102v102zM1199 101h102v-102h-102v102zM1299 101h102v-102h-102v102zM1799 601h102v-102h-102v102zM1899 601h102v-102h-102v102zM1999 601h102v-102h-102v102zM2099 601h102v-102h-102v102zM2199 601h102v-102
h-102v102zM1999 501h102v-102h-102v102zM1999 401h102v-102h-102v102zM1999 301h102v-102h-102v102zM1999 201h102v-102h-102v102zM1799 101h102v-102h-102v102zM1899 101h102v-102h-102v102zM1999 101h102v-102h-102v102zM2099 101h102v-102h-102v102zM2199 101h102v-102
h-102v102zM2499 601h102v-102h-102v102zM2999 601h102v-102h-102v102zM2499 501h102v-102h-102v102zM2599 501h102v-102h-102v102zM2999 501h102v-102h-102v102zM2499 401h102v-102h-102v102zM2699 401h102v-102h-102v102zM2999 401h102v-102h-102v102zM2499 301h102v-102
h-102v102zM2799 301h102v-102h-102v102zM2999 301h102v-102h-102v102zM2499 201h102v-102h-102v102zM2899 201h102v-102h-102v102zM2999 201h102v-102h-102v102zM2499 101h102v-102h-102v102zM2999 101h102v-102h-102v102zM3199 601h102v-102h-102v102zM3299 601h102v-102
h-102v102zM3399 601h102v-102h-102v102zM3499 601h102v-102h-102v102zM3599 601h102v-102h-102v102zM3699 601h102v-102h-102v102zM3799 601h102v-102h-102v102zM3499 501h102v-102h-102v102zM3499 401h102v-102h-102v102zM3499 301h102v-102h-102v102zM3499 201h102v-102
h-102v102zM3499 101h102v-102h-102v102z" />
    <glyph glyph-name="uniF12A" unicode="&#xf12a;" horiz-adv-x="5600" 
d="M99 0zM199 601h102v-102h-102v102zM299 601h102v-102h-102v102zM399 601h102v-102h-102v102zM499 601h102v-102h-102v102zM99 501h102v-102h-102v102zM199 401h102v-102h-102v102zM299 401h102v-102h-102v102zM399 401h102v-102h-102v102zM499 401h102v-102h-102v102z
M599 301h102v-102h-102v102zM99 201h102v-102h-102v102zM599 201h102v-102h-102v102zM199 101h102v-102h-102v102zM299 101h102v-102h-102v102zM399 101h102v-102h-102v102zM499 101h102v-102h-102v102zM999 601h102v-102h-102v102zM1099 601h102v-102h-102v102zM1199 601
h102v-102h-102v102zM1299 601h102v-102h-102v102zM899 501h102v-102h-102v102zM1399 501h102v-102h-102v102zM899 401h102v-102h-102v102zM899 301h102v-102h-102v102zM899 201h102v-102h-102v102zM1399 201h102v-102h-102v102zM999 101h102v-102h-102v102zM1099 101h102
v-102h-102v102zM1199 101h102v-102h-102v102zM1299 101h102v-102h-102v102zM1699 601h102v-102h-102v102zM1799 601h102v-102h-102v102zM1899 601h102v-102h-102v102zM1999 601h102v-102h-102v102zM2099 601h102v-102h-102v102zM1699 501h102v-102h-102v102zM2199 501h102
v-102h-102v102zM1699 401h102v-102h-102v102zM2199 401h102v-102h-102v102zM1699 301h102v-102h-102v102zM1799 301h102v-102h-102v102zM1899 301h102v-102h-102v102zM1999 301h102v-102h-102v102zM2099 301h102v-102h-102v102zM1699 201h102v-102h-102v102zM2099 201h102
v-102h-102v102zM1699 101h102v-102h-102v102zM2199 101h102v-102h-102v102zM2499 601h102v-102h-102v102zM2599 601h102v-102h-102v102zM2699 601h102v-102h-102v102zM2799 601h102v-102h-102v102zM2899 601h102v-102h-102v102zM2999 601h102v-102h-102v102zM2499 501h102
v-102h-102v102zM2499 401h102v-102h-102v102zM2599 401h102v-102h-102v102zM2699 401h102v-102h-102v102zM2799 401h102v-102h-102v102zM2899 401h102v-102h-102v102zM2499 301h102v-102h-102v102zM2499 201h102v-102h-102v102zM2499 101h102v-102h-102v102zM2599 101h102
v-102h-102v102zM2699 101h102v-102h-102v102zM2799 101h102v-102h-102v102zM2899 101h102v-102h-102v102zM2999 101h102v-102h-102v102zM3299 601h102v-102h-102v102zM3399 601h102v-102h-102v102zM3499 601h102v-102h-102v102zM3599 601h102v-102h-102v102zM3699 601h102
v-102h-102v102zM3799 601h102v-102h-102v102zM3299 501h102v-102h-102v102zM3299 401h102v-102h-102v102zM3399 401h102v-102h-102v102zM3499 401h102v-102h-102v102zM3599 401h102v-102h-102v102zM3699 401h102v-102h-102v102zM3299 301h102v-102h-102v102zM3299 201h102
v-102h-102v102zM3299 101h102v-102h-102v102zM3399 101h102v-102h-102v102zM3499 101h102v-102h-102v102zM3599 101h102v-102h-102v102zM3699 101h102v-102h-102v102zM3799 101h102v-102h-102v102zM4099 601h102v-102h-102v102zM4599 601h102v-102h-102v102zM4099 501h102
v-102h-102v102zM4199 501h102v-102h-102v102zM4599 501h102v-102h-102v102zM4099 401h102v-102h-102v102zM4299 401h102v-102h-102v102zM4599 401h102v-102h-102v102zM4099 301h102v-102h-102v102zM4399 301h102v-102h-102v102zM4599 301h102v-102h-102v102zM4099 201h102
v-102h-102v102zM4499 201h102v-102h-102v102zM4599 201h102v-102h-102v102zM4099 101h102v-102h-102v102zM4599 101h102v-102h-102v102zM5199 601h102v-102h-102v102zM4999 501h102v-102h-102v102zM5099 501h102v-102h-102v102zM5199 501h102v-102h-102v102zM5299 501h102
v-102h-102v102zM5399 501h102v-102h-102v102zM4999 401h102v-102h-102v102zM5199 401h102v-102h-102v102zM4999 301h102v-102h-102v102zM5099 301h102v-102h-102v102zM5199 301h102v-102h-102v102zM5299 301h102v-102h-102v102zM5399 301h102v-102h-102v102zM5199 201h102
v-102h-102v102zM5399 201h102v-102h-102v102zM4999 101h102v-102h-102v102zM5099 101h102v-102h-102v102zM5199 101h102v-102h-102v102zM5299 101h102v-102h-102v102zM5399 101h102v-102h-102v102zM5199 1h102v-102h-102v102z" />
    <glyph glyph-name="uniF12B" unicode="&#xf12b;" horiz-adv-x="3200" 
d="M99 0zM199 601h102v-102h-102v102zM299 601h102v-102h-102v102zM399 601h102v-102h-102v102zM499 601h102v-102h-102v102zM99 501h102v-102h-102v102zM599 501h102v-102h-102v102zM99 401h102v-102h-102v102zM599 401h102v-102h-102v102zM99 301h102v-102h-102v102z
M199 301h102v-102h-102v102zM299 301h102v-102h-102v102zM399 301h102v-102h-102v102zM499 301h102v-102h-102v102zM599 301h102v-102h-102v102zM99 201h102v-102h-102v102zM599 201h102v-102h-102v102zM99 101h102v-102h-102v102zM599 101h102v-102h-102v102zM799 601h102
v-102h-102v102zM899 601h102v-102h-102v102zM999 601h102v-102h-102v102zM1099 601h102v-102h-102v102zM1199 601h102v-102h-102v102zM1299 601h102v-102h-102v102zM1399 601h102v-102h-102v102zM1099 501h102v-102h-102v102zM1099 401h102v-102h-102v102zM1099 301h102
v-102h-102v102zM1099 201h102v-102h-102v102zM1099 101h102v-102h-102v102zM1599 601h102v-102h-102v102zM1699 601h102v-102h-102v102zM1799 601h102v-102h-102v102zM1899 601h102v-102h-102v102zM1999 601h102v-102h-102v102zM2099 601h102v-102h-102v102zM2199 601h102
v-102h-102v102zM1899 501h102v-102h-102v102zM1899 401h102v-102h-102v102zM1899 301h102v-102h-102v102zM1899 201h102v-102h-102v102zM1899 101h102v-102h-102v102zM2499 601h102v-102h-102v102zM2599 601h102v-102h-102v102zM2699 601h102v-102h-102v102zM2799 601h102
v-102h-102v102zM2899 601h102v-102h-102v102zM2499 501h102v-102h-102v102zM2999 501h102v-102h-102v102zM2499 401h102v-102h-102v102zM2999 401h102v-102h-102v102zM2499 301h102v-102h-102v102zM2599 301h102v-102h-102v102zM2699 301h102v-102h-102v102zM2799 301h102
v-102h-102v102zM2899 301h102v-102h-102v102zM2499 201h102v-102h-102v102zM2899 201h102v-102h-102v102zM2499 101h102v-102h-102v102zM2999 101h102v-102h-102v102z" />
    <glyph glyph-name="uniF12C" unicode="&#xf12c;" horiz-adv-x="1600" 
d="M99 0zM199 601h102v-102h-102v102zM299 601h102v-102h-102v102zM399 601h102v-102h-102v102zM499 601h102v-102h-102v102zM99 501h102v-102h-102v102zM599 501h102v-102h-102v102zM99 401h102v-102h-102v102zM599 401h102v-102h-102v102zM99 301h102v-102h-102v102z
M199 301h102v-102h-102v102zM299 301h102v-102h-102v102zM399 301h102v-102h-102v102zM499 301h102v-102h-102v102zM599 301h102v-102h-102v102zM99 201h102v-102h-102v102zM599 201h102v-102h-102v102zM99 101h102v-102h-102v102zM599 101h102v-102h-102v102zM799 601h102
v-102h-102v102zM899 601h102v-102h-102v102zM999 601h102v-102h-102v102zM1099 601h102v-102h-102v102zM1199 601h102v-102h-102v102zM1299 601h102v-102h-102v102zM1399 601h102v-102h-102v102zM1099 501h102v-102h-102v102zM1099 401h102v-102h-102v102zM1099 301h102
v-102h-102v102zM1099 201h102v-102h-102v102zM1099 101h102v-102h-102v102z" />
    <glyph glyph-name="uniF12D" unicode="&#xf12d;" horiz-adv-x="2400" 
d="M0 0zM-1 601h102v-102h-102v102zM99 601h102v-102h-102v102zM199 601h102v-102h-102v102zM299 601h102v-102h-102v102zM399 601h102v-102h-102v102zM499 601h102v-102h-102v102zM599 601h102v-102h-102v102zM299 501h102v-102h-102v102zM299 401h102v-102h-102v102z
M299 301h102v-102h-102v102zM299 201h102v-102h-102v102zM299 101h102v-102h-102v102zM999 601h102v-102h-102v102zM1099 601h102v-102h-102v102zM1199 601h102v-102h-102v102zM1299 601h102v-102h-102v102zM899 501h102v-102h-102v102zM1399 501h102v-102h-102v102z
M899 401h102v-102h-102v102zM1399 401h102v-102h-102v102zM899 301h102v-102h-102v102zM999 301h102v-102h-102v102zM1099 301h102v-102h-102v102zM1199 301h102v-102h-102v102zM1299 301h102v-102h-102v102zM1399 301h102v-102h-102v102zM899 201h102v-102h-102v102z
M1399 201h102v-102h-102v102zM899 101h102v-102h-102v102zM1399 101h102v-102h-102v102zM1699 601h102v-102h-102v102zM1799 601h102v-102h-102v102zM1899 601h102v-102h-102v102zM1999 601h102v-102h-102v102zM2099 601h102v-102h-102v102zM1699 501h102v-102h-102v102z
M2199 501h102v-102h-102v102zM1699 401h102v-102h-102v102zM1799 401h102v-102h-102v102zM1899 401h102v-102h-102v102zM1999 401h102v-102h-102v102zM2099 401h102v-102h-102v102zM1699 301h102v-102h-102v102zM2199 301h102v-102h-102v102zM1699 201h102v-102h-102v102z
M2199 201h102v-102h-102v102zM1699 101h102v-102h-102v102zM1799 101h102v-102h-102v102zM1899 101h102v-102h-102v102zM1999 101h102v-102h-102v102zM2099 101h102v-102h-102v102z" />
    <glyph glyph-name="uniF12E" unicode="&#xf12e;" horiz-adv-x="3200" 
d="M99 0zM99 601h102v-102h-102v102zM599 601h102v-102h-102v102zM99 501h102v-102h-102v102zM599 501h102v-102h-102v102zM99 401h102v-102h-102v102zM599 401h102v-102h-102v102zM99 301h102v-102h-102v102zM599 301h102v-102h-102v102zM199 201h102v-102h-102v102z
M499 201h102v-102h-102v102zM299 101h102v-102h-102v102zM399 101h102v-102h-102v102zM999 601h102v-102h-102v102zM1099 601h102v-102h-102v102zM1199 601h102v-102h-102v102zM1299 601h102v-102h-102v102zM899 501h102v-102h-102v102zM1399 501h102v-102h-102v102z
M899 401h102v-102h-102v102zM1399 401h102v-102h-102v102zM899 301h102v-102h-102v102zM999 301h102v-102h-102v102zM1099 301h102v-102h-102v102zM1199 301h102v-102h-102v102zM1299 301h102v-102h-102v102zM1399 301h102v-102h-102v102zM899 201h102v-102h-102v102z
M1399 201h102v-102h-102v102zM899 101h102v-102h-102v102zM1399 101h102v-102h-102v102zM1699 601h102v-102h-102v102zM1699 501h102v-102h-102v102zM1699 401h102v-102h-102v102zM1699 301h102v-102h-102v102zM1699 201h102v-102h-102v102zM1699 101h102v-102h-102v102z
M1799 101h102v-102h-102v102zM1899 101h102v-102h-102v102zM1999 101h102v-102h-102v102zM2099 101h102v-102h-102v102zM2199 101h102v-102h-102v102zM2799 601h102v-102h-102v102zM2599 501h102v-102h-102v102zM2699 501h102v-102h-102v102zM2799 501h102v-102h-102v102z
M2899 501h102v-102h-102v102zM2999 501h102v-102h-102v102zM2599 401h102v-102h-102v102zM2799 401h102v-102h-102v102zM2599 301h102v-102h-102v102zM2699 301h102v-102h-102v102zM2799 301h102v-102h-102v102zM2899 301h102v-102h-102v102zM2999 301h102v-102h-102v102z
M2799 201h102v-102h-102v102zM2999 201h102v-102h-102v102zM2599 101h102v-102h-102v102zM2699 101h102v-102h-102v102zM2799 101h102v-102h-102v102zM2899 101h102v-102h-102v102zM2999 101h102v-102h-102v102zM2799 1h102v-102h-102v102z" />
    <glyph glyph-name="uniF12F" unicode="&#xf12f;" horiz-adv-x="3200" 
d="M99 0zM199 601h102v-102h-102v102zM299 601h102v-102h-102v102zM399 601h102v-102h-102v102zM499 601h102v-102h-102v102zM99 501h102v-102h-102v102zM599 501h102v-102h-102v102zM99 401h102v-102h-102v102zM99 301h102v-102h-102v102zM99 201h102v-102h-102v102z
M599 201h102v-102h-102v102zM199 101h102v-102h-102v102zM299 101h102v-102h-102v102zM399 101h102v-102h-102v102zM499 101h102v-102h-102v102zM999 601h102v-102h-102v102zM1099 601h102v-102h-102v102zM1199 601h102v-102h-102v102zM1299 601h102v-102h-102v102zM899 501
h102v-102h-102v102zM1399 501h102v-102h-102v102zM899 401h102v-102h-102v102zM1399 401h102v-102h-102v102zM899 301h102v-102h-102v102zM1399 301h102v-102h-102v102zM899 201h102v-102h-102v102zM1399 201h102v-102h-102v102zM999 101h102v-102h-102v102zM1099 101h102
v-102h-102v102zM1199 101h102v-102h-102v102zM1299 101h102v-102h-102v102zM1699 601h102v-102h-102v102zM1799 601h102v-102h-102v102zM1899 601h102v-102h-102v102zM1999 601h102v-102h-102v102zM1699 501h102v-102h-102v102zM2099 501h102v-102h-102v102zM1699 401h102
v-102h-102v102zM2199 401h102v-102h-102v102zM1699 301h102v-102h-102v102zM2199 301h102v-102h-102v102zM1699 201h102v-102h-102v102zM2099 201h102v-102h-102v102zM1699 101h102v-102h-102v102zM1799 101h102v-102h-102v102zM1899 101h102v-102h-102v102zM1999 101h102
v-102h-102v102zM2499 601h102v-102h-102v102zM2599 601h102v-102h-102v102zM2699 601h102v-102h-102v102zM2799 601h102v-102h-102v102zM2899 601h102v-102h-102v102zM2999 601h102v-102h-102v102zM2499 501h102v-102h-102v102zM2499 401h102v-102h-102v102zM2599 401h102
v-102h-102v102zM2699 401h102v-102h-102v102zM2799 401h102v-102h-102v102zM2899 401h102v-102h-102v102zM2499 301h102v-102h-102v102zM2499 201h102v-102h-102v102zM2499 101h102v-102h-102v102zM2599 101h102v-102h-102v102zM2699 101h102v-102h-102v102zM2799 101h102
v-102h-102v102zM2899 101h102v-102h-102v102zM2999 101h102v-102h-102v102z" />
    <glyph glyph-name="uniF130" unicode="&#xf130;" horiz-adv-x="2400" 
d="M99 0zM99 601h102v-102h-102v102zM599 601h102v-102h-102v102zM99 501h102v-102h-102v102zM599 501h102v-102h-102v102zM99 401h102v-102h-102v102zM599 401h102v-102h-102v102zM99 301h102v-102h-102v102zM599 301h102v-102h-102v102zM199 201h102v-102h-102v102z
M499 201h102v-102h-102v102zM299 101h102v-102h-102v102zM399 101h102v-102h-102v102zM999 601h102v-102h-102v102zM1099 601h102v-102h-102v102zM1199 601h102v-102h-102v102zM1299 601h102v-102h-102v102zM899 501h102v-102h-102v102zM1399 501h102v-102h-102v102z
M899 401h102v-102h-102v102zM1399 401h102v-102h-102v102zM899 301h102v-102h-102v102zM999 301h102v-102h-102v102zM1099 301h102v-102h-102v102zM1199 301h102v-102h-102v102zM1299 301h102v-102h-102v102zM1399 301h102v-102h-102v102zM899 201h102v-102h-102v102z
M1399 201h102v-102h-102v102zM899 101h102v-102h-102v102zM1399 101h102v-102h-102v102zM1699 601h102v-102h-102v102zM1699 501h102v-102h-102v102zM1699 401h102v-102h-102v102zM1699 301h102v-102h-102v102zM1699 201h102v-102h-102v102zM1699 101h102v-102h-102v102z
M1799 101h102v-102h-102v102zM1899 101h102v-102h-102v102zM1999 101h102v-102h-102v102zM2099 101h102v-102h-102v102zM2199 101h102v-102h-102v102z" />
    <glyph glyph-name="uniF131" unicode="&#xf131;" horiz-adv-x="2400" 
d="M99 0zM99 601h102v-102h-102v102zM99 501h102v-102h-102v102zM99 401h102v-102h-102v102zM99 301h102v-102h-102v102zM99 201h102v-102h-102v102zM99 101h102v-102h-102v102zM199 101h102v-102h-102v102zM299 101h102v-102h-102v102zM399 101h102v-102h-102v102zM499 101
h102v-102h-102v102zM599 101h102v-102h-102v102zM899 601h102v-102h-102v102zM999 601h102v-102h-102v102zM1099 601h102v-102h-102v102zM1199 601h102v-102h-102v102zM1299 601h102v-102h-102v102zM1399 601h102v-102h-102v102zM899 501h102v-102h-102v102zM899 401h102
v-102h-102v102zM999 401h102v-102h-102v102zM1099 401h102v-102h-102v102zM1199 401h102v-102h-102v102zM1299 401h102v-102h-102v102zM899 301h102v-102h-102v102zM899 201h102v-102h-102v102zM899 101h102v-102h-102v102zM999 101h102v-102h-102v102zM1099 101h102v-102
h-102v102zM1199 101h102v-102h-102v102zM1299 101h102v-102h-102v102zM1399 101h102v-102h-102v102zM1699 601h102v-102h-102v102zM2199 601h102v-102h-102v102zM1699 501h102v-102h-102v102zM1799 501h102v-102h-102v102zM2199 501h102v-102h-102v102zM1699 401h102v-102
h-102v102zM1899 401h102v-102h-102v102zM2199 401h102v-102h-102v102zM1699 301h102v-102h-102v102zM1999 301h102v-102h-102v102zM2199 301h102v-102h-102v102zM1699 201h102v-102h-102v102zM2099 201h102v-102h-102v102zM2199 201h102v-102h-102v102zM1699 101h102v-102
h-102v102zM2199 101h102v-102h-102v102z" />
    <glyph glyph-name="uniF132" unicode="&#xf132;" horiz-adv-x="2400" 
d="M99 0zM199 601h102v-102h-102v102zM299 601h102v-102h-102v102zM399 601h102v-102h-102v102zM499 601h102v-102h-102v102zM99 501h102v-102h-102v102zM199 401h102v-102h-102v102zM299 401h102v-102h-102v102zM399 401h102v-102h-102v102zM499 401h102v-102h-102v102z
M599 301h102v-102h-102v102zM99 201h102v-102h-102v102zM599 201h102v-102h-102v102zM199 101h102v-102h-102v102zM299 101h102v-102h-102v102zM399 101h102v-102h-102v102zM499 101h102v-102h-102v102zM999 601h102v-102h-102v102zM1099 601h102v-102h-102v102zM1199 601
h102v-102h-102v102zM1299 601h102v-102h-102v102zM1399 601h102v-102h-102v102zM1199 501h102v-102h-102v102zM1199 401h102v-102h-102v102zM1199 301h102v-102h-102v102zM1199 201h102v-102h-102v102zM999 101h102v-102h-102v102zM1099 101h102v-102h-102v102zM1199 101
h102v-102h-102v102zM1299 101h102v-102h-102v102zM1399 101h102v-102h-102v102zM1699 601h102v-102h-102v102zM2199 601h102v-102h-102v102zM1699 501h102v-102h-102v102zM1799 501h102v-102h-102v102zM2199 501h102v-102h-102v102zM1699 401h102v-102h-102v102zM1899 401
h102v-102h-102v102zM2199 401h102v-102h-102v102zM1699 301h102v-102h-102v102zM1999 301h102v-102h-102v102zM2199 301h102v-102h-102v102zM1699 201h102v-102h-102v102zM2099 201h102v-102h-102v102zM2199 201h102v-102h-102v102zM1699 101h102v-102h-102v102zM2199 101
h102v-102h-102v102z" />
    <glyph glyph-name="uniF133" unicode="&#xf133;" horiz-adv-x="2400" 
d="M99 0zM199 601h102v-102h-102v102zM299 601h102v-102h-102v102zM399 601h102v-102h-102v102zM499 601h102v-102h-102v102zM99 501h102v-102h-102v102zM599 501h102v-102h-102v102zM99 401h102v-102h-102v102zM99 301h102v-102h-102v102zM99 201h102v-102h-102v102z
M599 201h102v-102h-102v102zM199 101h102v-102h-102v102zM299 101h102v-102h-102v102zM399 101h102v-102h-102v102zM499 101h102v-102h-102v102zM999 601h102v-102h-102v102zM1099 601h102v-102h-102v102zM1199 601h102v-102h-102v102zM1299 601h102v-102h-102v102zM899 501
h102v-102h-102v102zM1399 501h102v-102h-102v102zM899 401h102v-102h-102v102zM1399 401h102v-102h-102v102zM899 301h102v-102h-102v102zM1399 301h102v-102h-102v102zM899 201h102v-102h-102v102zM1399 201h102v-102h-102v102zM999 101h102v-102h-102v102zM1099 101h102
v-102h-102v102zM1199 101h102v-102h-102v102zM1299 101h102v-102h-102v102zM1799 601h102v-102h-102v102zM1899 601h102v-102h-102v102zM1999 601h102v-102h-102v102zM2099 601h102v-102h-102v102zM1699 501h102v-102h-102v102zM1799 401h102v-102h-102v102zM1899 401h102
v-102h-102v102zM1999 401h102v-102h-102v102zM2099 401h102v-102h-102v102zM2199 301h102v-102h-102v102zM1699 201h102v-102h-102v102zM2199 201h102v-102h-102v102zM1799 101h102v-102h-102v102zM1899 101h102v-102h-102v102zM1999 101h102v-102h-102v102zM2099 101h102
v-102h-102v102z" />
    <glyph glyph-name="uniF134" unicode="&#xf134;" horiz-adv-x="2400" 
d="M0 0zM-1 601h102v-102h-102v102zM99 601h102v-102h-102v102zM199 601h102v-102h-102v102zM299 601h102v-102h-102v102zM399 601h102v-102h-102v102zM499 601h102v-102h-102v102zM599 601h102v-102h-102v102zM299 501h102v-102h-102v102zM299 401h102v-102h-102v102z
M299 301h102v-102h-102v102zM299 201h102v-102h-102v102zM299 101h102v-102h-102v102zM999 601h102v-102h-102v102zM1099 601h102v-102h-102v102zM1199 601h102v-102h-102v102zM1299 601h102v-102h-102v102zM899 501h102v-102h-102v102zM1399 501h102v-102h-102v102z
M899 401h102v-102h-102v102zM1399 401h102v-102h-102v102zM899 301h102v-102h-102v102zM999 301h102v-102h-102v102zM1099 301h102v-102h-102v102zM1199 301h102v-102h-102v102zM1299 301h102v-102h-102v102zM1399 301h102v-102h-102v102zM899 201h102v-102h-102v102z
M1399 201h102v-102h-102v102zM899 101h102v-102h-102v102zM1399 101h102v-102h-102v102zM1699 601h102v-102h-102v102zM2199 601h102v-102h-102v102zM1699 501h102v-102h-102v102zM1799 501h102v-102h-102v102zM2199 501h102v-102h-102v102zM1699 401h102v-102h-102v102z
M1899 401h102v-102h-102v102zM2199 401h102v-102h-102v102zM1699 301h102v-102h-102v102zM1999 301h102v-102h-102v102zM2199 301h102v-102h-102v102zM1699 201h102v-102h-102v102zM2099 201h102v-102h-102v102zM2199 201h102v-102h-102v102zM1699 101h102v-102h-102v102z
M2199 101h102v-102h-102v102z" />
    <glyph glyph-name="uniF135" unicode="&#xf135;" horiz-adv-x="2400" 
d="M99 0zM199 601h102v-102h-102v102zM299 601h102v-102h-102v102zM399 601h102v-102h-102v102zM499 601h102v-102h-102v102zM99 501h102v-102h-102v102zM599 501h102v-102h-102v102zM99 401h102v-102h-102v102zM599 401h102v-102h-102v102zM99 301h102v-102h-102v102z
M199 301h102v-102h-102v102zM299 301h102v-102h-102v102zM399 301h102v-102h-102v102zM499 301h102v-102h-102v102zM599 301h102v-102h-102v102zM99 201h102v-102h-102v102zM599 201h102v-102h-102v102zM99 101h102v-102h-102v102zM599 101h102v-102h-102v102zM999 601h102
v-102h-102v102zM1099 601h102v-102h-102v102zM1199 601h102v-102h-102v102zM1299 601h102v-102h-102v102zM899 501h102v-102h-102v102zM999 401h102v-102h-102v102zM1099 401h102v-102h-102v102zM1199 401h102v-102h-102v102zM1299 401h102v-102h-102v102zM1399 301h102
v-102h-102v102zM899 201h102v-102h-102v102zM1399 201h102v-102h-102v102zM999 101h102v-102h-102v102zM1099 101h102v-102h-102v102zM1199 101h102v-102h-102v102zM1299 101h102v-102h-102v102zM1699 601h102v-102h-102v102zM2199 601h102v-102h-102v102zM1699 501h102
v-102h-102v102zM1799 501h102v-102h-102v102zM2199 501h102v-102h-102v102zM1699 401h102v-102h-102v102zM1899 401h102v-102h-102v102zM2199 401h102v-102h-102v102zM1699 301h102v-102h-102v102zM1999 301h102v-102h-102v102zM2199 301h102v-102h-102v102zM1699 201h102
v-102h-102v102zM2099 201h102v-102h-102v102zM2199 201h102v-102h-102v102zM1699 101h102v-102h-102v102zM2199 101h102v-102h-102v102z" />
    <glyph glyph-name="uniF136" unicode="&#xf136;" horiz-adv-x="2400" 
d="M99 0zM199 601h102v-102h-102v102zM299 601h102v-102h-102v102zM399 601h102v-102h-102v102zM499 601h102v-102h-102v102zM99 501h102v-102h-102v102zM599 501h102v-102h-102v102zM99 401h102v-102h-102v102zM599 401h102v-102h-102v102zM99 301h102v-102h-102v102z
M199 301h102v-102h-102v102zM299 301h102v-102h-102v102zM399 301h102v-102h-102v102zM499 301h102v-102h-102v102zM599 301h102v-102h-102v102zM99 201h102v-102h-102v102zM599 201h102v-102h-102v102zM99 101h102v-102h-102v102zM599 101h102v-102h-102v102zM999 601h102
v-102h-102v102zM1099 601h102v-102h-102v102zM1199 601h102v-102h-102v102zM1299 601h102v-102h-102v102zM899 501h102v-102h-102v102zM1399 501h102v-102h-102v102zM899 401h102v-102h-102v102zM899 301h102v-102h-102v102zM899 201h102v-102h-102v102zM1399 201h102v-102
h-102v102zM999 101h102v-102h-102v102zM1099 101h102v-102h-102v102zM1199 101h102v-102h-102v102zM1299 101h102v-102h-102v102zM1799 601h102v-102h-102v102zM1899 601h102v-102h-102v102zM1999 601h102v-102h-102v102zM2099 601h102v-102h-102v102zM1699 501h102v-102
h-102v102zM1799 401h102v-102h-102v102zM1899 401h102v-102h-102v102zM1999 401h102v-102h-102v102zM2099 401h102v-102h-102v102zM2199 301h102v-102h-102v102zM1699 201h102v-102h-102v102zM2199 201h102v-102h-102v102zM1799 101h102v-102h-102v102zM1899 101h102v-102
h-102v102zM1999 101h102v-102h-102v102zM2099 101h102v-102h-102v102z" />
    <glyph glyph-name="uniF137" unicode="&#xf137;" horiz-adv-x="2400" 
d="M99 0zM199 601h102v-102h-102v102zM299 601h102v-102h-102v102zM399 601h102v-102h-102v102zM499 601h102v-102h-102v102zM99 501h102v-102h-102v102zM599 501h102v-102h-102v102zM99 401h102v-102h-102v102zM599 401h102v-102h-102v102zM99 301h102v-102h-102v102z
M199 301h102v-102h-102v102zM299 301h102v-102h-102v102zM399 301h102v-102h-102v102zM499 301h102v-102h-102v102zM599 301h102v-102h-102v102zM99 201h102v-102h-102v102zM599 201h102v-102h-102v102zM99 101h102v-102h-102v102zM599 101h102v-102h-102v102zM799 601h102
v-102h-102v102zM899 601h102v-102h-102v102zM999 601h102v-102h-102v102zM1099 601h102v-102h-102v102zM1199 601h102v-102h-102v102zM1299 601h102v-102h-102v102zM1399 601h102v-102h-102v102zM1099 501h102v-102h-102v102zM1099 401h102v-102h-102v102zM1099 301h102
v-102h-102v102zM1099 201h102v-102h-102v102zM1099 101h102v-102h-102v102zM1699 601h102v-102h-102v102zM2199 601h102v-102h-102v102zM1699 501h102v-102h-102v102zM1799 501h102v-102h-102v102zM2199 501h102v-102h-102v102zM1699 401h102v-102h-102v102zM1899 401h102
v-102h-102v102zM2199 401h102v-102h-102v102zM1699 301h102v-102h-102v102zM1999 301h102v-102h-102v102zM2199 301h102v-102h-102v102zM1699 201h102v-102h-102v102zM2099 201h102v-102h-102v102zM2199 201h102v-102h-102v102zM1699 101h102v-102h-102v102zM2199 101h102
v-102h-102v102z" />
    <glyph glyph-name="uniF138" unicode="&#xf138;" horiz-adv-x="1600" 
d="M99 0zM99 601h102v-102h-102v102zM99 501h102v-102h-102v102zM99 401h102v-102h-102v102zM99 301h102v-102h-102v102zM99 201h102v-102h-102v102zM99 101h102v-102h-102v102zM199 101h102v-102h-102v102zM299 101h102v-102h-102v102zM399 101h102v-102h-102v102zM499 101
h102v-102h-102v102zM599 101h102v-102h-102v102zM899 601h102v-102h-102v102zM1399 601h102v-102h-102v102zM899 501h102v-102h-102v102zM999 501h102v-102h-102v102zM1399 501h102v-102h-102v102zM899 401h102v-102h-102v102zM1099 401h102v-102h-102v102zM1399 401h102
v-102h-102v102zM899 301h102v-102h-102v102zM1199 301h102v-102h-102v102zM1399 301h102v-102h-102v102zM899 201h102v-102h-102v102zM1299 201h102v-102h-102v102zM1399 201h102v-102h-102v102zM899 101h102v-102h-102v102zM1399 101h102v-102h-102v102z" />
    <glyph glyph-name="uniF139" unicode="&#xf139;" horiz-adv-x="2400" 
d="M99 0zM99 601h102v-102h-102v102zM199 601h102v-102h-102v102zM299 601h102v-102h-102v102zM399 601h102v-102h-102v102zM499 601h102v-102h-102v102zM599 601h102v-102h-102v102zM99 501h102v-102h-102v102zM99 401h102v-102h-102v102zM199 401h102v-102h-102v102z
M299 401h102v-102h-102v102zM399 401h102v-102h-102v102zM499 401h102v-102h-102v102zM99 301h102v-102h-102v102zM99 201h102v-102h-102v102zM99 101h102v-102h-102v102zM199 101h102v-102h-102v102zM299 101h102v-102h-102v102zM399 101h102v-102h-102v102zM499 101h102
v-102h-102v102zM599 101h102v-102h-102v102zM899 601h102v-102h-102v102zM1399 601h102v-102h-102v102zM999 501h102v-102h-102v102zM1299 501h102v-102h-102v102zM1099 401h102v-102h-102v102zM1199 401h102v-102h-102v102zM1099 301h102v-102h-102v102zM1199 301h102v-102
h-102v102zM999 201h102v-102h-102v102zM1299 201h102v-102h-102v102zM899 101h102v-102h-102v102zM1399 101h102v-102h-102v102zM1699 601h102v-102h-102v102zM1799 601h102v-102h-102v102zM1899 601h102v-102h-102v102zM1999 601h102v-102h-102v102zM2099 601h102v-102
h-102v102zM1699 501h102v-102h-102v102zM2199 501h102v-102h-102v102zM1699 401h102v-102h-102v102zM2199 401h102v-102h-102v102zM1699 301h102v-102h-102v102zM1799 301h102v-102h-102v102zM1899 301h102v-102h-102v102zM1999 301h102v-102h-102v102zM2099 301h102v-102
h-102v102zM1699 201h102v-102h-102v102zM1699 101h102v-102h-102v102z" />
    <glyph glyph-name="uniF13A" unicode="&#xf13a;" horiz-adv-x="2400" 
d="M199 0zM199 601h102v-102h-102v102zM299 601h102v-102h-102v102zM399 601h102v-102h-102v102zM499 601h102v-102h-102v102zM599 601h102v-102h-102v102zM399 501h102v-102h-102v102zM399 401h102v-102h-102v102zM399 301h102v-102h-102v102zM399 201h102v-102h-102v102z
M199 101h102v-102h-102v102zM299 101h102v-102h-102v102zM399 101h102v-102h-102v102zM499 101h102v-102h-102v102zM599 101h102v-102h-102v102zM899 601h102v-102h-102v102zM1399 601h102v-102h-102v102zM899 501h102v-102h-102v102zM999 501h102v-102h-102v102zM1399 501
h102v-102h-102v102zM899 401h102v-102h-102v102zM1099 401h102v-102h-102v102zM1399 401h102v-102h-102v102zM899 301h102v-102h-102v102zM1199 301h102v-102h-102v102zM1399 301h102v-102h-102v102zM899 201h102v-102h-102v102zM1299 201h102v-102h-102v102zM1399 201h102
v-102h-102v102zM899 101h102v-102h-102v102zM1399 101h102v-102h-102v102zM1599 601h102v-102h-102v102zM1699 601h102v-102h-102v102zM1799 601h102v-102h-102v102zM1899 601h102v-102h-102v102zM1999 601h102v-102h-102v102zM2099 601h102v-102h-102v102zM2199 601h102
v-102h-102v102zM1899 501h102v-102h-102v102zM1899 401h102v-102h-102v102zM1899 301h102v-102h-102v102zM1899 201h102v-102h-102v102zM1899 101h102v-102h-102v102z" />
    <glyph glyph-name="uniF13B" unicode="&#xf13b;" horiz-adv-x="2400" 
d="M99 0zM199 601h102v-102h-102v102zM299 601h102v-102h-102v102zM399 601h102v-102h-102v102zM499 601h102v-102h-102v102zM99 501h102v-102h-102v102zM199 401h102v-102h-102v102zM299 401h102v-102h-102v102zM399 401h102v-102h-102v102zM499 401h102v-102h-102v102z
M599 301h102v-102h-102v102zM99 201h102v-102h-102v102zM599 201h102v-102h-102v102zM199 101h102v-102h-102v102zM299 101h102v-102h-102v102zM399 101h102v-102h-102v102zM499 101h102v-102h-102v102zM999 601h102v-102h-102v102zM1099 601h102v-102h-102v102zM1199 601
h102v-102h-102v102zM1299 601h102v-102h-102v102zM899 501h102v-102h-102v102zM1399 501h102v-102h-102v102zM899 401h102v-102h-102v102zM1399 401h102v-102h-102v102zM899 301h102v-102h-102v102zM1099 301h102v-102h-102v102zM1399 301h102v-102h-102v102zM899 201h102
v-102h-102v102zM1199 201h102v-102h-102v102zM1399 201h102v-102h-102v102zM999 101h102v-102h-102v102zM1099 101h102v-102h-102v102zM1199 101h102v-102h-102v102zM1299 101h102v-102h-102v102zM1699 601h102v-102h-102v102zM1799 601h102v-102h-102v102zM1899 601h102
v-102h-102v102zM1999 601h102v-102h-102v102zM2099 601h102v-102h-102v102zM1699 501h102v-102h-102v102zM2199 501h102v-102h-102v102zM1699 401h102v-102h-102v102zM2199 401h102v-102h-102v102zM1699 301h102v-102h-102v102zM1799 301h102v-102h-102v102zM1899 301h102
v-102h-102v102zM1999 301h102v-102h-102v102zM2099 301h102v-102h-102v102zM1699 201h102v-102h-102v102zM2099 201h102v-102h-102v102zM1699 101h102v-102h-102v102zM2199 101h102v-102h-102v102z" />
    <glyph glyph-name="uniF13C" unicode="&#xf13c;" horiz-adv-x="2400" 
d="M99 0zM199 601h102v-102h-102v102zM299 601h102v-102h-102v102zM399 601h102v-102h-102v102zM499 601h102v-102h-102v102zM99 501h102v-102h-102v102zM199 401h102v-102h-102v102zM299 401h102v-102h-102v102zM399 401h102v-102h-102v102zM499 401h102v-102h-102v102z
M599 301h102v-102h-102v102zM99 201h102v-102h-102v102zM599 201h102v-102h-102v102zM199 101h102v-102h-102v102zM299 101h102v-102h-102v102zM399 101h102v-102h-102v102zM499 101h102v-102h-102v102zM999 601h102v-102h-102v102zM1099 601h102v-102h-102v102zM1199 601
h102v-102h-102v102zM1299 601h102v-102h-102v102zM899 501h102v-102h-102v102zM1399 501h102v-102h-102v102zM899 401h102v-102h-102v102zM899 301h102v-102h-102v102zM1199 301h102v-102h-102v102zM1299 301h102v-102h-102v102zM1399 301h102v-102h-102v102zM899 201h102
v-102h-102v102zM1399 201h102v-102h-102v102zM999 101h102v-102h-102v102zM1099 101h102v-102h-102v102zM1199 101h102v-102h-102v102zM1299 101h102v-102h-102v102zM1699 601h102v-102h-102v102zM2199 601h102v-102h-102v102zM1699 501h102v-102h-102v102zM1799 501h102
v-102h-102v102zM2199 501h102v-102h-102v102zM1699 401h102v-102h-102v102zM1899 401h102v-102h-102v102zM2199 401h102v-102h-102v102zM1699 301h102v-102h-102v102zM1999 301h102v-102h-102v102zM2199 301h102v-102h-102v102zM1699 201h102v-102h-102v102zM2099 201h102
v-102h-102v102zM2199 201h102v-102h-102v102zM1699 101h102v-102h-102v102zM2199 101h102v-102h-102v102z" />
    <glyph glyph-name="uniF13D" unicode="&#xf13d;" horiz-adv-x="2400" 
d="M99 0zM199 601h102v-102h-102v102zM299 601h102v-102h-102v102zM399 601h102v-102h-102v102zM499 601h102v-102h-102v102zM99 501h102v-102h-102v102zM599 501h102v-102h-102v102zM99 401h102v-102h-102v102zM599 401h102v-102h-102v102zM99 301h102v-102h-102v102z
M199 301h102v-102h-102v102zM299 301h102v-102h-102v102zM399 301h102v-102h-102v102zM499 301h102v-102h-102v102zM599 301h102v-102h-102v102zM99 201h102v-102h-102v102zM599 201h102v-102h-102v102zM99 101h102v-102h-102v102zM599 101h102v-102h-102v102zM899 601h102
v-102h-102v102zM999 601h102v-102h-102v102zM1099 601h102v-102h-102v102zM1199 601h102v-102h-102v102zM1299 601h102v-102h-102v102zM899 501h102v-102h-102v102zM1399 501h102v-102h-102v102zM899 401h102v-102h-102v102zM999 401h102v-102h-102v102zM1099 401h102v-102
h-102v102zM1199 401h102v-102h-102v102zM1299 401h102v-102h-102v102zM899 301h102v-102h-102v102zM1399 301h102v-102h-102v102zM899 201h102v-102h-102v102zM1399 201h102v-102h-102v102zM899 101h102v-102h-102v102zM999 101h102v-102h-102v102zM1099 101h102v-102h-102
v102zM1199 101h102v-102h-102v102zM1299 101h102v-102h-102v102zM1799 601h102v-102h-102v102zM1899 601h102v-102h-102v102zM1999 601h102v-102h-102v102zM2099 601h102v-102h-102v102zM1699 501h102v-102h-102v102zM1799 401h102v-102h-102v102zM1899 401h102v-102h-102
v102zM1999 401h102v-102h-102v102zM2099 401h102v-102h-102v102zM2199 301h102v-102h-102v102zM1699 201h102v-102h-102v102zM2199 201h102v-102h-102v102zM1799 101h102v-102h-102v102zM1899 101h102v-102h-102v102zM1999 101h102v-102h-102v102zM2099 101h102v-102h-102
v102z" />
    <glyph glyph-name="uniF13E" unicode="&#xf13e;" horiz-adv-x="3200" 
d="M99 0zM99 601h102v-102h-102v102zM199 601h102v-102h-102v102zM299 601h102v-102h-102v102zM399 601h102v-102h-102v102zM499 601h102v-102h-102v102zM99 501h102v-102h-102v102zM599 501h102v-102h-102v102zM99 401h102v-102h-102v102zM599 401h102v-102h-102v102z
M99 301h102v-102h-102v102zM199 301h102v-102h-102v102zM299 301h102v-102h-102v102zM399 301h102v-102h-102v102zM499 301h102v-102h-102v102zM99 201h102v-102h-102v102zM99 101h102v-102h-102v102zM899 601h102v-102h-102v102zM999 601h102v-102h-102v102zM1099 601h102
v-102h-102v102zM1199 601h102v-102h-102v102zM1299 601h102v-102h-102v102zM1399 601h102v-102h-102v102zM899 501h102v-102h-102v102zM899 401h102v-102h-102v102zM999 401h102v-102h-102v102zM1099 401h102v-102h-102v102zM1199 401h102v-102h-102v102zM1299 401h102v-102
h-102v102zM899 301h102v-102h-102v102zM899 201h102v-102h-102v102zM899 101h102v-102h-102v102zM999 101h102v-102h-102v102zM1099 101h102v-102h-102v102zM1199 101h102v-102h-102v102zM1299 101h102v-102h-102v102zM1399 101h102v-102h-102v102zM1699 601h102v-102h-102
v102zM1799 601h102v-102h-102v102zM1899 601h102v-102h-102v102zM1999 601h102v-102h-102v102zM2099 601h102v-102h-102v102zM2199 601h102v-102h-102v102zM1699 501h102v-102h-102v102zM1699 401h102v-102h-102v102zM1799 401h102v-102h-102v102zM1899 401h102v-102h-102
v102zM1999 401h102v-102h-102v102zM2099 401h102v-102h-102v102zM1699 301h102v-102h-102v102zM1699 201h102v-102h-102v102zM1699 101h102v-102h-102v102zM1799 101h102v-102h-102v102zM1899 101h102v-102h-102v102zM1999 101h102v-102h-102v102zM2099 101h102v-102h-102
v102zM2199 101h102v-102h-102v102zM2499 601h102v-102h-102v102zM2899 601h102v-102h-102v102zM2499 501h102v-102h-102v102zM2799 501h102v-102h-102v102zM2499 401h102v-102h-102v102zM2599 401h102v-102h-102v102zM2699 401h102v-102h-102v102zM2499 301h102v-102h-102
v102zM2799 301h102v-102h-102v102zM2499 201h102v-102h-102v102zM2899 201h102v-102h-102v102zM2499 101h102v-102h-102v102zM2999 101h102v-102h-102v102z" />
    <glyph glyph-name="uniF13F" unicode="&#xf13f;" horiz-adv-x="1600" 
d="M199 0zM199 601h102v-102h-102v102zM299 601h102v-102h-102v102zM399 601h102v-102h-102v102zM499 601h102v-102h-102v102zM599 601h102v-102h-102v102zM399 501h102v-102h-102v102zM399 401h102v-102h-102v102zM399 301h102v-102h-102v102zM399 201h102v-102h-102v102z
M199 101h102v-102h-102v102zM299 101h102v-102h-102v102zM399 101h102v-102h-102v102zM499 101h102v-102h-102v102zM599 101h102v-102h-102v102zM899 601h102v-102h-102v102zM1399 601h102v-102h-102v102zM899 501h102v-102h-102v102zM999 501h102v-102h-102v102zM1399 501
h102v-102h-102v102zM899 401h102v-102h-102v102zM1099 401h102v-102h-102v102zM1399 401h102v-102h-102v102zM899 301h102v-102h-102v102zM1199 301h102v-102h-102v102zM1399 301h102v-102h-102v102zM899 201h102v-102h-102v102zM1299 201h102v-102h-102v102zM1399 201h102
v-102h-102v102zM899 101h102v-102h-102v102zM1399 101h102v-102h-102v102z" />
    <glyph glyph-name="uniF140" unicode="&#xf140;" horiz-adv-x="2400" 
d="M99 0zM99 601h102v-102h-102v102zM599 601h102v-102h-102v102zM99 501h102v-102h-102v102zM599 501h102v-102h-102v102zM99 401h102v-102h-102v102zM599 401h102v-102h-102v102zM99 301h102v-102h-102v102zM599 301h102v-102h-102v102zM99 201h102v-102h-102v102z
M599 201h102v-102h-102v102zM199 101h102v-102h-102v102zM299 101h102v-102h-102v102zM399 101h102v-102h-102v102zM499 101h102v-102h-102v102zM999 601h102v-102h-102v102zM1099 601h102v-102h-102v102zM1199 601h102v-102h-102v102zM1299 601h102v-102h-102v102zM899 501
h102v-102h-102v102zM999 401h102v-102h-102v102zM1099 401h102v-102h-102v102zM1199 401h102v-102h-102v102zM1299 401h102v-102h-102v102zM1399 301h102v-102h-102v102zM899 201h102v-102h-102v102zM1399 201h102v-102h-102v102zM999 101h102v-102h-102v102zM1099 101h102
v-102h-102v102zM1199 101h102v-102h-102v102zM1299 101h102v-102h-102v102zM1699 601h102v-102h-102v102zM1799 601h102v-102h-102v102zM1899 601h102v-102h-102v102zM1999 601h102v-102h-102v102zM2099 601h102v-102h-102v102zM1699 501h102v-102h-102v102zM2199 501h102
v-102h-102v102zM1699 401h102v-102h-102v102zM2199 401h102v-102h-102v102zM1699 301h102v-102h-102v102zM1799 301h102v-102h-102v102zM1899 301h102v-102h-102v102zM1999 301h102v-102h-102v102zM2099 301h102v-102h-102v102zM1699 201h102v-102h-102v102zM2099 201h102
v-102h-102v102zM1699 101h102v-102h-102v102zM2199 101h102v-102h-102v102z" />
    <glyph glyph-name="uniF141" unicode="&#xf141;" horiz-adv-x="3200" 
d="M99 0zM199 601h102v-102h-102v102zM299 601h102v-102h-102v102zM399 601h102v-102h-102v102zM499 601h102v-102h-102v102zM99 501h102v-102h-102v102zM199 401h102v-102h-102v102zM299 401h102v-102h-102v102zM399 401h102v-102h-102v102zM499 401h102v-102h-102v102z
M599 301h102v-102h-102v102zM99 201h102v-102h-102v102zM599 201h102v-102h-102v102zM199 101h102v-102h-102v102zM299 101h102v-102h-102v102zM399 101h102v-102h-102v102zM499 101h102v-102h-102v102zM799 601h102v-102h-102v102zM899 601h102v-102h-102v102zM999 601h102
v-102h-102v102zM1099 601h102v-102h-102v102zM1199 601h102v-102h-102v102zM1299 601h102v-102h-102v102zM1399 601h102v-102h-102v102zM1099 501h102v-102h-102v102zM1099 401h102v-102h-102v102zM1099 301h102v-102h-102v102zM1099 201h102v-102h-102v102zM1099 101h102
v-102h-102v102zM1699 601h102v-102h-102v102zM1799 601h102v-102h-102v102zM1899 601h102v-102h-102v102zM1999 601h102v-102h-102v102zM2099 601h102v-102h-102v102zM1699 501h102v-102h-102v102zM2199 501h102v-102h-102v102zM1699 401h102v-102h-102v102zM2199 401h102
v-102h-102v102zM1699 301h102v-102h-102v102zM1799 301h102v-102h-102v102zM1899 301h102v-102h-102v102zM1999 301h102v-102h-102v102zM2099 301h102v-102h-102v102zM1699 201h102v-102h-102v102zM2099 201h102v-102h-102v102zM1699 101h102v-102h-102v102zM2199 101h102
v-102h-102v102zM2799 601h102v-102h-102v102zM2599 501h102v-102h-102v102zM2699 501h102v-102h-102v102zM2799 501h102v-102h-102v102zM2899 501h102v-102h-102v102zM2999 501h102v-102h-102v102zM2599 401h102v-102h-102v102zM2799 401h102v-102h-102v102zM2599 301h102
v-102h-102v102zM2699 301h102v-102h-102v102zM2799 301h102v-102h-102v102zM2899 301h102v-102h-102v102zM2999 301h102v-102h-102v102zM2799 201h102v-102h-102v102zM2999 201h102v-102h-102v102zM2599 101h102v-102h-102v102zM2699 101h102v-102h-102v102zM2799 101h102
v-102h-102v102zM2899 101h102v-102h-102v102zM2999 101h102v-102h-102v102zM2799 1h102v-102h-102v102z" />
    <glyph glyph-name="uniF142" unicode="&#xf142;" horiz-adv-x="3200" 
d="M99 0zM199 601h102v-102h-102v102zM299 601h102v-102h-102v102zM399 601h102v-102h-102v102zM499 601h102v-102h-102v102zM99 501h102v-102h-102v102zM599 501h102v-102h-102v102zM99 401h102v-102h-102v102zM99 301h102v-102h-102v102zM99 201h102v-102h-102v102z
M599 201h102v-102h-102v102zM199 101h102v-102h-102v102zM299 101h102v-102h-102v102zM399 101h102v-102h-102v102zM499 101h102v-102h-102v102zM899 601h102v-102h-102v102zM1399 601h102v-102h-102v102zM899 501h102v-102h-102v102zM1399 501h102v-102h-102v102zM899 401
h102v-102h-102v102zM999 401h102v-102h-102v102zM1099 401h102v-102h-102v102zM1199 401h102v-102h-102v102zM1299 401h102v-102h-102v102zM1399 401h102v-102h-102v102zM899 301h102v-102h-102v102zM1399 301h102v-102h-102v102zM899 201h102v-102h-102v102zM1399 201h102
v-102h-102v102zM899 101h102v-102h-102v102zM1399 101h102v-102h-102v102zM1699 601h102v-102h-102v102zM1799 601h102v-102h-102v102zM1899 601h102v-102h-102v102zM1999 601h102v-102h-102v102zM2099 601h102v-102h-102v102zM1699 501h102v-102h-102v102zM2199 501h102
v-102h-102v102zM1699 401h102v-102h-102v102zM2199 401h102v-102h-102v102zM1699 301h102v-102h-102v102zM1799 301h102v-102h-102v102zM1899 301h102v-102h-102v102zM1999 301h102v-102h-102v102zM2099 301h102v-102h-102v102zM1699 201h102v-102h-102v102zM2099 201h102
v-102h-102v102zM1699 101h102v-102h-102v102zM2199 101h102v-102h-102v102zM2799 601h102v-102h-102v102zM2599 501h102v-102h-102v102zM2699 501h102v-102h-102v102zM2799 501h102v-102h-102v102zM2899 501h102v-102h-102v102zM2999 501h102v-102h-102v102zM2599 401h102
v-102h-102v102zM2799 401h102v-102h-102v102zM2599 301h102v-102h-102v102zM2699 301h102v-102h-102v102zM2799 301h102v-102h-102v102zM2899 301h102v-102h-102v102zM2999 301h102v-102h-102v102zM2799 201h102v-102h-102v102zM2999 201h102v-102h-102v102zM2599 101h102
v-102h-102v102zM2699 101h102v-102h-102v102zM2799 101h102v-102h-102v102zM2899 101h102v-102h-102v102zM2999 101h102v-102h-102v102zM2799 1h102v-102h-102v102z" />
    <glyph glyph-name="uniF143" unicode="&#xf143;" horiz-adv-x="2400" 
d="M99 0zM99 601h102v-102h-102v102zM599 601h102v-102h-102v102zM99 501h102v-102h-102v102zM199 501h102v-102h-102v102zM599 501h102v-102h-102v102zM99 401h102v-102h-102v102zM299 401h102v-102h-102v102zM599 401h102v-102h-102v102zM99 301h102v-102h-102v102z
M399 301h102v-102h-102v102zM599 301h102v-102h-102v102zM99 201h102v-102h-102v102zM499 201h102v-102h-102v102zM599 201h102v-102h-102v102zM99 101h102v-102h-102v102zM599 101h102v-102h-102v102zM999 601h102v-102h-102v102zM1099 601h102v-102h-102v102zM1199 601
h102v-102h-102v102zM1299 601h102v-102h-102v102zM899 501h102v-102h-102v102zM1399 501h102v-102h-102v102zM899 401h102v-102h-102v102zM1399 401h102v-102h-102v102zM899 301h102v-102h-102v102zM1399 301h102v-102h-102v102zM899 201h102v-102h-102v102zM1399 201h102
v-102h-102v102zM999 101h102v-102h-102v102zM1099 101h102v-102h-102v102zM1199 101h102v-102h-102v102zM1299 101h102v-102h-102v102zM1599 601h102v-102h-102v102zM1699 601h102v-102h-102v102zM1799 601h102v-102h-102v102zM1899 601h102v-102h-102v102zM1999 601h102
v-102h-102v102zM2099 601h102v-102h-102v102zM2199 601h102v-102h-102v102zM1899 501h102v-102h-102v102zM1899 401h102v-102h-102v102zM1899 301h102v-102h-102v102zM1899 201h102v-102h-102v102zM1899 101h102v-102h-102v102z" />
    <glyph glyph-name="uniF144" unicode="&#xf144;" horiz-adv-x="2400" 
d="M99 0zM99 601h102v-102h-102v102zM199 601h102v-102h-102v102zM299 601h102v-102h-102v102zM399 601h102v-102h-102v102zM499 601h102v-102h-102v102zM99 501h102v-102h-102v102zM599 501h102v-102h-102v102zM99 401h102v-102h-102v102zM199 401h102v-102h-102v102z
M299 401h102v-102h-102v102zM399 401h102v-102h-102v102zM499 401h102v-102h-102v102zM99 301h102v-102h-102v102zM599 301h102v-102h-102v102zM99 201h102v-102h-102v102zM599 201h102v-102h-102v102zM99 101h102v-102h-102v102zM199 101h102v-102h-102v102zM299 101h102
v-102h-102v102zM399 101h102v-102h-102v102zM499 101h102v-102h-102v102zM999 601h102v-102h-102v102zM1099 601h102v-102h-102v102zM1199 601h102v-102h-102v102zM1299 601h102v-102h-102v102zM1399 601h102v-102h-102v102zM1199 501h102v-102h-102v102zM1199 401h102v-102
h-102v102zM1199 301h102v-102h-102v102zM1199 201h102v-102h-102v102zM999 101h102v-102h-102v102zM1099 101h102v-102h-102v102zM1199 101h102v-102h-102v102zM1299 101h102v-102h-102v102zM1399 101h102v-102h-102v102zM1699 601h102v-102h-102v102zM2199 601h102v-102
h-102v102zM1699 501h102v-102h-102v102zM1799 501h102v-102h-102v102zM2199 501h102v-102h-102v102zM1699 401h102v-102h-102v102zM1899 401h102v-102h-102v102zM2199 401h102v-102h-102v102zM1699 301h102v-102h-102v102zM1999 301h102v-102h-102v102zM2199 301h102v-102
h-102v102zM1699 201h102v-102h-102v102zM2099 201h102v-102h-102v102zM2199 201h102v-102h-102v102zM1699 101h102v-102h-102v102zM2199 101h102v-102h-102v102z" />
    <glyph glyph-name="uniF145" unicode="&#xf145;" horiz-adv-x="1600" 
d="M99 0zM199 601h102v-102h-102v102zM299 601h102v-102h-102v102zM399 601h102v-102h-102v102zM499 601h102v-102h-102v102zM99 501h102v-102h-102v102zM599 501h102v-102h-102v102zM99 401h102v-102h-102v102zM599 401h102v-102h-102v102zM99 301h102v-102h-102v102z
M599 301h102v-102h-102v102zM99 201h102v-102h-102v102zM599 201h102v-102h-102v102zM199 101h102v-102h-102v102zM299 101h102v-102h-102v102zM399 101h102v-102h-102v102zM499 101h102v-102h-102v102zM899 601h102v-102h-102v102zM999 601h102v-102h-102v102zM1099 601
h102v-102h-102v102zM1199 601h102v-102h-102v102zM1299 601h102v-102h-102v102zM899 501h102v-102h-102v102zM1399 501h102v-102h-102v102zM899 401h102v-102h-102v102zM1399 401h102v-102h-102v102zM899 301h102v-102h-102v102zM999 301h102v-102h-102v102zM1099 301h102
v-102h-102v102zM1199 301h102v-102h-102v102zM1299 301h102v-102h-102v102zM899 201h102v-102h-102v102zM1299 201h102v-102h-102v102zM899 101h102v-102h-102v102zM1399 101h102v-102h-102v102z" />
    <glyph glyph-name="uniF146" unicode="&#xf146;" horiz-adv-x="2400" 
d="M99 0zM199 601h102v-102h-102v102zM299 601h102v-102h-102v102zM399 601h102v-102h-102v102zM499 601h102v-102h-102v102zM99 501h102v-102h-102v102zM599 501h102v-102h-102v102zM99 401h102v-102h-102v102zM599 401h102v-102h-102v102zM99 301h102v-102h-102v102z
M199 301h102v-102h-102v102zM299 301h102v-102h-102v102zM399 301h102v-102h-102v102zM499 301h102v-102h-102v102zM599 301h102v-102h-102v102zM99 201h102v-102h-102v102zM599 201h102v-102h-102v102zM99 101h102v-102h-102v102zM599 101h102v-102h-102v102zM899 601h102
v-102h-102v102zM1399 601h102v-102h-102v102zM899 501h102v-102h-102v102zM999 501h102v-102h-102v102zM1399 501h102v-102h-102v102zM899 401h102v-102h-102v102zM1099 401h102v-102h-102v102zM1399 401h102v-102h-102v102zM899 301h102v-102h-102v102zM1199 301h102v-102
h-102v102zM1399 301h102v-102h-102v102zM899 201h102v-102h-102v102zM1299 201h102v-102h-102v102zM1399 201h102v-102h-102v102zM899 101h102v-102h-102v102zM1399 101h102v-102h-102v102zM1699 601h102v-102h-102v102zM1799 601h102v-102h-102v102zM1899 601h102v-102
h-102v102zM1999 601h102v-102h-102v102zM1699 501h102v-102h-102v102zM2099 501h102v-102h-102v102zM1699 401h102v-102h-102v102zM2199 401h102v-102h-102v102zM1699 301h102v-102h-102v102zM2199 301h102v-102h-102v102zM1699 201h102v-102h-102v102zM2099 201h102v-102
h-102v102zM1699 101h102v-102h-102v102zM1799 101h102v-102h-102v102zM1899 101h102v-102h-102v102zM1999 101h102v-102h-102v102z" />
    <glyph glyph-name="uniF147" unicode="&#xf147;" horiz-adv-x="1600" 
d="M299 0zM499 501h102v-102h-102v102zM399 401h102v-102h-102v102zM299 301h102v-102h-102v102zM399 201h102v-102h-102v102zM499 101h102v-102h-102v102zM999 401h102v-102h-102v102zM1099 401h102v-102h-102v102zM1199 401h102v-102h-102v102zM1299 401h102v-102h-102
v102zM1399 401h102v-102h-102v102zM999 201h102v-102h-102v102zM1099 201h102v-102h-102v102zM1199 201h102v-102h-102v102zM1299 201h102v-102h-102v102zM1399 201h102v-102h-102v102z" />
    <glyph glyph-name="uniF148" unicode="&#xf148;" horiz-adv-x="1600" 
d="M299 0zM299 501h102v-102h-102v102zM399 401h102v-102h-102v102zM499 301h102v-102h-102v102zM399 201h102v-102h-102v102zM299 101h102v-102h-102v102zM999 401h102v-102h-102v102zM1099 401h102v-102h-102v102zM1199 401h102v-102h-102v102zM1299 401h102v-102h-102
v102zM1399 401h102v-102h-102v102zM999 201h102v-102h-102v102zM1099 201h102v-102h-102v102zM1199 201h102v-102h-102v102zM1299 201h102v-102h-102v102zM1399 201h102v-102h-102v102z" />
    <glyph glyph-name="uniF149" unicode="&#xf149;" horiz-adv-x="1600" 
d="M299 0zM499 501h102v-102h-102v102zM399 401h102v-102h-102v102zM299 301h102v-102h-102v102zM399 201h102v-102h-102v102zM499 101h102v-102h-102v102zM1099 501h102v-102h-102v102zM1199 401h102v-102h-102v102zM1299 301h102v-102h-102v102zM1199 201h102v-102h-102
v102zM1099 101h102v-102h-102v102z" />
    <glyph glyph-name="uniF14A" unicode="&#xf14a;" horiz-adv-x="3200" 
d="M99 0zM99 601h102v-102h-102v102zM99 501h102v-102h-102v102zM99 401h102v-102h-102v102zM99 301h102v-102h-102v102zM99 201h102v-102h-102v102zM99 101h102v-102h-102v102zM199 101h102v-102h-102v102zM299 101h102v-102h-102v102zM399 101h102v-102h-102v102zM499 101
h102v-102h-102v102zM599 101h102v-102h-102v102zM999 601h102v-102h-102v102zM1099 601h102v-102h-102v102zM1199 601h102v-102h-102v102zM1299 601h102v-102h-102v102zM1399 601h102v-102h-102v102zM1199 501h102v-102h-102v102zM1199 401h102v-102h-102v102zM1199 301h102
v-102h-102v102zM1199 201h102v-102h-102v102zM999 101h102v-102h-102v102zM1099 101h102v-102h-102v102zM1199 101h102v-102h-102v102zM1299 101h102v-102h-102v102zM1399 101h102v-102h-102v102zM1699 601h102v-102h-102v102zM2199 601h102v-102h-102v102zM1699 501h102
v-102h-102v102zM1799 501h102v-102h-102v102zM2199 501h102v-102h-102v102zM1699 401h102v-102h-102v102zM1899 401h102v-102h-102v102zM2199 401h102v-102h-102v102zM1699 301h102v-102h-102v102zM1999 301h102v-102h-102v102zM2199 301h102v-102h-102v102zM1699 201h102
v-102h-102v102zM2099 201h102v-102h-102v102zM2199 201h102v-102h-102v102zM1699 101h102v-102h-102v102zM2199 101h102v-102h-102v102zM2499 601h102v-102h-102v102zM2599 601h102v-102h-102v102zM2699 601h102v-102h-102v102zM2799 601h102v-102h-102v102zM2899 601h102
v-102h-102v102zM2999 601h102v-102h-102v102zM2499 501h102v-102h-102v102zM2499 401h102v-102h-102v102zM2599 401h102v-102h-102v102zM2699 401h102v-102h-102v102zM2799 401h102v-102h-102v102zM2899 401h102v-102h-102v102zM2499 301h102v-102h-102v102zM2499 201h102
v-102h-102v102zM2499 101h102v-102h-102v102zM2599 101h102v-102h-102v102zM2699 101h102v-102h-102v102zM2799 101h102v-102h-102v102zM2899 101h102v-102h-102v102zM2999 101h102v-102h-102v102z" />
    <glyph glyph-name="uniF14B" unicode="&#xf14b;" horiz-adv-x="3200" 
d="M0 0zM-1 601h102v-102h-102v102zM99 601h102v-102h-102v102zM199 601h102v-102h-102v102zM299 601h102v-102h-102v102zM399 601h102v-102h-102v102zM499 601h102v-102h-102v102zM599 601h102v-102h-102v102zM299 501h102v-102h-102v102zM299 401h102v-102h-102v102z
M299 301h102v-102h-102v102zM299 201h102v-102h-102v102zM299 101h102v-102h-102v102zM899 601h102v-102h-102v102zM1399 601h102v-102h-102v102zM899 501h102v-102h-102v102zM1399 501h102v-102h-102v102zM899 401h102v-102h-102v102zM999 401h102v-102h-102v102zM1099 401
h102v-102h-102v102zM1199 401h102v-102h-102v102zM1299 401h102v-102h-102v102zM1399 401h102v-102h-102v102zM899 301h102v-102h-102v102zM1399 301h102v-102h-102v102zM899 201h102v-102h-102v102zM1399 201h102v-102h-102v102zM899 101h102v-102h-102v102zM1399 101h102
v-102h-102v102zM1699 601h102v-102h-102v102zM1799 601h102v-102h-102v102zM1899 601h102v-102h-102v102zM1999 601h102v-102h-102v102zM2099 601h102v-102h-102v102zM2199 601h102v-102h-102v102zM1699 501h102v-102h-102v102zM1699 401h102v-102h-102v102zM1799 401h102
v-102h-102v102zM1899 401h102v-102h-102v102zM1999 401h102v-102h-102v102zM2099 401h102v-102h-102v102zM1699 301h102v-102h-102v102zM1699 201h102v-102h-102v102zM1699 101h102v-102h-102v102zM1799 101h102v-102h-102v102zM1899 101h102v-102h-102v102zM1999 101h102
v-102h-102v102zM2099 101h102v-102h-102v102zM2199 101h102v-102h-102v102zM2499 601h102v-102h-102v102zM2999 601h102v-102h-102v102zM2499 501h102v-102h-102v102zM2599 501h102v-102h-102v102zM2999 501h102v-102h-102v102zM2499 401h102v-102h-102v102zM2699 401h102
v-102h-102v102zM2999 401h102v-102h-102v102zM2499 301h102v-102h-102v102zM2799 301h102v-102h-102v102zM2999 301h102v-102h-102v102zM2499 201h102v-102h-102v102zM2899 201h102v-102h-102v102zM2999 201h102v-102h-102v102zM2499 101h102v-102h-102v102zM2999 101h102
v-102h-102v102z" />
    <glyph glyph-name="uniF14C" unicode="&#xf14c;" horiz-adv-x="1600" 
d="M0 0zM-1 601h102v-102h-102v102zM99 601h102v-102h-102v102zM199 601h102v-102h-102v102zM299 601h102v-102h-102v102zM399 601h102v-102h-102v102zM499 601h102v-102h-102v102zM599 601h102v-102h-102v102zM299 501h102v-102h-102v102zM299 401h102v-102h-102v102z
M299 301h102v-102h-102v102zM299 201h102v-102h-102v102zM299 101h102v-102h-102v102zM999 601h102v-102h-102v102zM1099 601h102v-102h-102v102zM1199 601h102v-102h-102v102zM1299 601h102v-102h-102v102zM899 501h102v-102h-102v102zM1399 501h102v-102h-102v102z
M899 401h102v-102h-102v102zM1399 401h102v-102h-102v102zM899 301h102v-102h-102v102zM1399 301h102v-102h-102v102zM899 201h102v-102h-102v102zM1399 201h102v-102h-102v102zM999 101h102v-102h-102v102zM1099 101h102v-102h-102v102zM1199 101h102v-102h-102v102z
M1299 101h102v-102h-102v102z" />
    <glyph glyph-name="uniF14D" unicode="&#xf14d;" horiz-adv-x="3200" 
d="M99 0zM199 601h102v-102h-102v102zM299 601h102v-102h-102v102zM399 601h102v-102h-102v102zM499 601h102v-102h-102v102zM99 501h102v-102h-102v102zM199 401h102v-102h-102v102zM299 401h102v-102h-102v102zM399 401h102v-102h-102v102zM499 401h102v-102h-102v102z
M599 301h102v-102h-102v102zM99 201h102v-102h-102v102zM599 201h102v-102h-102v102zM199 101h102v-102h-102v102zM299 101h102v-102h-102v102zM399 101h102v-102h-102v102zM499 101h102v-102h-102v102zM799 601h102v-102h-102v102zM899 601h102v-102h-102v102zM999 601h102
v-102h-102v102zM1099 601h102v-102h-102v102zM1199 601h102v-102h-102v102zM1299 601h102v-102h-102v102zM1399 601h102v-102h-102v102zM1099 501h102v-102h-102v102zM1099 401h102v-102h-102v102zM1099 301h102v-102h-102v102zM1099 201h102v-102h-102v102zM1099 101h102
v-102h-102v102zM1699 601h102v-102h-102v102zM1799 601h102v-102h-102v102zM1899 601h102v-102h-102v102zM1999 601h102v-102h-102v102zM2099 601h102v-102h-102v102zM2199 601h102v-102h-102v102zM1699 501h102v-102h-102v102zM1699 401h102v-102h-102v102zM1799 401h102
v-102h-102v102zM1899 401h102v-102h-102v102zM1999 401h102v-102h-102v102zM2099 401h102v-102h-102v102zM1699 301h102v-102h-102v102zM1699 201h102v-102h-102v102zM1699 101h102v-102h-102v102zM1799 101h102v-102h-102v102zM1899 101h102v-102h-102v102zM1999 101h102
v-102h-102v102zM2099 101h102v-102h-102v102zM2199 101h102v-102h-102v102zM2499 601h102v-102h-102v102zM2599 601h102v-102h-102v102zM2699 601h102v-102h-102v102zM2799 601h102v-102h-102v102zM2899 601h102v-102h-102v102zM2499 501h102v-102h-102v102zM2999 501h102
v-102h-102v102zM2499 401h102v-102h-102v102zM2999 401h102v-102h-102v102zM2499 301h102v-102h-102v102zM2599 301h102v-102h-102v102zM2699 301h102v-102h-102v102zM2799 301h102v-102h-102v102zM2899 301h102v-102h-102v102zM2499 201h102v-102h-102v102zM2499 101h102
v-102h-102v102z" />
    <glyph glyph-name="uniF14E" unicode="&#xf14e;" horiz-adv-x="4000" 
d="M99 0zM99 601h102v-102h-102v102zM199 601h102v-102h-102v102zM299 601h102v-102h-102v102zM399 601h102v-102h-102v102zM99 501h102v-102h-102v102zM499 501h102v-102h-102v102zM99 401h102v-102h-102v102zM599 401h102v-102h-102v102zM99 301h102v-102h-102v102z
M599 301h102v-102h-102v102zM99 201h102v-102h-102v102zM499 201h102v-102h-102v102zM99 101h102v-102h-102v102zM199 101h102v-102h-102v102zM299 101h102v-102h-102v102zM399 101h102v-102h-102v102zM899 601h102v-102h-102v102zM999 601h102v-102h-102v102zM1099 601h102
v-102h-102v102zM1199 601h102v-102h-102v102zM1299 601h102v-102h-102v102zM1399 601h102v-102h-102v102zM899 501h102v-102h-102v102zM899 401h102v-102h-102v102zM999 401h102v-102h-102v102zM1099 401h102v-102h-102v102zM1199 401h102v-102h-102v102zM1299 401h102v-102
h-102v102zM899 301h102v-102h-102v102zM899 201h102v-102h-102v102zM899 101h102v-102h-102v102zM999 101h102v-102h-102v102zM1099 101h102v-102h-102v102zM1199 101h102v-102h-102v102zM1299 101h102v-102h-102v102zM1399 101h102v-102h-102v102zM1699 601h102v-102h-102
v102zM1799 601h102v-102h-102v102zM1899 601h102v-102h-102v102zM1999 601h102v-102h-102v102zM2099 601h102v-102h-102v102zM2199 601h102v-102h-102v102zM1699 501h102v-102h-102v102zM1699 401h102v-102h-102v102zM1799 401h102v-102h-102v102zM1899 401h102v-102h-102
v102zM1999 401h102v-102h-102v102zM2099 401h102v-102h-102v102zM1699 301h102v-102h-102v102zM1699 201h102v-102h-102v102zM1699 101h102v-102h-102v102zM2499 601h102v-102h-102v102zM2599 601h102v-102h-102v102zM2699 601h102v-102h-102v102zM2799 601h102v-102h-102
v102zM2899 601h102v-102h-102v102zM2999 601h102v-102h-102v102zM2499 501h102v-102h-102v102zM2499 401h102v-102h-102v102zM2599 401h102v-102h-102v102zM2699 401h102v-102h-102v102zM2799 401h102v-102h-102v102zM2899 401h102v-102h-102v102zM2499 301h102v-102h-102
v102zM2499 201h102v-102h-102v102zM2499 101h102v-102h-102v102zM3299 601h102v-102h-102v102zM3799 601h102v-102h-102v102zM3299 501h102v-102h-102v102zM3399 501h102v-102h-102v102zM3799 501h102v-102h-102v102zM3299 401h102v-102h-102v102zM3499 401h102v-102h-102
v102zM3799 401h102v-102h-102v102zM3299 301h102v-102h-102v102zM3599 301h102v-102h-102v102zM3799 301h102v-102h-102v102zM3299 201h102v-102h-102v102zM3699 201h102v-102h-102v102zM3799 201h102v-102h-102v102zM3299 101h102v-102h-102v102zM3799 101h102v-102h-102
v102z" />
    <glyph glyph-name="uniF14F" unicode="&#xf14f;" horiz-adv-x="2400" 
d="M99 0zM199 601h102v-102h-102v102zM299 601h102v-102h-102v102zM399 601h102v-102h-102v102zM499 601h102v-102h-102v102zM99 501h102v-102h-102v102zM599 501h102v-102h-102v102zM99 401h102v-102h-102v102zM99 301h102v-102h-102v102zM99 201h102v-102h-102v102z
M599 201h102v-102h-102v102zM199 101h102v-102h-102v102zM299 101h102v-102h-102v102zM399 101h102v-102h-102v102zM499 101h102v-102h-102v102zM999 601h102v-102h-102v102zM1099 601h102v-102h-102v102zM1199 601h102v-102h-102v102zM1299 601h102v-102h-102v102zM899 501
h102v-102h-102v102zM1399 501h102v-102h-102v102zM899 401h102v-102h-102v102zM1399 401h102v-102h-102v102zM899 301h102v-102h-102v102zM999 301h102v-102h-102v102zM1099 301h102v-102h-102v102zM1199 301h102v-102h-102v102zM1299 301h102v-102h-102v102zM1399 301h102
v-102h-102v102zM899 201h102v-102h-102v102zM1399 201h102v-102h-102v102zM899 101h102v-102h-102v102zM1399 101h102v-102h-102v102zM1599 601h102v-102h-102v102zM1699 601h102v-102h-102v102zM1799 601h102v-102h-102v102zM1899 601h102v-102h-102v102zM1999 601h102
v-102h-102v102zM2099 601h102v-102h-102v102zM2199 601h102v-102h-102v102zM1899 501h102v-102h-102v102zM1899 401h102v-102h-102v102zM1899 301h102v-102h-102v102zM1899 201h102v-102h-102v102zM1899 101h102v-102h-102v102z" />
    <glyph glyph-name="uniF150" unicode="&#xf150;" horiz-adv-x="4800" 
d="M99 0zM99 601h102v-102h-102v102zM199 601h102v-102h-102v102zM299 601h102v-102h-102v102zM399 601h102v-102h-102v102zM499 601h102v-102h-102v102zM599 601h102v-102h-102v102zM99 501h102v-102h-102v102zM99 401h102v-102h-102v102zM199 401h102v-102h-102v102z
M299 401h102v-102h-102v102zM399 401h102v-102h-102v102zM499 401h102v-102h-102v102zM99 301h102v-102h-102v102zM99 201h102v-102h-102v102zM99 101h102v-102h-102v102zM999 601h102v-102h-102v102zM1099 601h102v-102h-102v102zM1199 601h102v-102h-102v102zM1299 601
h102v-102h-102v102zM899 501h102v-102h-102v102zM1399 501h102v-102h-102v102zM899 401h102v-102h-102v102zM1399 401h102v-102h-102v102zM899 301h102v-102h-102v102zM1399 301h102v-102h-102v102zM899 201h102v-102h-102v102zM1399 201h102v-102h-102v102zM999 101h102
v-102h-102v102zM1099 101h102v-102h-102v102zM1199 101h102v-102h-102v102zM1299 101h102v-102h-102v102zM1699 601h102v-102h-102v102zM1799 601h102v-102h-102v102zM1899 601h102v-102h-102v102zM1999 601h102v-102h-102v102zM2099 601h102v-102h-102v102zM1699 501h102
v-102h-102v102zM2199 501h102v-102h-102v102zM1699 401h102v-102h-102v102zM2199 401h102v-102h-102v102zM1699 301h102v-102h-102v102zM1799 301h102v-102h-102v102zM1899 301h102v-102h-102v102zM1999 301h102v-102h-102v102zM2099 301h102v-102h-102v102zM1699 201h102
v-102h-102v102zM2099 201h102v-102h-102v102zM1699 101h102v-102h-102v102zM2199 101h102v-102h-102v102zM2499 601h102v-102h-102v102zM2999 601h102v-102h-102v102zM2499 501h102v-102h-102v102zM2599 501h102v-102h-102v102zM2899 501h102v-102h-102v102zM2999 501h102
v-102h-102v102zM2499 401h102v-102h-102v102zM2699 401h102v-102h-102v102zM2799 401h102v-102h-102v102zM2999 401h102v-102h-102v102zM2499 301h102v-102h-102v102zM2999 301h102v-102h-102v102zM2499 201h102v-102h-102v102zM2999 201h102v-102h-102v102zM2499 101h102
v-102h-102v102zM2999 101h102v-102h-102v102zM3399 601h102v-102h-102v102zM3499 601h102v-102h-102v102zM3599 601h102v-102h-102v102zM3699 601h102v-102h-102v102zM3299 501h102v-102h-102v102zM3799 501h102v-102h-102v102zM3299 401h102v-102h-102v102zM3799 401h102
v-102h-102v102zM3299 301h102v-102h-102v102zM3399 301h102v-102h-102v102zM3499 301h102v-102h-102v102zM3599 301h102v-102h-102v102zM3699 301h102v-102h-102v102zM3799 301h102v-102h-102v102zM3299 201h102v-102h-102v102zM3799 201h102v-102h-102v102zM3299 101h102
v-102h-102v102zM3799 101h102v-102h-102v102zM3999 601h102v-102h-102v102zM4099 601h102v-102h-102v102zM4199 601h102v-102h-102v102zM4299 601h102v-102h-102v102zM4399 601h102v-102h-102v102zM4499 601h102v-102h-102v102zM4599 601h102v-102h-102v102zM4299 501h102
v-102h-102v102zM4299 401h102v-102h-102v102zM4299 301h102v-102h-102v102zM4299 201h102v-102h-102v102zM4299 101h102v-102h-102v102z" />
    <glyph glyph-name="uniF151" unicode="&#xf151;" horiz-adv-x="3200" 
d="M99 0zM99 601h102v-102h-102v102zM599 601h102v-102h-102v102zM99 501h102v-102h-102v102zM199 501h102v-102h-102v102zM499 501h102v-102h-102v102zM599 501h102v-102h-102v102zM99 401h102v-102h-102v102zM299 401h102v-102h-102v102zM399 401h102v-102h-102v102z
M599 401h102v-102h-102v102zM99 301h102v-102h-102v102zM599 301h102v-102h-102v102zM99 201h102v-102h-102v102zM599 201h102v-102h-102v102zM99 101h102v-102h-102v102zM599 101h102v-102h-102v102zM999 601h102v-102h-102v102zM1099 601h102v-102h-102v102zM1199 601h102
v-102h-102v102zM1299 601h102v-102h-102v102zM899 501h102v-102h-102v102zM1399 501h102v-102h-102v102zM899 401h102v-102h-102v102zM1399 401h102v-102h-102v102zM899 301h102v-102h-102v102zM1399 301h102v-102h-102v102zM899 201h102v-102h-102v102zM1399 201h102v-102
h-102v102zM999 101h102v-102h-102v102zM1099 101h102v-102h-102v102zM1199 101h102v-102h-102v102zM1299 101h102v-102h-102v102zM1699 601h102v-102h-102v102zM2199 601h102v-102h-102v102zM1699 501h102v-102h-102v102zM2199 501h102v-102h-102v102zM1699 401h102v-102
h-102v102zM2199 401h102v-102h-102v102zM1699 301h102v-102h-102v102zM2199 301h102v-102h-102v102zM1799 201h102v-102h-102v102zM2099 201h102v-102h-102v102zM1899 101h102v-102h-102v102zM1999 101h102v-102h-102v102zM2499 601h102v-102h-102v102zM2599 601h102v-102
h-102v102zM2699 601h102v-102h-102v102zM2799 601h102v-102h-102v102zM2899 601h102v-102h-102v102zM2999 601h102v-102h-102v102zM2499 501h102v-102h-102v102zM2499 401h102v-102h-102v102zM2599 401h102v-102h-102v102zM2699 401h102v-102h-102v102zM2799 401h102v-102
h-102v102zM2899 401h102v-102h-102v102zM2499 301h102v-102h-102v102zM2499 201h102v-102h-102v102zM2499 101h102v-102h-102v102zM2599 101h102v-102h-102v102zM2699 101h102v-102h-102v102zM2799 101h102v-102h-102v102zM2899 101h102v-102h-102v102zM2999 101h102v-102
h-102v102z" />
    <glyph glyph-name="uniF152" unicode="&#xf152;" horiz-adv-x="4000" 
d="M99 0zM99 601h102v-102h-102v102zM199 601h102v-102h-102v102zM299 601h102v-102h-102v102zM399 601h102v-102h-102v102zM499 601h102v-102h-102v102zM599 601h102v-102h-102v102zM99 501h102v-102h-102v102zM99 401h102v-102h-102v102zM199 401h102v-102h-102v102z
M299 401h102v-102h-102v102zM399 401h102v-102h-102v102zM499 401h102v-102h-102v102zM99 301h102v-102h-102v102zM99 201h102v-102h-102v102zM99 101h102v-102h-102v102zM199 101h102v-102h-102v102zM299 101h102v-102h-102v102zM399 101h102v-102h-102v102zM499 101h102
v-102h-102v102zM599 101h102v-102h-102v102zM899 601h102v-102h-102v102zM999 601h102v-102h-102v102zM1099 601h102v-102h-102v102zM1199 601h102v-102h-102v102zM1299 601h102v-102h-102v102zM899 501h102v-102h-102v102zM1399 501h102v-102h-102v102zM899 401h102v-102
h-102v102zM1399 401h102v-102h-102v102zM899 301h102v-102h-102v102zM999 301h102v-102h-102v102zM1099 301h102v-102h-102v102zM1199 301h102v-102h-102v102zM1299 301h102v-102h-102v102zM899 201h102v-102h-102v102zM1299 201h102v-102h-102v102zM899 101h102v-102h-102
v102zM1399 101h102v-102h-102v102zM1799 601h102v-102h-102v102zM1899 601h102v-102h-102v102zM1999 601h102v-102h-102v102zM2099 601h102v-102h-102v102zM1699 501h102v-102h-102v102zM2199 501h102v-102h-102v102zM1699 401h102v-102h-102v102zM2199 401h102v-102h-102
v102zM1699 301h102v-102h-102v102zM1799 301h102v-102h-102v102zM1899 301h102v-102h-102v102zM1999 301h102v-102h-102v102zM2099 301h102v-102h-102v102zM2199 301h102v-102h-102v102zM1699 201h102v-102h-102v102zM2199 201h102v-102h-102v102zM1699 101h102v-102h-102
v102zM2199 101h102v-102h-102v102zM2599 601h102v-102h-102v102zM2699 601h102v-102h-102v102zM2799 601h102v-102h-102v102zM2899 601h102v-102h-102v102zM2499 501h102v-102h-102v102zM2599 401h102v-102h-102v102zM2699 401h102v-102h-102v102zM2799 401h102v-102h-102
v102zM2899 401h102v-102h-102v102zM2999 301h102v-102h-102v102zM2499 201h102v-102h-102v102zM2999 201h102v-102h-102v102zM2599 101h102v-102h-102v102zM2699 101h102v-102h-102v102zM2799 101h102v-102h-102v102zM2899 101h102v-102h-102v102zM3299 601h102v-102h-102
v102zM3399 601h102v-102h-102v102zM3499 601h102v-102h-102v102zM3599 601h102v-102h-102v102zM3699 601h102v-102h-102v102zM3799 601h102v-102h-102v102zM3299 501h102v-102h-102v102zM3299 401h102v-102h-102v102zM3399 401h102v-102h-102v102zM3499 401h102v-102h-102
v102zM3599 401h102v-102h-102v102zM3699 401h102v-102h-102v102zM3299 301h102v-102h-102v102zM3299 201h102v-102h-102v102zM3299 101h102v-102h-102v102zM3399 101h102v-102h-102v102zM3499 101h102v-102h-102v102zM3599 101h102v-102h-102v102zM3699 101h102v-102h-102
v102zM3799 101h102v-102h-102v102z" />
    <glyph glyph-name="uniF153" unicode="&#xf153;" horiz-adv-x="4000" 
d="M99 0zM199 601h102v-102h-102v102zM299 601h102v-102h-102v102zM399 601h102v-102h-102v102zM499 601h102v-102h-102v102zM99 501h102v-102h-102v102zM599 501h102v-102h-102v102zM99 401h102v-102h-102v102zM599 401h102v-102h-102v102zM99 301h102v-102h-102v102z
M599 301h102v-102h-102v102zM99 201h102v-102h-102v102zM599 201h102v-102h-102v102zM199 101h102v-102h-102v102zM299 101h102v-102h-102v102zM399 101h102v-102h-102v102zM499 101h102v-102h-102v102zM899 601h102v-102h-102v102zM999 601h102v-102h-102v102zM1099 601
h102v-102h-102v102zM1199 601h102v-102h-102v102zM1299 601h102v-102h-102v102zM899 501h102v-102h-102v102zM1399 501h102v-102h-102v102zM899 401h102v-102h-102v102zM1399 401h102v-102h-102v102zM899 301h102v-102h-102v102zM999 301h102v-102h-102v102zM1099 301h102
v-102h-102v102zM1199 301h102v-102h-102v102zM1299 301h102v-102h-102v102zM899 201h102v-102h-102v102zM899 101h102v-102h-102v102zM1699 601h102v-102h-102v102zM1799 601h102v-102h-102v102zM1899 601h102v-102h-102v102zM1999 601h102v-102h-102v102zM2099 601h102
v-102h-102v102zM2199 601h102v-102h-102v102zM1699 501h102v-102h-102v102zM1699 401h102v-102h-102v102zM1799 401h102v-102h-102v102zM1899 401h102v-102h-102v102zM1999 401h102v-102h-102v102zM2099 401h102v-102h-102v102zM1699 301h102v-102h-102v102zM1699 201h102
v-102h-102v102zM1699 101h102v-102h-102v102zM1799 101h102v-102h-102v102zM1899 101h102v-102h-102v102zM1999 101h102v-102h-102v102zM2099 101h102v-102h-102v102zM2199 101h102v-102h-102v102zM2499 601h102v-102h-102v102zM2999 601h102v-102h-102v102zM2499 501h102
v-102h-102v102zM2599 501h102v-102h-102v102zM2999 501h102v-102h-102v102zM2499 401h102v-102h-102v102zM2699 401h102v-102h-102v102zM2999 401h102v-102h-102v102zM2499 301h102v-102h-102v102zM2799 301h102v-102h-102v102zM2999 301h102v-102h-102v102zM2499 201h102
v-102h-102v102zM2899 201h102v-102h-102v102zM2999 201h102v-102h-102v102zM2499 101h102v-102h-102v102zM2999 101h102v-102h-102v102zM3399 601h102v-102h-102v102zM3699 601h102v-102h-102v102zM3299 501h102v-102h-102v102zM3399 501h102v-102h-102v102zM3499 501h102
v-102h-102v102zM3599 501h102v-102h-102v102zM3699 501h102v-102h-102v102zM3799 501h102v-102h-102v102zM3399 401h102v-102h-102v102zM3699 401h102v-102h-102v102zM3399 301h102v-102h-102v102zM3699 301h102v-102h-102v102zM3299 201h102v-102h-102v102zM3399 201h102
v-102h-102v102zM3499 201h102v-102h-102v102zM3599 201h102v-102h-102v102zM3699 201h102v-102h-102v102zM3799 201h102v-102h-102v102zM3399 101h102v-102h-102v102zM3699 101h102v-102h-102v102z" />
    <glyph glyph-name="uniF154" unicode="&#xf154;" horiz-adv-x="4800" 
d="M99 0zM199 601h102v-102h-102v102zM299 601h102v-102h-102v102zM399 601h102v-102h-102v102zM499 601h102v-102h-102v102zM99 501h102v-102h-102v102zM599 501h102v-102h-102v102zM99 401h102v-102h-102v102zM99 301h102v-102h-102v102zM99 201h102v-102h-102v102z
M599 201h102v-102h-102v102zM199 101h102v-102h-102v102zM299 101h102v-102h-102v102zM399 101h102v-102h-102v102zM499 101h102v-102h-102v102zM899 601h102v-102h-102v102zM899 501h102v-102h-102v102zM899 401h102v-102h-102v102zM899 301h102v-102h-102v102zM899 201
h102v-102h-102v102zM899 101h102v-102h-102v102zM999 101h102v-102h-102v102zM1099 101h102v-102h-102v102zM1199 101h102v-102h-102v102zM1299 101h102v-102h-102v102zM1399 101h102v-102h-102v102zM1799 601h102v-102h-102v102zM1899 601h102v-102h-102v102zM1999 601h102
v-102h-102v102zM2099 601h102v-102h-102v102zM1699 501h102v-102h-102v102zM2199 501h102v-102h-102v102zM1699 401h102v-102h-102v102zM2199 401h102v-102h-102v102zM1699 301h102v-102h-102v102zM2199 301h102v-102h-102v102zM1699 201h102v-102h-102v102zM2199 201h102
v-102h-102v102zM1799 101h102v-102h-102v102zM1899 101h102v-102h-102v102zM1999 101h102v-102h-102v102zM2099 101h102v-102h-102v102zM2599 601h102v-102h-102v102zM2699 601h102v-102h-102v102zM2799 601h102v-102h-102v102zM2899 601h102v-102h-102v102zM2499 501h102
v-102h-102v102zM2599 401h102v-102h-102v102zM2699 401h102v-102h-102v102zM2799 401h102v-102h-102v102zM2899 401h102v-102h-102v102zM2999 301h102v-102h-102v102zM2499 201h102v-102h-102v102zM2999 201h102v-102h-102v102zM2599 101h102v-102h-102v102zM2699 101h102
v-102h-102v102zM2799 101h102v-102h-102v102zM2899 101h102v-102h-102v102zM3299 601h102v-102h-102v102zM3399 601h102v-102h-102v102zM3499 601h102v-102h-102v102zM3599 601h102v-102h-102v102zM3699 601h102v-102h-102v102zM3799 601h102v-102h-102v102zM3299 501h102
v-102h-102v102zM3299 401h102v-102h-102v102zM3399 401h102v-102h-102v102zM3499 401h102v-102h-102v102zM3599 401h102v-102h-102v102zM3699 401h102v-102h-102v102zM3299 301h102v-102h-102v102zM3299 201h102v-102h-102v102zM3299 101h102v-102h-102v102zM3399 101h102
v-102h-102v102zM3499 101h102v-102h-102v102zM3599 101h102v-102h-102v102zM3699 101h102v-102h-102v102zM3799 101h102v-102h-102v102zM4199 601h102v-102h-102v102zM4499 601h102v-102h-102v102zM4099 501h102v-102h-102v102zM4199 501h102v-102h-102v102zM4299 501h102
v-102h-102v102zM4399 501h102v-102h-102v102zM4499 501h102v-102h-102v102zM4599 501h102v-102h-102v102zM4199 401h102v-102h-102v102zM4499 401h102v-102h-102v102zM4199 301h102v-102h-102v102zM4499 301h102v-102h-102v102zM4099 201h102v-102h-102v102zM4199 201h102
v-102h-102v102zM4299 201h102v-102h-102v102zM4399 201h102v-102h-102v102zM4499 201h102v-102h-102v102zM4599 201h102v-102h-102v102zM4199 101h102v-102h-102v102zM4499 101h102v-102h-102v102z" />
    <glyph glyph-name="uniF155" unicode="&#xf155;" horiz-adv-x="4000" 
d="M99 0zM99 601h102v-102h-102v102zM599 601h102v-102h-102v102zM99 501h102v-102h-102v102zM199 501h102v-102h-102v102zM499 501h102v-102h-102v102zM599 501h102v-102h-102v102zM99 401h102v-102h-102v102zM299 401h102v-102h-102v102zM399 401h102v-102h-102v102z
M599 401h102v-102h-102v102zM99 301h102v-102h-102v102zM599 301h102v-102h-102v102zM99 201h102v-102h-102v102zM599 201h102v-102h-102v102zM99 101h102v-102h-102v102zM599 101h102v-102h-102v102zM899 601h102v-102h-102v102zM999 601h102v-102h-102v102zM1099 601h102
v-102h-102v102zM1199 601h102v-102h-102v102zM1299 601h102v-102h-102v102zM1399 601h102v-102h-102v102zM899 501h102v-102h-102v102zM899 401h102v-102h-102v102zM999 401h102v-102h-102v102zM1099 401h102v-102h-102v102zM1199 401h102v-102h-102v102zM1299 401h102v-102
h-102v102zM899 301h102v-102h-102v102zM899 201h102v-102h-102v102zM899 101h102v-102h-102v102zM999 101h102v-102h-102v102zM1099 101h102v-102h-102v102zM1199 101h102v-102h-102v102zM1299 101h102v-102h-102v102zM1399 101h102v-102h-102v102zM1699 601h102v-102h-102
v102zM1799 601h102v-102h-102v102zM1899 601h102v-102h-102v102zM1999 601h102v-102h-102v102zM2099 601h102v-102h-102v102zM1699 501h102v-102h-102v102zM2199 501h102v-102h-102v102zM1699 401h102v-102h-102v102zM2199 401h102v-102h-102v102zM1699 301h102v-102h-102
v102zM1799 301h102v-102h-102v102zM1899 301h102v-102h-102v102zM1999 301h102v-102h-102v102zM2099 301h102v-102h-102v102zM1699 201h102v-102h-102v102zM2099 201h102v-102h-102v102zM1699 101h102v-102h-102v102zM2199 101h102v-102h-102v102zM2599 601h102v-102h-102
v102zM2699 601h102v-102h-102v102zM2799 601h102v-102h-102v102zM2899 601h102v-102h-102v102zM2499 501h102v-102h-102v102zM2999 501h102v-102h-102v102zM2499 401h102v-102h-102v102zM2499 301h102v-102h-102v102zM2799 301h102v-102h-102v102zM2899 301h102v-102h-102
v102zM2999 301h102v-102h-102v102zM2499 201h102v-102h-102v102zM2999 201h102v-102h-102v102zM2599 101h102v-102h-102v102zM2699 101h102v-102h-102v102zM2799 101h102v-102h-102v102zM2899 101h102v-102h-102v102zM3299 601h102v-102h-102v102zM3399 601h102v-102h-102
v102zM3499 601h102v-102h-102v102zM3599 601h102v-102h-102v102zM3699 601h102v-102h-102v102zM3799 601h102v-102h-102v102zM3299 501h102v-102h-102v102zM3299 401h102v-102h-102v102zM3399 401h102v-102h-102v102zM3499 401h102v-102h-102v102zM3599 401h102v-102h-102
v102zM3699 401h102v-102h-102v102zM3299 301h102v-102h-102v102zM3299 201h102v-102h-102v102zM3299 101h102v-102h-102v102zM3399 101h102v-102h-102v102zM3499 101h102v-102h-102v102zM3599 101h102v-102h-102v102zM3699 101h102v-102h-102v102zM3799 101h102v-102h-102
v102z" />
    <glyph glyph-name="uniF156" unicode="&#xf156;" horiz-adv-x="4800" 
d="M99 0zM99 601h102v-102h-102v102zM599 601h102v-102h-102v102zM99 501h102v-102h-102v102zM599 501h102v-102h-102v102zM99 401h102v-102h-102v102zM599 401h102v-102h-102v102zM99 301h102v-102h-102v102zM599 301h102v-102h-102v102zM199 201h102v-102h-102v102z
M499 201h102v-102h-102v102zM299 101h102v-102h-102v102zM399 101h102v-102h-102v102zM899 601h102v-102h-102v102zM999 601h102v-102h-102v102zM1099 601h102v-102h-102v102zM1199 601h102v-102h-102v102zM1299 601h102v-102h-102v102zM1399 601h102v-102h-102v102z
M899 501h102v-102h-102v102zM899 401h102v-102h-102v102zM999 401h102v-102h-102v102zM1099 401h102v-102h-102v102zM1199 401h102v-102h-102v102zM1299 401h102v-102h-102v102zM899 301h102v-102h-102v102zM899 201h102v-102h-102v102zM899 101h102v-102h-102v102zM999 101
h102v-102h-102v102zM1099 101h102v-102h-102v102zM1199 101h102v-102h-102v102zM1299 101h102v-102h-102v102zM1399 101h102v-102h-102v102zM1699 601h102v-102h-102v102zM1799 601h102v-102h-102v102zM1899 601h102v-102h-102v102zM1999 601h102v-102h-102v102zM2099 601
h102v-102h-102v102zM1699 501h102v-102h-102v102zM2199 501h102v-102h-102v102zM1699 401h102v-102h-102v102zM2199 401h102v-102h-102v102zM1699 301h102v-102h-102v102zM1799 301h102v-102h-102v102zM1899 301h102v-102h-102v102zM1999 301h102v-102h-102v102zM2099 301
h102v-102h-102v102zM1699 201h102v-102h-102v102zM2099 201h102v-102h-102v102zM1699 101h102v-102h-102v102zM2199 101h102v-102h-102v102zM2599 601h102v-102h-102v102zM2699 601h102v-102h-102v102zM2799 601h102v-102h-102v102zM2899 601h102v-102h-102v102zM2999 601
h102v-102h-102v102zM2799 501h102v-102h-102v102zM2799 401h102v-102h-102v102zM2799 301h102v-102h-102v102zM2799 201h102v-102h-102v102zM2599 101h102v-102h-102v102zM2699 101h102v-102h-102v102zM2799 101h102v-102h-102v102zM2899 101h102v-102h-102v102zM2999 101
h102v-102h-102v102zM3299 601h102v-102h-102v102zM3399 601h102v-102h-102v102zM3499 601h102v-102h-102v102zM3599 601h102v-102h-102v102zM3699 601h102v-102h-102v102zM3799 601h102v-102h-102v102zM3299 501h102v-102h-102v102zM3299 401h102v-102h-102v102zM3399 401
h102v-102h-102v102zM3499 401h102v-102h-102v102zM3599 401h102v-102h-102v102zM3699 401h102v-102h-102v102zM3299 301h102v-102h-102v102zM3299 201h102v-102h-102v102zM3299 101h102v-102h-102v102zM3999 601h102v-102h-102v102zM4599 601h102v-102h-102v102zM4099 501
h102v-102h-102v102zM4499 501h102v-102h-102v102zM4199 401h102v-102h-102v102zM4399 401h102v-102h-102v102zM4299 301h102v-102h-102v102zM4299 201h102v-102h-102v102zM4299 101h102v-102h-102v102z" />
    <glyph glyph-name="uniF157" unicode="&#xf157;" horiz-adv-x="3200" 
d="M99 0zM99 601h102v-102h-102v102zM199 601h102v-102h-102v102zM299 601h102v-102h-102v102zM399 601h102v-102h-102v102zM499 601h102v-102h-102v102zM99 501h102v-102h-102v102zM599 501h102v-102h-102v102zM99 401h102v-102h-102v102zM199 401h102v-102h-102v102z
M299 401h102v-102h-102v102zM399 401h102v-102h-102v102zM499 401h102v-102h-102v102zM99 301h102v-102h-102v102zM599 301h102v-102h-102v102zM99 201h102v-102h-102v102zM599 201h102v-102h-102v102zM99 101h102v-102h-102v102zM199 101h102v-102h-102v102zM299 101h102
v-102h-102v102zM399 101h102v-102h-102v102zM499 101h102v-102h-102v102zM899 601h102v-102h-102v102zM999 601h102v-102h-102v102zM1099 601h102v-102h-102v102zM1199 601h102v-102h-102v102zM1299 601h102v-102h-102v102zM1399 601h102v-102h-102v102zM899 501h102v-102
h-102v102zM899 401h102v-102h-102v102zM999 401h102v-102h-102v102zM1099 401h102v-102h-102v102zM1199 401h102v-102h-102v102zM1299 401h102v-102h-102v102zM899 301h102v-102h-102v102zM899 201h102v-102h-102v102zM899 101h102v-102h-102v102zM999 101h102v-102h-102
v102zM1099 101h102v-102h-102v102zM1199 101h102v-102h-102v102zM1299 101h102v-102h-102v102zM1399 101h102v-102h-102v102zM1699 601h102v-102h-102v102zM1799 601h102v-102h-102v102zM1899 601h102v-102h-102v102zM1999 601h102v-102h-102v102zM2099 601h102v-102h-102
v102zM2199 601h102v-102h-102v102zM1699 501h102v-102h-102v102zM1699 401h102v-102h-102v102zM1799 401h102v-102h-102v102zM1899 401h102v-102h-102v102zM1999 401h102v-102h-102v102zM2099 401h102v-102h-102v102zM1699 301h102v-102h-102v102zM1699 201h102v-102h-102
v102zM1699 101h102v-102h-102v102zM1799 101h102v-102h-102v102zM1899 101h102v-102h-102v102zM1999 101h102v-102h-102v102zM2099 101h102v-102h-102v102zM2199 101h102v-102h-102v102zM2499 601h102v-102h-102v102zM2599 601h102v-102h-102v102zM2699 601h102v-102h-102
v102zM2799 601h102v-102h-102v102zM2899 601h102v-102h-102v102zM2499 501h102v-102h-102v102zM2999 501h102v-102h-102v102zM2499 401h102v-102h-102v102zM2999 401h102v-102h-102v102zM2499 301h102v-102h-102v102zM2599 301h102v-102h-102v102zM2699 301h102v-102h-102
v102zM2799 301h102v-102h-102v102zM2899 301h102v-102h-102v102zM2499 201h102v-102h-102v102zM2499 101h102v-102h-102v102z" />
    <glyph glyph-name="uniF158" unicode="&#xf158;" horiz-adv-x="4800" 
d="M99 0zM199 601h102v-102h-102v102zM299 601h102v-102h-102v102zM399 601h102v-102h-102v102zM499 601h102v-102h-102v102zM99 501h102v-102h-102v102zM599 501h102v-102h-102v102zM99 401h102v-102h-102v102zM99 301h102v-102h-102v102zM99 201h102v-102h-102v102z
M599 201h102v-102h-102v102zM199 101h102v-102h-102v102zM299 101h102v-102h-102v102zM399 101h102v-102h-102v102zM499 101h102v-102h-102v102zM999 601h102v-102h-102v102zM1099 601h102v-102h-102v102zM1199 601h102v-102h-102v102zM1299 601h102v-102h-102v102z
M1399 601h102v-102h-102v102zM1199 501h102v-102h-102v102zM1199 401h102v-102h-102v102zM1199 301h102v-102h-102v102zM1199 201h102v-102h-102v102zM999 101h102v-102h-102v102zM1099 101h102v-102h-102v102zM1199 101h102v-102h-102v102zM1299 101h102v-102h-102v102z
M1399 101h102v-102h-102v102zM1699 601h102v-102h-102v102zM1799 601h102v-102h-102v102zM1899 601h102v-102h-102v102zM1999 601h102v-102h-102v102zM2099 601h102v-102h-102v102zM1699 501h102v-102h-102v102zM2199 501h102v-102h-102v102zM1699 401h102v-102h-102v102z
M2199 401h102v-102h-102v102zM1699 301h102v-102h-102v102zM1799 301h102v-102h-102v102zM1899 301h102v-102h-102v102zM1999 301h102v-102h-102v102zM2099 301h102v-102h-102v102zM1699 201h102v-102h-102v102zM2099 201h102v-102h-102v102zM1699 101h102v-102h-102v102z
M2199 101h102v-102h-102v102zM2599 601h102v-102h-102v102zM2699 601h102v-102h-102v102zM2799 601h102v-102h-102v102zM2899 601h102v-102h-102v102zM2499 501h102v-102h-102v102zM2999 501h102v-102h-102v102zM2499 401h102v-102h-102v102zM2499 301h102v-102h-102v102z
M2499 201h102v-102h-102v102zM2999 201h102v-102h-102v102zM2599 101h102v-102h-102v102zM2699 101h102v-102h-102v102zM2799 101h102v-102h-102v102zM2899 101h102v-102h-102v102zM3299 601h102v-102h-102v102zM3299 501h102v-102h-102v102zM3299 401h102v-102h-102v102z
M3299 301h102v-102h-102v102zM3299 201h102v-102h-102v102zM3299 101h102v-102h-102v102zM3399 101h102v-102h-102v102zM3499 101h102v-102h-102v102zM3599 101h102v-102h-102v102zM3699 101h102v-102h-102v102zM3799 101h102v-102h-102v102zM4099 601h102v-102h-102v102z
M4199 601h102v-102h-102v102zM4299 601h102v-102h-102v102zM4399 601h102v-102h-102v102zM4499 601h102v-102h-102v102zM4599 601h102v-102h-102v102zM4099 501h102v-102h-102v102zM4099 401h102v-102h-102v102zM4199 401h102v-102h-102v102zM4299 401h102v-102h-102v102z
M4399 401h102v-102h-102v102zM4499 401h102v-102h-102v102zM4099 301h102v-102h-102v102zM4099 201h102v-102h-102v102zM4099 101h102v-102h-102v102zM4199 101h102v-102h-102v102zM4299 101h102v-102h-102v102zM4399 101h102v-102h-102v102zM4499 101h102v-102h-102v102z
M4599 101h102v-102h-102v102z" />
    <glyph glyph-name="uniF159" unicode="&#xf159;" horiz-adv-x="2400" 
d="M199 0zM199 601h102v-102h-102v102zM299 601h102v-102h-102v102zM399 601h102v-102h-102v102zM499 601h102v-102h-102v102zM599 601h102v-102h-102v102zM399 501h102v-102h-102v102zM399 401h102v-102h-102v102zM399 301h102v-102h-102v102zM399 201h102v-102h-102v102z
M199 101h102v-102h-102v102zM299 101h102v-102h-102v102zM399 101h102v-102h-102v102zM499 101h102v-102h-102v102zM599 101h102v-102h-102v102zM899 601h102v-102h-102v102zM1399 601h102v-102h-102v102zM899 501h102v-102h-102v102zM999 501h102v-102h-102v102zM1399 501
h102v-102h-102v102zM899 401h102v-102h-102v102zM1099 401h102v-102h-102v102zM1399 401h102v-102h-102v102zM899 301h102v-102h-102v102zM1199 301h102v-102h-102v102zM1399 301h102v-102h-102v102zM899 201h102v-102h-102v102zM1299 201h102v-102h-102v102zM1399 201h102
v-102h-102v102zM899 101h102v-102h-102v102zM1399 101h102v-102h-102v102zM1699 601h102v-102h-102v102zM2099 601h102v-102h-102v102zM1699 501h102v-102h-102v102zM1999 501h102v-102h-102v102zM1699 401h102v-102h-102v102zM1799 401h102v-102h-102v102zM1899 401h102
v-102h-102v102zM1699 301h102v-102h-102v102zM1999 301h102v-102h-102v102zM1699 201h102v-102h-102v102zM2099 201h102v-102h-102v102zM1699 101h102v-102h-102v102zM2199 101h102v-102h-102v102z" />
    <glyph glyph-name="uniF15A" unicode="&#xf15a;" horiz-adv-x="4000" 
d="M99 0zM99 601h102v-102h-102v102zM199 601h102v-102h-102v102zM299 601h102v-102h-102v102zM399 601h102v-102h-102v102zM499 601h102v-102h-102v102zM99 501h102v-102h-102v102zM599 501h102v-102h-102v102zM99 401h102v-102h-102v102zM599 401h102v-102h-102v102z
M99 301h102v-102h-102v102zM199 301h102v-102h-102v102zM299 301h102v-102h-102v102zM399 301h102v-102h-102v102zM499 301h102v-102h-102v102zM99 201h102v-102h-102v102zM99 101h102v-102h-102v102zM999 601h102v-102h-102v102zM1099 601h102v-102h-102v102zM1199 601h102
v-102h-102v102zM1299 601h102v-102h-102v102zM899 501h102v-102h-102v102zM1399 501h102v-102h-102v102zM899 401h102v-102h-102v102zM1399 401h102v-102h-102v102zM899 301h102v-102h-102v102zM999 301h102v-102h-102v102zM1099 301h102v-102h-102v102zM1199 301h102v-102
h-102v102zM1299 301h102v-102h-102v102zM1399 301h102v-102h-102v102zM899 201h102v-102h-102v102zM1399 201h102v-102h-102v102zM899 101h102v-102h-102v102zM1399 101h102v-102h-102v102zM1699 601h102v-102h-102v102zM1799 601h102v-102h-102v102zM1899 601h102v-102
h-102v102zM1999 601h102v-102h-102v102zM2099 601h102v-102h-102v102zM1699 501h102v-102h-102v102zM2199 501h102v-102h-102v102zM1699 401h102v-102h-102v102zM2199 401h102v-102h-102v102zM1699 301h102v-102h-102v102zM1799 301h102v-102h-102v102zM1899 301h102v-102
h-102v102zM1999 301h102v-102h-102v102zM2099 301h102v-102h-102v102zM1699 201h102v-102h-102v102zM1699 101h102v-102h-102v102zM2499 601h102v-102h-102v102zM2599 601h102v-102h-102v102zM2699 601h102v-102h-102v102zM2799 601h102v-102h-102v102zM2899 601h102v-102
h-102v102zM2999 601h102v-102h-102v102zM2499 501h102v-102h-102v102zM2499 401h102v-102h-102v102zM2599 401h102v-102h-102v102zM2699 401h102v-102h-102v102zM2799 401h102v-102h-102v102zM2899 401h102v-102h-102v102zM2499 301h102v-102h-102v102zM2499 201h102v-102
h-102v102zM2499 101h102v-102h-102v102zM2599 101h102v-102h-102v102zM2699 101h102v-102h-102v102zM2799 101h102v-102h-102v102zM2899 101h102v-102h-102v102zM2999 101h102v-102h-102v102zM3299 601h102v-102h-102v102zM3399 601h102v-102h-102v102zM3499 601h102v-102
h-102v102zM3599 601h102v-102h-102v102zM3699 601h102v-102h-102v102zM3299 501h102v-102h-102v102zM3799 501h102v-102h-102v102zM3299 401h102v-102h-102v102zM3799 401h102v-102h-102v102zM3299 301h102v-102h-102v102zM3399 301h102v-102h-102v102zM3499 301h102v-102
h-102v102zM3599 301h102v-102h-102v102zM3699 301h102v-102h-102v102zM3299 201h102v-102h-102v102zM3699 201h102v-102h-102v102zM3299 101h102v-102h-102v102zM3799 101h102v-102h-102v102z" />
    <glyph glyph-name="uniF15B" unicode="&#xf15b;" horiz-adv-x="4000" 
d="M99 0zM99 601h102v-102h-102v102zM199 601h102v-102h-102v102zM299 601h102v-102h-102v102zM399 601h102v-102h-102v102zM499 601h102v-102h-102v102zM599 601h102v-102h-102v102zM99 501h102v-102h-102v102zM99 401h102v-102h-102v102zM199 401h102v-102h-102v102z
M299 401h102v-102h-102v102zM399 401h102v-102h-102v102zM499 401h102v-102h-102v102zM99 301h102v-102h-102v102zM99 201h102v-102h-102v102zM99 101h102v-102h-102v102zM899 601h102v-102h-102v102zM899 501h102v-102h-102v102zM899 401h102v-102h-102v102zM899 301h102
v-102h-102v102zM899 201h102v-102h-102v102zM899 101h102v-102h-102v102zM999 101h102v-102h-102v102zM1099 101h102v-102h-102v102zM1199 101h102v-102h-102v102zM1299 101h102v-102h-102v102zM1399 101h102v-102h-102v102zM1799 601h102v-102h-102v102zM1899 601h102v-102
h-102v102zM1999 601h102v-102h-102v102zM2099 601h102v-102h-102v102zM1699 501h102v-102h-102v102zM2199 501h102v-102h-102v102zM1699 401h102v-102h-102v102zM2199 401h102v-102h-102v102zM1699 301h102v-102h-102v102zM1799 301h102v-102h-102v102zM1899 301h102v-102
h-102v102zM1999 301h102v-102h-102v102zM2099 301h102v-102h-102v102zM2199 301h102v-102h-102v102zM1699 201h102v-102h-102v102zM2199 201h102v-102h-102v102zM1699 101h102v-102h-102v102zM2199 101h102v-102h-102v102zM2599 601h102v-102h-102v102zM2699 601h102v-102
h-102v102zM2799 601h102v-102h-102v102zM2899 601h102v-102h-102v102zM2499 501h102v-102h-102v102zM2599 401h102v-102h-102v102zM2699 401h102v-102h-102v102zM2799 401h102v-102h-102v102zM2899 401h102v-102h-102v102zM2999 301h102v-102h-102v102zM2499 201h102v-102
h-102v102zM2999 201h102v-102h-102v102zM2599 101h102v-102h-102v102zM2699 101h102v-102h-102v102zM2799 101h102v-102h-102v102zM2899 101h102v-102h-102v102zM3299 601h102v-102h-102v102zM3799 601h102v-102h-102v102zM3299 501h102v-102h-102v102zM3799 501h102v-102
h-102v102zM3299 401h102v-102h-102v102zM3399 401h102v-102h-102v102zM3499 401h102v-102h-102v102zM3599 401h102v-102h-102v102zM3699 401h102v-102h-102v102zM3799 401h102v-102h-102v102zM3299 301h102v-102h-102v102zM3799 301h102v-102h-102v102zM3299 201h102v-102
h-102v102zM3799 201h102v-102h-102v102zM3299 101h102v-102h-102v102zM3799 101h102v-102h-102v102z" />
    <glyph glyph-name="uniF15C" unicode="&#xf15c;" horiz-adv-x="4800" 
d="M99 0zM99 601h102v-102h-102v102zM199 601h102v-102h-102v102zM299 601h102v-102h-102v102zM399 601h102v-102h-102v102zM499 601h102v-102h-102v102zM99 501h102v-102h-102v102zM599 501h102v-102h-102v102zM99 401h102v-102h-102v102zM199 401h102v-102h-102v102z
M299 401h102v-102h-102v102zM399 401h102v-102h-102v102zM499 401h102v-102h-102v102zM99 301h102v-102h-102v102zM599 301h102v-102h-102v102zM99 201h102v-102h-102v102zM599 201h102v-102h-102v102zM99 101h102v-102h-102v102zM199 101h102v-102h-102v102zM299 101h102
v-102h-102v102zM399 101h102v-102h-102v102zM499 101h102v-102h-102v102zM899 601h102v-102h-102v102zM999 601h102v-102h-102v102zM1099 601h102v-102h-102v102zM1199 601h102v-102h-102v102zM1299 601h102v-102h-102v102zM899 501h102v-102h-102v102zM1399 501h102v-102
h-102v102zM899 401h102v-102h-102v102zM1399 401h102v-102h-102v102zM899 301h102v-102h-102v102zM999 301h102v-102h-102v102zM1099 301h102v-102h-102v102zM1199 301h102v-102h-102v102zM1299 301h102v-102h-102v102zM899 201h102v-102h-102v102zM1299 201h102v-102h-102
v102zM899 101h102v-102h-102v102zM1399 101h102v-102h-102v102zM1799 601h102v-102h-102v102zM1899 601h102v-102h-102v102zM1999 601h102v-102h-102v102zM2099 601h102v-102h-102v102zM2199 601h102v-102h-102v102zM1999 501h102v-102h-102v102zM1999 401h102v-102h-102
v102zM1999 301h102v-102h-102v102zM1999 201h102v-102h-102v102zM1799 101h102v-102h-102v102zM1899 101h102v-102h-102v102zM1999 101h102v-102h-102v102zM2099 101h102v-102h-102v102zM2199 101h102v-102h-102v102zM2599 601h102v-102h-102v102zM2699 601h102v-102h-102
v102zM2799 601h102v-102h-102v102zM2899 601h102v-102h-102v102zM2499 501h102v-102h-102v102zM2999 501h102v-102h-102v102zM2499 401h102v-102h-102v102zM2499 301h102v-102h-102v102zM2799 301h102v-102h-102v102zM2899 301h102v-102h-102v102zM2999 301h102v-102h-102
v102zM2499 201h102v-102h-102v102zM2999 201h102v-102h-102v102zM2599 101h102v-102h-102v102zM2699 101h102v-102h-102v102zM2799 101h102v-102h-102v102zM2899 101h102v-102h-102v102zM3299 601h102v-102h-102v102zM3799 601h102v-102h-102v102zM3299 501h102v-102h-102
v102zM3799 501h102v-102h-102v102zM3299 401h102v-102h-102v102zM3399 401h102v-102h-102v102zM3499 401h102v-102h-102v102zM3599 401h102v-102h-102v102zM3699 401h102v-102h-102v102zM3799 401h102v-102h-102v102zM3299 301h102v-102h-102v102zM3799 301h102v-102h-102
v102zM3299 201h102v-102h-102v102zM3799 201h102v-102h-102v102zM3299 101h102v-102h-102v102zM3799 101h102v-102h-102v102zM3999 601h102v-102h-102v102zM4099 601h102v-102h-102v102zM4199 601h102v-102h-102v102zM4299 601h102v-102h-102v102zM4399 601h102v-102h-102
v102zM4499 601h102v-102h-102v102zM4599 601h102v-102h-102v102zM4299 501h102v-102h-102v102zM4299 401h102v-102h-102v102zM4299 301h102v-102h-102v102zM4299 201h102v-102h-102v102zM4299 101h102v-102h-102v102z" />
    </font>
</defs>
</svg>
